<svg width="1260" height="940" viewBox="0 0 1260 940" fill="none" xmlns="http://www.w3.org/2000/svg">
<path d="M1116.89 868.509L778.29 904.654L639.099 885.355L576.287 678.184L603.419 472.453L576.287 411.517L482.096 343.384L1153.35 547.729L1194.93 738.907C1194.93 738.907 1155.06 840.52 1116.84 868.455L1116.89 868.509Z" fill="#1D1D1B"/>
<path d="M674.724 786.941C674.724 786.941 431.581 924.753 371.746 715.556C371.746 715.556 432.188 499.268 409.081 472.506C330.993 382.035 301.71 402.987 296.636 404.213C291.563 405.439 147.684 414.076 11.4706 298.388C11.4706 298.388 194.724 171.985 319.522 256.538C444.32 341.091 579.21 398.082 579.21 398.082L604.688 492.818L591.728 582.649L583.07 702.015L591.728 769.721L674.724 786.941Z" fill="#1D1D1B"/>
<path d="M385.588 497.829C385.588 497.829 307.169 743.438 432.794 808.053C558.419 872.667 662.812 779.104 662.812 779.104L426.066 427.99L294.54 386.14C294.54 386.14 399.154 442.918 385.588 497.829Z" fill="#1D1D1B"/>
<path d="M830.901 922.673C830.901 922.673 508.401 995.711 544.081 657.712C579.761 319.713 999.375 588.779 999.375 588.779L1040.51 820.154L948.419 910.625L830.901 922.727V922.673Z" fill="#242422" stroke="#242422" stroke-width="4" stroke-miterlimit="10"/>
<path d="M1094.83 879.224C1094.83 879.224 1203.47 844.784 1251.01 547.782C1298.49 250.78 861.452 -249.661 241.93 162.175L305.57 318.06L506.085 367.267C506.085 367.267 611.029 446.009 612.96 449.101C614.89 452.194 591.783 772.173 591.783 772.173L677.316 885.408L1094.83 879.277V879.224Z" fill="#AD2721"/>
<path d="M1094.83 879.224C1094.83 879.224 1203.47 844.784 1251.01 547.782C1298.49 250.78 861.452 -249.661 241.93 162.175L305.57 318.06L506.085 367.267C506.085 367.267 611.029 446.009 612.96 449.101C614.89 452.194 591.783 772.173 591.783 772.173L677.316 885.408L1094.83 879.277V879.224Z" stroke="#1D1D1B" stroke-width="2" stroke-miterlimit="10"/>
<path d="M323.382 150.073C323.382 150.073 460.864 11.0887 665.846 8.58303C665.846 8.58303 473.603 7.25022 278.217 141.437L323.438 150.073H323.382Z" fill="#FFED00"/>
<path opacity="0.45" d="M712.114 6.29102C712.114 6.29102 1197.79 122.352 1231.32 524.165C1231.99 532.002 1253.22 533.495 1253.6 525.658C1262.04 338.586 1110.94 34.2266 712.114 6.34433V6.29102Z" fill="#DC1915"/>
<path d="M1094.83 878.424C1094.83 878.424 1203.47 843.985 1251.01 546.983C1298.49 249.98 861.452 -250.461 241.93 161.376L305.57 317.26L506.085 366.468C506.085 366.468 611.029 445.21 612.96 448.302C614.89 451.394 591.783 771.373 591.783 771.373L677.316 884.608L1094.83 878.478V878.424Z" stroke="#1D1D1B" stroke-width="2" stroke-miterlimit="10"/>
<path d="M1135.09 846.011C1135.09 846.011 1133 878.851 1083.75 887.861C1034.5 896.871 698.052 967.456 618.695 877.625C539.338 787.794 524.504 716.196 574.136 556.846C623.768 397.496 509.835 393.764 423.915 363.003C337.996 332.242 506.029 347.009 506.029 347.009C506.029 347.009 626.305 380.862 639.044 455.926C651.783 530.989 506.029 902.628 771.452 886.048C1036.88 869.415 1111.1 860.832 1135.09 846.064V846.011Z" fill="#242422" stroke="#242422" stroke-width="4" stroke-miterlimit="10"/>
<path d="M577.114 424.685C604.853 455.126 609.375 499.428 601.544 537.973C597.96 557.805 589.522 576.251 584.669 595.443C579.43 614.636 575.515 634.148 572.757 653.82C558.585 751.915 576.949 868.562 695.79 888.98C756.232 900.602 818.548 898.15 879.816 894.418C961.875 888.607 1043.6 877.465 1124.5 862.751C1043.93 879.437 962.371 892.019 880.147 898.63C818.548 903.001 755.735 905.454 694.688 893.992C573.364 873.52 552.739 753.407 569.063 653.287C572.04 633.508 576.287 613.943 581.801 594.644C586.985 575.238 595.864 557.059 599.614 537.546C607.996 499.322 604.246 455.339 577.114 424.631V424.685Z" fill="#2E2D2C"/>
<path d="M7.72058 298.388C7.72058 298.388 113.382 268.853 213.915 318.06C314.504 367.268 144.54 327.923 144.54 327.923C144.54 327.923 143.272 401.121 7.72058 298.388Z" fill="#1D1D1B"/>
<path d="M1101.78 727.231C1101.78 727.231 1026.67 588.78 1000.59 570.334C1000.59 570.334 812.812 646.037 803.934 646.037C803.934 646.037 914.669 484.821 924.871 474.372C924.871 474.372 800.735 319.34 774.651 304.572C774.651 304.572 971.305 343.33 992.316 350.101C992.316 350.101 1040.07 269.493 1045.15 217.833C1045.15 217.833 1080.17 273.811 1101.78 380.915C1101.78 380.915 1215.06 423.352 1223.99 435.081C1223.99 435.081 1138.68 512.01 1119.6 516.275C1119.6 516.275 1115.79 705.8 1101.78 727.338V727.231Z" fill="#FFED00"/>
<path d="M182.702 298.388C182.702 298.388 161.691 324.245 206.912 348.821C206.912 348.821 186.121 322.965 192.408 300.841L182.757 298.388H182.702Z" fill="#2E2D2C"/>
<path d="M528.915 216.554C528.915 216.554 629.779 354.686 444.871 372.172C444.871 372.172 392.096 368.28 234.926 326.483C77.7573 284.687 10.7537 294.176 10.7537 294.176C10.7537 294.176 64.3566 208.237 214.301 187.125C214.301 187.125 238.897 123.524 281.471 128.482C284.614 128.855 288.419 129.495 292.831 130.348C348.419 141.224 497.537 189.311 528.915 216.607V216.554Z" fill="#AD2721"/>
<path d="M528.915 216.554C528.915 216.554 629.779 354.686 444.871 372.172C444.871 372.172 392.096 368.28 234.926 326.483C77.7573 284.687 10.7537 294.176 10.7537 294.176C10.7537 294.176 64.3566 208.237 214.301 187.125C214.301 187.125 238.897 123.524 281.471 128.482C284.614 128.855 288.419 129.495 292.831 130.348C348.419 141.224 497.537 189.311 528.915 216.607V216.554Z" stroke="#1D1D1B" stroke-width="2" stroke-miterlimit="10"/>
<path d="M142.114 227.376C142.114 227.376 391.489 215.274 532.776 304.519C532.776 304.519 368.438 212.768 256.654 182.167C231.728 175.343 250.533 183.34 250.533 183.34L136.213 222.844L142.059 227.376H142.114Z" fill="#C6211B"/>
<path d="M290.846 130.241C290.846 130.241 255.276 181.474 250.809 193.15C246.342 204.825 177.684 176.143 54.761 294.976C28.7316 294.336 10.6985 294.176 10.6985 294.176C10.6985 294.176 63.6397 213.142 213.254 188.192C213.254 188.192 237.574 113.715 290.846 130.188V130.241Z" fill="#FFED00"/>
<path d="M252.298 181.581C299.559 195.816 346.048 212.342 391.82 230.575C437.978 248.115 482.978 269.066 522.904 297.908L522.353 298.815C476.636 280.209 432.849 259.15 388.29 238.359C343.511 218.367 298.07 199.601 251.967 182.541L252.298 181.528V181.581Z" fill="white"/>
<path d="M443.217 244.223C459.115 244.223 472.004 232.169 472.004 217.3C472.004 202.431 459.115 190.377 443.217 190.377C427.318 190.377 414.43 202.431 414.43 217.3C414.43 232.169 427.318 244.223 443.217 244.223Z" fill="#1D1D1B" stroke="#1D1D1B" stroke-miterlimit="10"/>
<path d="M479.338 242.837C460.257 231.695 438.309 223.005 414.154 217.833C408.143 216.554 404.338 211.436 406.103 206.105C407.868 200.827 414.871 197.468 421.324 198.961C446.912 204.825 470.239 214.368 490.643 226.523C495.772 229.562 496.875 235.746 493.621 240.118C490.313 244.49 484.136 245.662 479.393 242.89L479.338 242.837Z" fill="#1D1D1B"/>
<path opacity="0.07" d="M471.397 211.809C471.397 211.809 457.059 187.392 425.239 196.242C425.239 196.242 455.074 178.809 471.397 211.809Z" fill="white"/>
<path d="M528.915 216.554C528.915 216.554 629.779 354.686 444.871 372.172C444.871 372.172 392.096 368.28 234.926 326.483C77.7573 284.74 5.62445 295.117 5.62445 295.117C5.62445 295.117 64.3566 208.237 214.301 187.125C214.301 187.125 238.897 123.524 281.471 128.482C284.614 128.855 288.419 129.495 292.831 130.348C348.419 141.224 480.497 163.984 511.876 191.28L528.915 216.554Z" stroke="#1D1D1B" stroke-width="2" stroke-miterlimit="10"/>
<path opacity="0.15" d="M1144.85 520.54C1090.7 548.582 999.927 486.26 872.923 405.919C748.07 325.471 637.666 248.861 691.489 189.845C743.052 130.082 946.103 144.476 1071.34 258.138C1197.63 370.36 1197.13 494.844 1144.85 520.54Z" fill="#DC1915"/>
<path opacity="0.15" d="M1036.54 378.196C1008.69 396.109 945.055 371.372 877.114 330.855C809.669 290.231 763.787 244.49 791.36 218.313C818.438 192.137 909.706 203.279 977.482 252.486C1045.59 301.374 1063.95 360.71 1036.54 378.196Z" fill="#DC1915"/>
<path opacity="0.15" d="M983.713 332.562C969.816 342.424 934.522 331.495 900.552 310.277C866.747 289.006 847.059 264.002 860.901 252.06C874.633 240.172 916.82 247.635 950.735 271.039C984.761 294.39 997.5 322.752 983.713 332.508V332.562Z" fill="#DC1915"/>
</svg>
