<svg width="1301" height="1564" viewBox="0 0 1301 1564" fill="none" xmlns="http://www.w3.org/2000/svg">
<mask id="mask0_661_1034" style="mask-type:luminance" maskUnits="userSpaceOnUse" x="215" y="500" width="673" height="669">
<path d="M551.15 1168.09C736.794 1168.09 887.287 1018.62 887.287 834.241C887.287 649.86 736.794 500.39 551.15 500.39C365.507 500.39 215.013 649.86 215.013 834.241C215.013 1018.62 365.507 1168.09 551.15 1168.09Z" fill="white"/>
</mask>
<g mask="url(#mask0_661_1034)">
<path d="M173.385 340.548C188.066 511.312 140.498 607.114 175.642 766.26C188.506 840.295 222.068 936.689 266.031 1003.54C310.019 1072.34 364.434 1111.6 419.03 1116.7C473.678 1124.79 528.56 1106.68 573.871 1107.25C619.182 1106.24 654.896 1123.91 671.21 1167.76C692.349 1207.17 694.112 1267.19 695.669 1325.23C697.225 1384.81 698.573 1442.41 718.96 1512.71C716.47 1514.23 713.928 1515.7 711.334 1517.14C691.778 1448.34 691.026 1391.64 689.911 1332.7C688.795 1275.31 687.343 1215.72 666.36 1176.62C650.202 1133.11 614.513 1115.7 569.202 1116.62C523.891 1116.01 468.958 1133.7 414.31 1124.58C359.739 1118.48 305.376 1077.73 261.414 1007.63C217.452 939.497 183.89 842.021 170.922 767.754C135.518 607.861 182.411 514.249 166.227 343.511C168.561 342.532 170.947 341.553 173.385 340.574V340.548Z" fill="#1D1D1B"/>
<path d="M708.948 1522.83L707.625 1518.15C688.251 1450.01 687.213 1394.47 686.124 1335.69L686.072 1332.73C685.035 1278.6 683.841 1217.27 662.963 1178.4L662.755 1177.91C648.231 1138.8 616.718 1119.48 569.332 1120.44C551.851 1120.15 533.021 1122.7 513.076 1125.33C480.914 1129.58 447.664 1133.99 413.713 1128.34C357.535 1122.06 302.238 1079.89 258.172 1009.62C217.478 946.529 181.737 851.835 167.135 768.372C147.293 678.727 153.181 609.716 159.432 536.686C164.386 478.803 169.521 418.936 162.388 343.846L162.129 341.012L164.775 339.904C167.109 338.926 169.521 337.947 171.959 336.942L176.861 334.958L177.302 340.188C183.76 415.407 178.262 475.66 172.919 533.93C166.201 607.32 159.873 676.615 179.481 765.384C193.772 847.559 229.019 940.115 269.325 1001.37C312.016 1068.19 365.341 1107.74 419.445 1112.81C451.969 1117.63 484.156 1113.12 515.28 1108.74C536.029 1105.83 555.637 1103.13 573.975 1103.31C624.136 1102.3 659.02 1123.91 674.842 1166.08C696.447 1206.58 698.055 1266.78 699.611 1325.02V1326.36C701.193 1385.97 702.671 1442.26 722.746 1511.55L723.576 1514.39L721.06 1515.93C718.57 1517.45 715.951 1518.97 713.279 1520.44L708.974 1522.81L708.948 1522.83ZM702.127 1457.25C704.876 1474.56 708.637 1492.46 713.798 1511.29C714.006 1511.17 714.239 1511.04 714.446 1510.91C709.13 1492.18 705.135 1474.41 702.127 1457.25ZM669.965 1175C671.859 1178.55 673.597 1182.23 675.179 1186.1C673.052 1180.25 670.614 1174.74 667.839 1169.56L667.631 1169.1C652.925 1129.58 621.438 1110.03 574.026 1111.11C556.13 1110.85 536.833 1113.58 516.396 1116.47C484.727 1120.9 451.969 1125.49 418.537 1120.54C391.848 1118.04 365.393 1107.58 340.235 1089.94C364.252 1107.38 389.462 1117.91 414.802 1120.75C447.819 1126.23 480.473 1121.9 512.064 1117.71C532.295 1115.03 551.41 1112.5 569.332 1112.73C619.493 1111.78 654.378 1133.24 669.991 1175H669.965Z" fill="#1D1D1B"/>
<path d="M19.9711 297.916C27.3111 360.616 19.0893 398.535 13.4351 434.032C7.78095 471.152 4.66857 505.851 22.2276 599.489C35.0921 677.208 68.6539 819.867 112.616 944.34C156.604 1070.69 211.019 1178.86 265.616 1231.1C320.264 1288.42 375.145 1297.97 420.456 1306.66C465.767 1314.33 501.482 1321.16 517.796 1349.88C538.934 1373.84 540.698 1413.23 542.254 1448.23C543.81 1484.63 545.159 1516.68 565.545 1558.2C563.055 1558.74 560.513 1559.26 557.92 1559.72C538.364 1519.82 537.611 1488.78 536.496 1453.18C535.381 1418.94 533.928 1380.18 512.946 1356.45C496.787 1328.01 461.099 1321.24 415.788 1312.99C370.477 1303.77 315.543 1293.11 260.895 1233.99C206.325 1179.97 151.962 1069.56 108 941.223C64.0372 814.792 30.4754 670.433 17.5071 592.251C-0.207485 497.763 2.67146 463.502 7.93657 426.948C13.2017 392.043 20.8789 354.897 12.8126 292.532C15.1469 294.335 17.5331 296.138 19.9711 297.916Z" fill="#1D1D1B"/>
<path d="M555.715 1564L554.444 1561.37C534.758 1521.19 533.799 1490.27 532.684 1454.49V1453.28C531.62 1421.49 530.323 1381.9 510.041 1359L509.574 1358.36C494.116 1331.15 459.231 1324.82 415.088 1316.81L413.583 1316.5C368.765 1307.38 312.95 1296.02 258.016 1236.61C206.403 1185.53 151.754 1081.02 104.317 942.485C61.4436 819.146 27.2593 674.812 13.6686 592.895C-3.94231 498.87 -1.40054 464.583 4.098 426.407C4.59079 423.084 5.10952 419.787 5.65419 416.412C10.6081 384.804 16.2103 348.946 8.97406 293.021L7.78098 283.722L15.2247 289.492C17.5331 291.269 19.8933 293.047 22.3054 294.799L23.68 295.803L23.8875 297.478C30.5532 354.536 24.4581 391.476 19.0633 424.063C18.4668 427.643 17.8962 431.147 17.3256 434.65C11.5418 472.518 8.7925 506.495 26.1181 598.794C39.4754 679.423 73.4003 821.49 116.351 943.078C163.4 1078.24 217.374 1179.53 268.391 1228.35C321.223 1283.76 372.941 1293.65 418.563 1302.35L421.26 1302.87C463.381 1310 503.272 1316.78 521.064 1347.64C542.851 1372.63 544.64 1412.68 546.196 1448.05C547.753 1484.38 549.075 1515.73 569.098 1556.5L571.251 1560.91L566.453 1561.96C563.911 1562.53 561.291 1563.05 558.646 1563.51L555.767 1564.03L555.715 1564ZM516.136 1354.18C517.303 1355.5 518.393 1356.86 519.43 1358.28C518.211 1356.53 516.94 1354.83 515.565 1353.2C515.747 1353.51 515.955 1353.85 516.136 1354.18ZM465.69 1319.85C485.349 1325.72 501.663 1334.01 512.349 1348.44C502.675 1333.88 487.269 1325.8 465.69 1319.85Z" fill="#1D1D1B"/>
<path d="M58.3312 324.577C65.6712 394.413 57.4493 442.198 51.7952 486.814C46.141 532.77 43.0287 575.583 60.5877 666.13C73.4522 743.179 107.014 873.113 150.976 981.28C194.965 1091.35 249.379 1179.66 303.976 1217.58C358.624 1260 413.505 1260.16 458.816 1264.98C504.127 1268.63 539.842 1276.98 556.156 1309.1C577.294 1336.38 579.058 1381.1 580.614 1421.93C582.17 1464.26 583.519 1502.69 603.905 1551.56C601.415 1552.36 598.873 1553.13 596.28 1553.82C576.724 1506.58 575.972 1469.15 574.856 1427.63C573.741 1387.57 572.289 1343.39 551.306 1316.39C535.148 1284.58 499.459 1276.34 454.148 1272.24C408.837 1267.01 353.903 1265.93 299.255 1221.9C244.685 1182.44 190.322 1092.07 146.36 980.223C102.397 870.279 68.8355 738.851 55.8672 661.416C38.1785 570.174 41.0316 527.798 46.3226 482.409C51.5877 438.359 59.2649 391.296 51.1987 321.769C53.5329 322.722 55.9191 323.675 58.3571 324.603L58.3312 324.577Z" fill="#1D1D1B"/>
<path d="M593.997 1558.44L592.701 1555.27C573.145 1508 572.107 1469.79 571.044 1429.33L570.992 1427.68C569.928 1388.93 568.709 1345.04 548.245 1318.71L547.856 1318.09C532.969 1288.8 500.834 1280.3 453.811 1276.05C448.883 1275.49 443.929 1274.97 438.871 1274.46C395.583 1269.97 346.511 1264.9 296.817 1224.87C244.218 1186.82 189.44 1100.39 142.754 981.589C98.818 871.722 64.945 738.903 52.0286 662.009C34.3659 570.895 37.0633 528.237 42.4321 481.92C42.9508 477.566 43.4955 473.187 44.0402 468.782C48.9681 429.24 54.5185 384.392 47.3082 322.181L46.556 315.664L52.6511 318.163C54.9594 319.09 57.3196 320.043 59.7317 320.945L61.9623 321.795L62.2216 324.165C68.8354 387.174 62.8182 432.924 57.5012 473.264C56.8787 477.979 56.2562 482.667 55.6856 487.278C50.0056 533.337 47.0488 575.712 64.4522 665.383C77.1092 741.17 110.723 871.825 154.633 979.811C200.748 1095.19 254.593 1178.5 306.258 1214.38C353.826 1251.32 401.237 1255.68 443.073 1259.54C448.597 1260.06 454.018 1260.55 459.283 1261.11C507.24 1264.98 542.695 1274.3 559.528 1307.02C581.263 1335.35 583.026 1381.26 584.557 1421.78V1422.14C586.139 1464.98 587.513 1501.99 607.562 1550.06L609.17 1553.93L605.176 1555.22C602.608 1556.04 599.989 1556.81 597.369 1557.53L594.049 1558.44H593.997ZM589.718 1523.14C592.078 1531.52 594.983 1540.15 598.588 1549.14C598.64 1549.14 598.692 1549.11 598.718 1549.08C595.139 1540.15 592.156 1531.52 589.718 1523.12V1523.14ZM554.626 1314.31C556.571 1316.86 558.361 1319.54 560.021 1322.32C557.998 1318.43 555.715 1314.8 553.122 1311.45L553.018 1311.32C553.588 1312.3 554.107 1313.28 554.652 1314.28L554.626 1314.31ZM462.733 1269.2C504.88 1273.71 536.418 1283.24 552.655 1310.75C537.975 1281.98 506.125 1273.06 462.733 1269.2Z" fill="#1D1D1B"/>
<path d="M96.6912 339.544C104.031 415.227 95.8094 471.462 90.1552 524.038C84.5011 577.671 81.3887 627.671 98.9477 715.153C111.812 791.403 145.374 909.41 189.336 1002.58C233.325 1097.69 287.739 1167.91 342.336 1193.23C396.984 1222.55 451.865 1214.98 497.176 1217.19C542.488 1218.09 578.202 1228.81 594.516 1264.62C615.654 1295.63 617.418 1345.63 618.974 1392.33C620.53 1440.56 621.879 1485.48 642.265 1541.67C639.775 1542.72 637.234 1543.73 634.64 1544.68C615.084 1490.09 614.332 1446.15 613.216 1398.67C612.101 1352.72 610.649 1303.23 589.666 1272.5C573.508 1237 537.819 1226.47 492.508 1225.25C447.197 1222.76 392.263 1229.56 337.615 1198.85C283.045 1172.16 228.682 1100.06 184.72 1003.38C140.757 908.611 107.196 789.239 94.2273 712.705C76.5386 624.632 79.3916 575.095 84.6826 522.003C89.9478 469.994 97.6249 414.403 89.5587 338.978C91.893 339.184 94.2791 339.39 96.7172 339.57L96.6912 339.544Z" fill="#1D1D1B"/>
<path d="M632.306 1549.65L630.983 1545.97C611.505 1491.59 610.467 1447.51 609.404 1400.84L609.352 1398.75C608.288 1354.75 607.095 1304.85 586.45 1274.66L586.113 1274.1C572.574 1244.37 543.655 1230.48 492.378 1229.12C483.223 1228.6 473.886 1228.5 463.978 1228.37C424.71 1227.86 380.177 1227.26 335.67 1202.25C281.981 1176 227.022 1105.91 181.14 1005.01C136.141 907.993 103.123 788.62 90.3368 713.375C72.6222 625.198 75.5011 574.373 80.7403 521.642C81.2849 516.31 81.8556 510.952 82.4262 505.542C87.3022 459.226 92.8267 406.726 85.6163 339.39L85.1235 334.701L89.844 335.113C92.1523 335.319 94.5385 335.526 96.9506 335.706L100.219 335.963L100.53 339.209C107.118 407.113 101.152 460.333 95.8872 507.294C95.2388 513.09 94.5904 518.809 93.9938 524.476C88.4434 576.975 85.2792 627.491 102.734 714.405C115.262 788.594 147.968 905.88 192.838 1000.94C237.915 1098.39 291.578 1165.44 343.97 1189.73C386.48 1212.53 429.482 1212.66 467.427 1212.79C477.88 1212.81 487.736 1212.86 497.358 1213.33C551.643 1214.41 582.715 1229.66 597.914 1262.71C619.597 1294.78 621.334 1346.53 622.839 1392.18V1392.85C624.395 1440.25 625.821 1484.99 645.896 1540.35L647.141 1543.78L643.77 1545.22C641.228 1546.3 638.582 1547.33 635.963 1548.31L632.254 1549.68L632.306 1549.65ZM626.729 1503.28C629.323 1514.98 632.669 1527.03 637 1539.63C637.13 1539.58 637.259 1539.53 637.389 1539.48C632.98 1526.93 629.478 1514.9 626.729 1503.28ZM593.09 1270.59C595.216 1273.73 597.162 1277.08 598.925 1280.59C596.721 1275.62 594.205 1270.98 591.326 1266.75L591.015 1266.19C577.242 1236 548.297 1222.06 497.125 1221.03C487.58 1220.57 477.802 1220.54 467.453 1220.49C461.021 1220.49 454.433 1220.44 447.716 1220.31C453.292 1220.44 458.765 1220.51 464.133 1220.59C474.119 1220.72 483.534 1220.85 492.741 1221.36C529.338 1222.34 573.871 1228.83 593.09 1270.59Z" fill="#1D1D1B"/>
<path d="M135.025 344.387C142.365 424.707 134.144 487.922 128.489 547.273C122.835 607.397 119.723 663.658 137.282 748.022C150.146 823.267 183.708 930.146 227.671 1009.54C271.659 1090.89 326.074 1144.81 380.67 1159.21C435.318 1177.08 490.2 1163.46 535.511 1164.25C580.822 1163.64 616.536 1177.44 632.85 1217.19C653.989 1252.28 655.752 1307.4 657.308 1359.88C658.865 1413.9 660.213 1465.26 680.599 1528.61C678.109 1529.89 675.568 1531.16 672.974 1532.37C653.418 1470.57 652.666 1420.16 651.55 1366.83C650.435 1315.05 648.983 1260.39 628 1225.61C611.842 1186.2 576.153 1172.57 530.842 1173.01C485.531 1172.03 430.598 1185.09 375.949 1166.01C321.379 1150.42 267.016 1094.86 223.054 1012.04C179.091 931.176 145.53 823.113 132.561 747.61C114.873 662.704 117.726 606.908 123.017 547.299C128.282 488.463 135.959 425.814 127.893 345.675C130.227 345.237 132.613 344.799 135.051 344.361L135.025 344.387Z" fill="#1D1D1B"/>
<path d="M670.614 1537.75L669.291 1533.55C649.891 1472.19 648.853 1422.29 647.764 1369.46L647.712 1366.96C646.649 1317.78 645.455 1262.07 624.706 1227.65L624.447 1227.11C610.389 1192.87 579.784 1176.52 530.92 1176.93C517.615 1176.64 503.635 1177.55 488.825 1178.53C453.759 1180.82 413.998 1183.42 374.679 1169.72C319.797 1154.05 264.656 1098.69 219.63 1013.92C173.956 929.888 141.069 819.97 128.749 748.331C110.956 663.014 113.887 606.676 119.152 547.016C119.697 540.808 120.293 534.574 120.89 528.288C125.974 473.806 131.239 417.468 124.028 346.113L123.665 342.584L138.553 339.827L138.942 344.052C145.504 415.768 139.85 472.621 134.377 527.618C133.703 534.368 133.054 541.039 132.406 547.66C126.804 607.037 123.613 663.065 141.146 747.275C153.233 817.883 185.705 925.715 231.146 1007.71C275.082 1089.01 328.563 1141.48 381.733 1155.5C419.263 1167.78 457.727 1164.92 491.626 1162.4C507.084 1161.24 521.713 1160.18 535.64 1160.42C587.773 1159.8 620.764 1177.7 636.404 1215.49C658.061 1251.63 659.669 1306.6 661.251 1359.8V1360.8C662.807 1414.41 664.285 1465.03 684.36 1527.47L685.346 1530.56L682.467 1532.08C679.925 1533.4 677.305 1534.68 674.66 1535.92L670.64 1537.78L670.614 1537.75ZM664.156 1480.79C666.853 1495.61 670.484 1510.91 675.386 1526.96L675.931 1526.67C670.899 1510.68 667.087 1495.45 664.156 1480.77V1480.79ZM631.528 1223.91C633.732 1227.57 635.703 1231.44 637.493 1235.48C635.211 1229.68 632.591 1224.22 629.556 1219.17L629.297 1218.66C615.058 1183.99 584.401 1167.53 535.614 1168.12C521.92 1167.89 507.473 1168.94 492.197 1170.08C457.546 1172.65 418.278 1175.56 379.503 1162.86C372.63 1161.06 365.73 1158.61 358.857 1155.6C364.926 1158.33 370.996 1160.57 377.039 1162.3C415.062 1175.56 453.966 1173.01 488.306 1170.77C503.272 1169.79 517.433 1168.87 530.946 1169.15C583.104 1168.76 616.069 1186.54 631.502 1223.89L631.528 1223.91Z" fill="#1D1D1B"/>
<path d="M365.16 238.023C379.84 402.192 332.272 557.011 367.416 687.821C380.281 751.757 413.843 804.72 457.805 824.968C501.793 847.173 556.208 836.688 610.804 818.605C665.452 801.011 720.334 783.597 765.645 799.207C810.956 812.835 846.671 859.486 862.985 924.067C884.123 987.334 885.887 1065.05 887.443 1144.37C888.999 1224.82 890.348 1306.86 910.734 1404.8C908.244 1406.84 905.702 1408.85 903.109 1410.83C883.552 1313.92 882.8 1232.36 881.685 1152.22C880.57 1073.22 879.117 995.628 858.135 932.722C841.976 868.425 806.288 822.366 760.977 809.202C715.666 794.055 660.732 811.856 606.084 829.295C551.513 847.224 497.151 857.013 453.188 834.138C409.226 813.195 375.664 759.614 362.696 695.497C327.293 564.172 374.186 410.255 358.001 245.004C360.336 242.66 362.722 240.316 365.16 237.972V238.023Z" fill="#1D1D1B"/>
<path d="M900.515 1417.68L899.296 1411.6C880.051 1316.26 878.936 1235.33 877.872 1157.07L877.794 1152.3C876.731 1076.18 875.616 997.457 854.426 933.959L854.348 933.675C838.501 870.64 803.175 825.508 759.861 812.938C715.977 798.28 661.38 815.72 608.574 832.567L607.251 832.979C560.254 848.409 500.03 862.886 451.373 837.564C407.151 816.492 372.526 763.658 358.857 696.27C338.99 622.596 344.878 541.787 351.128 456.237C356.082 388.333 361.217 318.086 354.111 245.365L353.929 243.562L355.2 242.274C357.56 239.904 359.973 237.534 362.437 235.19L368.298 229.6L369.024 237.637C375.483 309.868 369.984 379.755 364.667 447.376C357.95 533.028 351.569 613.915 371.151 686.79C384.042 750.778 417.837 802.273 459.413 821.438C505.243 844.571 563.704 830.094 609.559 814.921C663.844 797.43 719.945 779.346 766.916 795.549C812.642 809.305 850.017 856.962 866.72 922.985C888.247 987.488 889.803 1067.22 891.307 1144.29L891.359 1147.15C892.89 1226.03 894.446 1307.58 914.521 1404.03L914.987 1406.32L913.172 1407.82C910.682 1409.85 908.088 1411.91 905.417 1413.92L900.463 1417.68H900.515ZM894.524 1332.13C897.247 1355.24 900.852 1379.09 905.676 1403.93C905.936 1403.72 906.169 1403.51 906.428 1403.33C901.371 1378.71 897.48 1355.03 894.524 1332.13ZM723.135 799.697C736.7 799.697 749.798 801.449 762.196 805.57C798.844 816.209 830.071 848.538 849.55 894.649C831.057 847.173 800.504 813.736 764.504 802.917C719.867 787.538 665.037 805.209 611.997 822.288C564.741 837.951 504.309 852.788 456.041 828.419C430.572 816.699 408.318 794.442 391.433 764.895C407.955 795.498 430.053 818.862 454.874 830.686C501.093 854.72 559.294 840.63 604.865 825.663L606.214 825.225C645.715 812.603 686.202 799.671 723.161 799.671L723.135 799.697Z" fill="#1D1D1B"/>
<path d="M211.745 329.446C226.426 503.121 178.858 617.083 214.002 771.258C226.866 843.85 260.428 930.404 304.391 985.814C348.379 1043.21 402.794 1069.41 457.39 1066.83C512.038 1066.73 566.92 1045.71 612.231 1047.15C657.542 1046.92 693.256 1069.12 709.57 1117.11C730.709 1161.06 732.472 1225.61 734.029 1288.91C735.585 1353.72 736.933 1417.24 757.319 1494.11C754.83 1495.81 752.288 1497.49 749.694 1499.11C730.138 1423.66 729.386 1360.93 728.271 1296.74C727.155 1234.04 725.703 1169.87 704.72 1126.23C688.562 1078.52 652.873 1056.65 607.562 1056.94C562.251 1055.55 507.318 1076.31 452.669 1075.59C398.099 1077.34 343.736 1049.8 299.774 991.275C255.812 934.706 222.25 847.173 209.282 774.4C173.878 619.556 220.771 507.526 204.587 333.722C206.921 332.305 209.307 330.888 211.745 329.446Z" fill="#1D1D1B"/>
<path d="M747.256 1505.21L745.933 1500.09C726.611 1425.51 725.573 1364.64 724.458 1300.19L724.406 1296.79C723.369 1238.06 722.201 1171.47 701.219 1127.88L701.037 1127.44C686.254 1083.81 654.222 1060.78 608.392 1060.78C608.107 1060.78 607.847 1060.78 607.588 1060.78C585.801 1060.11 561.81 1064.61 536.392 1069.41C509.185 1074.53 481.044 1079.79 452.618 1079.43C395.065 1081.25 339.638 1050.78 296.662 993.542C255.5 940.579 219.682 854.798 205.443 775.044C185.601 688.31 191.489 614.713 197.74 536.84C202.72 474.784 207.855 410.616 200.722 334.057L200.489 331.661L202.564 330.399C204.898 328.982 207.31 327.54 209.774 326.097L215.117 322.98L215.636 329.111C222.094 405.644 216.596 470.044 211.253 532.332C204.561 610.566 198.233 684.446 217.815 770.407C231.717 848.77 266.886 932.31 307.477 983.444C348.82 1037.39 402.016 1065.62 457.234 1062.99C484.545 1062.94 511.779 1057.63 538.104 1052.53C564.508 1047.41 589.433 1042.56 612.386 1043.28C612.62 1043.28 612.853 1043.28 613.087 1043.28C661.666 1043.28 697.251 1068.97 713.202 1115.67C734.781 1160.7 736.389 1225.85 737.919 1288.83L737.971 1290.5C739.527 1355.75 741.005 1417.4 761.106 1493.16L761.806 1495.79L759.576 1497.33C757.06 1499.06 754.44 1500.78 751.795 1502.43L747.282 1505.24L747.256 1505.21ZM740.279 1432.29C743.054 1451.71 746.867 1471.8 752.132 1492.95C752.366 1492.8 752.625 1492.62 752.858 1492.46C747.386 1471.44 743.314 1451.51 740.253 1432.29H740.279ZM708.351 1124.79C709.778 1127.78 711.127 1130.87 712.372 1134.04C710.582 1128.99 708.611 1124.12 706.432 1119.51C707.106 1121.23 707.755 1123.01 708.351 1124.79ZM608.522 1053.07C654.378 1053.07 688.562 1075.74 705.498 1117.22C690.351 1073.89 658.372 1051.01 612.957 1051.01C612.724 1051.01 612.49 1051.01 612.257 1051.01C590.029 1050.34 565.519 1055.08 539.583 1060.11C512.894 1065.28 485.272 1070.64 457.416 1070.69C413.479 1072.75 370.84 1056.29 334.062 1023.63C369.517 1056.24 410.445 1073.06 452.54 1071.72C480.344 1072.08 508.122 1066.88 534.94 1061.83C560.773 1056.99 585.205 1052.38 607.692 1053.07C607.977 1053.07 608.262 1053.07 608.522 1053.07Z" fill="#1D1D1B"/>
<path d="M250.106 312.418C264.786 486.763 217.218 615.615 252.362 764.534C265.226 835.375 298.788 912.732 342.751 957.812C386.739 1004.85 441.154 1019.61 495.75 1010.9C550.398 1004.15 605.28 981.769 650.591 985.17C695.902 986.793 731.616 1014.2 747.93 1066.39C769.069 1115.05 770.832 1183.7 772.389 1251.81C773.945 1321.39 775.293 1390.45 795.679 1473.45C793.19 1475.31 790.648 1477.14 788.054 1478.94C768.498 1397.25 767.746 1328.94 766.631 1259.9C765.515 1192.31 764.063 1123.94 743.08 1075.61C726.922 1023.71 691.233 996.71 645.922 995.216C600.611 991.97 545.678 1014.25 491.03 1020.36C436.459 1028.42 382.096 1012.5 338.134 964.433C294.172 918.348 260.61 840.114 247.642 769.094C212.238 619.608 259.131 492.456 242.947 317.725C245.281 315.947 247.667 314.17 250.106 312.393V312.418Z" fill="#1D1D1B"/>
<path d="M785.59 1485.33L784.267 1479.84C764.971 1399.24 763.881 1330.36 762.818 1263.74L762.766 1259.95C761.729 1196.97 760.561 1125.59 739.527 1077.13L739.371 1076.75C724.224 1028.14 691 1000.55 645.793 999.054C619.467 997.174 589.822 1004.05 558.438 1011.34C536.6 1016.42 514.035 1021.65 491.47 1024.17C431.609 1033.03 377.557 1013.25 335.255 967.009C293.653 923.397 257.731 845.936 243.803 769.763C223.962 686.043 229.849 609.02 236.074 527.49C241.054 462.394 246.189 395.057 239.057 318.06L238.849 315.922L240.561 314.634C242.921 312.856 245.307 311.053 247.797 309.25L253.399 305.18L253.97 312.058C260.454 388.9 254.93 456.314 249.587 521.513C242.895 603.353 236.567 680.659 256.149 763.607C269.713 838.208 304.78 913.299 345.552 955.056C385.935 998.256 437.652 1016.18 495.153 1007.01C516.862 1004.34 538.623 999.157 559.683 994.186C592.26 986.458 623.046 979.167 650.902 981.254C699.403 983.006 735.222 1012.73 751.613 1065C773.167 1114.77 774.775 1184.37 776.305 1251.68L776.357 1253.69C777.861 1321.06 779.417 1390.71 799.492 1472.5L800.089 1474.97L798.04 1476.49C795.498 1478.4 792.878 1480.28 790.285 1482.08L785.616 1485.3L785.59 1485.33ZM778.743 1406.81C781.518 1427.91 785.305 1449.73 790.544 1472.45C790.803 1472.27 791.063 1472.06 791.322 1471.88C785.875 1449.34 781.803 1427.7 778.743 1406.81ZM746.737 1074.27C747.567 1076.18 748.371 1078.14 749.123 1080.12C748.034 1077 746.867 1073.94 745.648 1070.95C746.011 1072.06 746.374 1073.17 746.737 1074.27ZM636.611 991.017C639.853 991.017 643.043 991.12 646.207 991.352C691 992.82 724.873 1017.96 742.613 1062.58C726.637 1016.65 694.086 990.553 650.461 988.982C623.669 986.973 593.453 994.134 561.473 1001.71C540.205 1006.76 518.211 1011.96 496.243 1014.69C436.2 1024.3 382.096 1005.52 339.898 960.388C337.901 958.353 335.929 956.241 333.958 954.051C336.266 956.73 338.601 959.306 340.935 961.754C381.448 1006.06 433.139 1024.97 490.433 1016.52C512.686 1014.02 535.044 1008.84 556.649 1003.82C584.92 997.251 611.816 991.017 636.585 991.017H636.611Z" fill="#1D1D1B"/>
<path d="M288.44 290.729C303.12 463.63 255.552 604.203 290.696 747.455C303.561 816.287 337.123 884.989 381.085 920.77C425.073 958.534 479.488 963.377 534.084 950.033C588.732 938.158 643.614 915.952 688.925 922.367C734.236 926.952 769.951 960.131 786.265 1016.55C807.403 1070 809.167 1142.26 810.723 1214.72C812.279 1288.55 813.628 1362.61 834.014 1451.22C831.524 1453.21 828.982 1455.14 826.388 1457.04C806.832 1369.67 806.08 1296.27 804.965 1222.91C803.85 1150.91 802.397 1078.89 781.415 1025.77C765.256 969.662 729.568 936.895 684.256 932.593C638.945 926.437 584.012 948.719 529.364 960.105C474.793 972.96 420.431 967.112 376.468 928.472C332.506 891.789 298.944 822.314 285.976 753.329C250.572 609.51 297.466 470.431 281.281 296.911C283.616 294.876 286.002 292.841 288.44 290.78V290.729Z" fill="#1D1D1B"/>
<path d="M823.898 1463.66L822.602 1457.87C803.331 1371.75 802.216 1298.21 801.152 1227.11L801.1 1222.96C800.063 1156.22 798.896 1080.59 777.809 1027.16L777.68 1026.82C762.351 973.578 728.141 940.63 683.893 936.432C652.562 932.181 616.614 941.764 578.539 951.913C562.718 956.138 546.378 960.492 530.168 963.866C467.765 978.575 415.165 967.627 373.9 931.331C331.209 895.705 296.039 827.75 282.163 753.998C262.322 673.447 268.209 594.105 274.434 510.127C279.414 443.048 284.549 373.702 277.417 297.22L277.235 295.262L278.713 293.974C281.074 291.913 283.486 289.853 285.95 287.792L291.708 282.975L292.33 290.419C298.788 366.592 293.29 435.887 287.947 502.914C281.255 587.176 274.901 666.749 294.483 746.554C307.944 818.476 342.05 884.01 383.549 917.781C422.713 951.398 473.03 960.981 533.15 946.272C548.609 942.923 564.196 938.698 579.291 934.628C618.845 923.938 656.193 913.84 689.47 918.554C736.83 923.32 773.504 958.611 789.948 1015.31C811.501 1069.92 813.083 1143.49 814.587 1214.64L814.639 1216.96C816.143 1288.78 817.7 1363.04 837.8 1450.35L838.345 1452.72L836.452 1454.24C833.936 1456.25 831.342 1458.23 828.697 1460.16L823.898 1463.69V1463.66ZM817.207 1380.92C819.982 1403.23 823.743 1426.29 828.904 1450.32C829.163 1450.11 829.423 1449.91 829.682 1449.7C824.287 1425.87 820.241 1403.02 817.181 1380.92H817.207ZM785.123 1024.51C785.175 1024.66 785.253 1024.81 785.305 1024.97C785.227 1024.74 785.149 1024.48 785.046 1024.25C785.046 1024.33 785.097 1024.43 785.123 1024.51ZM667.761 927.622C673.545 927.622 679.225 927.956 684.801 928.729C727.207 932.774 760.951 961.11 779.288 1007.32C762.533 959.719 729.905 930.352 688.562 926.179C656.738 921.671 620.115 931.563 581.366 942.047C566.193 946.143 550.502 950.394 534.94 953.768C472.329 969.07 419.678 958.946 378.569 923.655C365.782 913.247 353.696 899.955 342.647 884.473C353.774 900.702 366.042 914.613 379.01 925.432C418.356 960.028 468.62 970.383 528.508 956.267C544.614 952.918 560.851 948.59 576.568 944.391C608.807 935.787 639.542 927.596 667.787 927.596L667.761 927.622Z" fill="#1D1D1B"/>
<path d="M326.8 265.561C341.48 435.037 293.912 584.188 329.056 721.438C341.921 787.976 375.483 848.538 419.445 876.05C463.433 905.545 517.848 901.965 572.444 885.504C627.092 870.022 681.974 849.466 727.285 859.95C772.596 868.528 808.311 908.147 824.625 968.683C845.763 1027.03 847.527 1102.33 849.083 1178.55C850.639 1256.04 851.988 1334.43 872.374 1428.06C869.884 1430.1 867.342 1432.11 864.748 1434.07C845.192 1341.59 844.44 1263.77 843.325 1186.67C842.21 1110.83 840.757 1035.71 819.775 977.725C803.616 917.472 767.928 878.368 722.616 870.151C677.305 860.027 622.372 880.79 567.724 895.963C513.153 912.088 458.791 914.819 414.828 884.551C370.866 856.241 337.304 794.983 324.336 728.29C288.932 590.551 335.826 442.559 319.641 272.233C321.976 269.992 324.362 267.776 326.8 265.535V265.561Z" fill="#1D1D1B"/>
<path d="M862.207 1440.87L860.936 1434.86C841.691 1343.8 840.576 1266.21 839.512 1191.2L839.46 1186.74C838.397 1113.38 837.282 1037.49 816.118 979.065L816.014 978.756C800.296 920.151 765.982 881.975 721.916 873.989C684.905 865.72 641.617 878.446 595.813 891.918C586.969 894.52 577.813 897.225 568.761 899.723C503.453 919.044 452.358 915.128 412.598 887.771C369.491 860.001 334.14 799.182 320.497 729.063C300.656 651.86 306.543 571.282 312.768 485.964C317.748 417.983 322.883 347.658 315.751 272.645L315.569 270.79L316.918 269.502C319.278 267.261 321.69 264.994 324.154 262.753L329.99 257.446L330.664 265.277C337.122 339.904 331.624 409.998 326.307 477.824C319.589 563.322 313.261 644.08 332.817 720.536C345.993 788.543 379.944 846.812 421.52 872.83C459.076 897.997 508.044 900.934 571.329 881.872C579.603 879.528 587.825 877.08 596.02 874.659C643.666 860.491 688.692 847.121 728.193 856.266C775.086 865.128 811.656 905.726 828.386 967.627C849.913 1027.16 851.495 1104.13 852.999 1178.55L853.051 1181.13C854.555 1256.84 856.137 1335.1 876.212 1427.32L876.705 1429.61L874.864 1431.1C872.322 1433.16 869.728 1435.22 867.109 1437.21L862.207 1440.92V1440.87ZM855.774 1355.6C858.524 1378.63 862.233 1402.43 867.29 1427.21C867.55 1427.01 867.809 1426.8 868.068 1426.6C862.777 1402.02 858.809 1378.42 855.774 1355.63V1355.6ZM696.524 863.582C705.758 863.582 714.732 864.432 723.446 866.39C763.492 873.654 795.939 903.922 814.899 950.831C797.21 902.506 765.697 871.181 726.533 863.762C688.899 855.055 644.859 868.142 598.225 882.001C590.003 884.448 581.755 886.895 573.508 889.239C507.914 909.023 456.793 905.751 417.266 879.27C395.869 865.875 376.416 844.365 360.595 817.574C376.183 845.292 395.583 867.575 416.955 881.331C454.718 907.323 503.661 910.878 566.609 892.279C575.634 889.78 584.764 887.101 593.608 884.499C629.919 873.834 664.674 863.608 696.55 863.608L696.524 863.582Z" fill="#1D1D1B"/>
<path d="M556.934 96.8325C564.274 157.987 556.052 218.395 550.398 281.275C544.744 343.048 541.632 407.319 559.191 450.674C572.055 498.124 605.617 520.458 649.579 519.221C693.568 519.685 747.982 496.578 802.579 492.56C857.227 486.609 912.108 507.578 957.42 564.662C1002.73 619.531 1038.45 710.542 1054.76 793.335C1097.06 970.461 1061.74 1107.25 1102.51 1321.24C1100.02 1322.14 1097.48 1323.04 1094.88 1323.92C1055.77 1111.24 1091.87 973.346 1049.91 797.302C1033.75 714.895 998.062 624.915 952.751 571.154C907.44 515.177 852.506 495.393 797.858 502.013C743.288 506.676 688.925 529.86 644.963 529.242C601 530.324 567.438 507.629 554.47 459.921C536.782 416.258 539.635 351.755 544.9 289.518C550.165 226.174 557.842 165.123 549.776 102.886C552.11 100.851 554.496 98.8418 556.934 96.8325Z" fill="#1D1D1B"/>
<path d="M1091.87 1329.04L1091.07 1324.64C1071.88 1220.33 1070.76 1134.99 1069.67 1052.46C1068.56 967.756 1067.49 887.771 1046.15 798.229C1028.74 709.563 991.837 623.575 949.794 573.678C908.244 522.338 855.878 498.922 798.351 505.877C773.063 508.041 747.93 514.172 723.654 520.097C695.487 526.975 668.876 533.389 644.937 533.132C597.214 534.239 563.833 508.762 550.787 461.158C532.243 415.202 536.029 348.328 541.061 289.209C541.813 280.27 542.591 271.357 543.395 262.47C548.245 207.936 552.836 156.416 545.963 103.401L545.704 101.366L547.26 100.001C549.62 97.9401 552.032 95.8792 554.522 93.87L560.021 89.3877L560.851 96.3944C567.127 148.687 562.225 199.461 557.012 253.196C556.104 262.625 555.171 272.104 554.315 281.635C548.635 343.717 545.73 406.984 562.848 449.231L563.003 449.669C574.83 493.255 605.539 516.619 649.527 515.357C672.274 515.666 697.847 509.432 724.951 502.915C750.057 496.887 776.02 490.627 802.345 488.695C862.388 482.152 917.14 507.578 960.532 562.266C1003.22 613.967 1040.83 702.247 1058.65 792.587C1080.18 882.696 1081.66 962.527 1083.24 1047.05C1084.79 1129.81 1086.38 1215.41 1106.4 1320.49L1107.02 1323.71L1103.93 1324.84C1101.42 1325.74 1098.85 1326.67 1096.23 1327.55L1091.95 1329.02L1091.87 1329.04ZM1093.92 1295.17C1095.17 1302.95 1096.49 1310.8 1097.92 1318.79C1097.97 1318.79 1098.05 1318.74 1098.1 1318.74C1096.59 1310.78 1095.22 1302.92 1093.92 1295.19V1295.17ZM818.192 496.913C869.339 496.913 915.843 520.612 953.762 566.285C912.186 514.327 860.106 490.189 803.02 496.398C777.187 498.304 751.536 504.461 726.74 510.411C699.144 517.031 673.052 523.317 649.553 523.059C607.744 524.219 576.853 504.95 561.188 468.319C574.804 506.212 604.242 526.408 644.885 525.378C667.994 525.661 694.112 519.324 721.787 512.575C746.374 506.573 771.792 500.365 797.547 498.175C804.524 497.325 811.397 496.913 818.218 496.913H818.192Z" fill="#1D1D1B"/>
<path d="M403.52 209.146C418.2 366.283 370.632 523.961 405.776 647.97C418.641 709.047 452.203 754.875 496.165 768.888C540.153 784.808 594.568 768.888 649.164 750.624C703.812 732.386 758.694 719.609 804.005 741.402C849.316 761.134 885.031 815.411 901.345 883.933C922.483 952.146 924.247 1031.62 925.803 1113.3C927.359 1195.97 928.708 1280.87 949.094 1382.42C946.604 1384.37 944.062 1386.33 941.468 1388.24C921.912 1287.65 921.16 1203.15 920.045 1120.72C918.93 1039.27 917.477 959.848 896.495 892.047C880.336 823.834 844.648 770.202 799.337 751.062C754.026 729.862 699.092 743.179 644.444 761.418C589.873 779.656 535.511 795.06 491.548 778.574C447.586 764.019 414.024 717.6 401.056 656.342C365.653 531.818 412.546 374.758 396.361 216.282C398.696 213.886 401.082 211.516 403.52 209.121V209.146Z" fill="#1D1D1B"/>
<path d="M938.823 1394.99L937.656 1388.96C918.437 1290.07 917.322 1206.55 916.232 1125.79L916.155 1120.77C915.091 1042.59 914.002 961.754 892.76 893.181L892.682 892.923C876.472 824.582 841.016 772.881 797.78 754.617C753.533 733.932 698.521 747.43 645.637 765.076C591.845 783.056 535.511 799.208 490.122 782.206C445.459 767.42 410.704 720.717 397.217 657.27C377.298 587.099 383.212 507.114 389.488 422.415C394.442 355.516 399.552 286.324 392.445 216.694L392.263 214.917L393.508 213.629C395.869 211.207 398.281 208.812 400.745 206.39L406.58 200.697L407.332 208.786C413.791 277.849 408.318 346.577 403.001 413.064C396.258 497.789 389.877 577.8 409.459 646.94L409.511 647.197C422.246 707.656 455.056 751.784 497.28 765.205C539.868 780.609 592.804 765.359 647.867 746.966C701.997 728.883 758.564 715.281 805.639 737.925C850.924 757.631 888.143 811.908 905.08 883.031C926.581 952.326 928.137 1034.11 929.641 1113.22L929.693 1116.29C931.224 1197.61 932.806 1281.69 952.855 1381.64L953.321 1383.96L951.454 1385.43C948.938 1387.41 946.37 1389.4 943.725 1391.33L938.745 1394.99H938.823ZM933.48 1311.53C936.126 1334.04 939.601 1357.25 944.14 1381.36C944.373 1381.18 944.607 1381 944.84 1380.82C940.094 1356.86 936.385 1333.83 933.48 1311.53ZM746.634 736.405C765.697 736.405 784.034 739.625 800.996 747.559C833.547 761.315 861.869 792.819 881.477 835.684C862.518 791.506 834.61 758.945 802.449 744.931C757.76 723.447 702.983 736.74 650.409 754.282C593.997 773.139 539.634 788.724 494.842 772.52C462.655 762.268 435.629 735.477 418.018 697.713C434.67 736.637 461.099 764.432 492.767 774.916C535.874 791.068 590.703 775.277 643.199 757.76C677.798 746.219 713.357 736.405 746.634 736.405Z" fill="#1D1D1B"/>
<path d="M441.854 179.806C449.194 256.674 440.972 329.858 435.318 402.914C429.664 475.171 426.551 547.274 444.11 603.122C456.975 661.082 490.537 700.289 534.499 708.996C578.487 719.583 632.902 699.671 687.498 682.746C742.146 665.332 797.028 658.712 842.339 687.718C887.65 714.611 923.365 777.131 939.679 849.414C960.817 922.573 962.581 1003.1 964.137 1086.38C965.693 1170.49 967.042 1257.35 987.428 1361.68C984.938 1363.51 982.396 1365.31 979.802 1367.09C960.246 1263.59 959.494 1177.06 958.379 1093.13C957.264 1010 955.811 929.502 934.829 856.781C918.67 784.782 882.982 723.009 837.671 696.837C792.36 668.552 737.426 675.868 682.778 693.437C628.207 710.516 573.845 730.042 529.882 719.016C485.92 709.846 452.358 670.124 439.39 611.957C421.701 555.852 424.554 483.698 429.845 411.286C435.11 338.05 442.788 264.531 434.721 186.89C437.056 184.52 439.442 182.15 441.88 179.78L441.854 179.806Z" fill="#1D1D1B"/>
<path d="M977.105 1373.66L975.99 1367.81C956.771 1266.14 955.656 1180.84 954.566 1098.39L954.489 1093.18C953.425 1013.69 952.336 931.512 931.094 857.838C914.494 783.958 878.858 725.096 835.725 700.16C798.273 676.795 750.083 675.842 683.971 697.12C679.328 698.563 674.712 700.031 670.121 701.499C618.767 717.78 570.265 733.159 528.923 722.777C483.845 713.375 448.909 672.313 435.603 612.962C417.344 554.899 420.793 481.353 425.929 411.003C426.603 401.549 427.329 392.095 428.056 382.615C432.854 319.657 437.808 254.561 430.805 187.302L430.623 185.499L431.894 184.21C434.255 181.815 436.667 179.419 439.131 177.023L444.94 171.408L445.692 179.419C452.047 245.983 446.73 310.512 441.595 372.878C440.765 383.001 439.935 393.099 439.157 403.197C433.943 469.555 429.897 545.11 447.793 601.962L447.871 602.271C460.321 658.351 492.975 696.837 535.225 705.209C573.871 714.508 620.452 699.799 669.784 684.24C675.282 682.514 680.781 680.762 686.305 679.062C754.466 657.347 804.705 659.047 844.414 684.472C889.206 711.056 926.27 772.417 943.466 848.59C964.967 922.908 966.497 1005.98 968.001 1086.33L968.053 1089.55C969.584 1172.52 971.166 1258.3 991.215 1360.96L991.681 1363.35L989.71 1364.8C987.194 1366.65 984.627 1368.48 981.981 1370.28L977.053 1373.66H977.105ZM972.644 1295.19C975.186 1316.26 978.428 1337.95 982.552 1360.44C982.759 1360.29 982.967 1360.13 983.174 1360.01C978.869 1337.65 975.419 1316.11 972.644 1295.19ZM766.708 674.091C791.478 674.091 816.766 679.165 839.771 693.54C866.901 709.202 891.152 737.589 909.852 774.323C891.489 736.353 867.394 707.012 840.394 690.989C802.682 666.852 754.544 665.41 688.743 686.378C683.219 688.104 677.72 689.83 672.222 691.556C621.827 707.45 574.208 722.494 533.617 712.705C498.292 705.724 469.269 679.346 451.969 639.958C467.972 680.608 496.165 707.991 530.712 715.204C570.032 725.07 617.522 710.026 667.787 694.106C672.403 692.638 677.02 691.17 681.637 689.727C705.55 682.025 735.74 674.065 766.708 674.065V674.091Z" fill="#1D1D1B"/>
<path d="M480.214 150.852C487.554 223.109 479.332 292.764 473.678 363.141C468.024 432.59 464.912 502.786 482.471 554.513C495.335 609.15 528.897 642.226 572.859 646.631C616.847 652.865 671.262 630.402 725.858 616.285C780.507 601.19 835.388 602.22 880.699 639.495C926.01 674.606 961.725 745.988 978.039 821.929C1020.34 982.002 985.016 1135.12 1025.79 1343.83C1023.3 1345.43 1020.76 1347.02 1018.16 1348.59C979.051 1141.46 1015.15 987.566 973.189 828.369C957.03 752.737 921.342 682.206 876.031 647.945C830.72 611.52 775.786 611.34 721.138 626.77C666.568 641.221 612.205 663.426 568.243 656.832C524.28 652.092 490.718 618.527 477.75 563.683C460.061 511.674 462.914 441.4 468.18 371.667C473.445 301.007 481.122 230.914 473.056 157.781C475.39 155.463 477.776 153.17 480.214 150.903V150.852Z" fill="#1D1D1B"/>
<path d="M1015.39 1354.78L1014.35 1349.29C995.183 1247.77 994.042 1160.6 992.952 1076.34C991.837 990.941 990.774 910.311 969.454 829.347C952.777 751.371 916.103 683.081 873.696 651.01C834.455 619.454 784.942 612.756 722.227 630.479C709.467 633.854 696.602 637.692 684.179 641.402C642.032 653.972 602.245 665.822 567.698 660.67C521.531 655.673 487.347 620.716 474.041 564.765C455.704 510.695 459.413 436.583 464.341 371.384C465.041 362.007 465.793 352.631 466.52 343.228C471.266 283.259 476.194 221.254 469.217 158.193L469.01 156.338L470.332 155.025C472.692 152.68 475.105 150.362 477.569 148.044L483.3 142.686L484.105 150.465C490.433 212.779 485.168 274.139 480.084 333.465C479.228 343.46 478.373 353.455 477.569 363.476C472.329 427.644 468.257 500.545 486.179 553.302L486.283 553.663C498.603 606.007 530.323 638.516 573.274 642.818C605.721 647.404 644.003 636.069 684.542 624.039C697.743 620.124 711.36 616.079 724.925 612.576C789.066 594.853 842.339 602.916 883.215 636.559C927.515 670.897 964.422 739.934 981.878 821.156C1003.43 902.738 1004.91 983.316 1006.49 1068.63C1008.05 1153.26 1009.66 1240.76 1029.65 1343.13L1030.15 1345.68L1027.94 1347.1C1025.42 1348.72 1022.86 1350.32 1020.21 1351.92L1015.41 1354.83L1015.39 1354.78ZM1012.12 1285.4C1014.51 1303.9 1017.41 1322.83 1020.96 1342.28C1021.15 1342.18 1021.3 1342.05 1021.48 1341.95C1017.75 1322.58 1014.66 1303.77 1012.12 1285.38V1285.4ZM785.357 613.065C821.253 613.065 852.039 623.653 878.495 644.905C895.483 657.759 911.382 675.714 925.492 697.507C911.278 674.529 895.25 655.647 878.313 642.535C838.864 610.103 789.377 602.736 726.896 619.995C713.435 623.472 699.844 627.517 686.72 631.407C645.352 643.668 606.265 655.26 572.289 650.443C534.266 646.631 504.413 622.597 487.684 583.235C502.883 623.91 531.594 648.975 568.657 652.968C601.623 657.888 640.631 646.27 681.896 633.983C694.398 630.247 707.314 626.409 720.127 623.009C743.547 616.388 765.256 613.091 785.357 613.091V613.065Z" fill="#1D1D1B"/>
<path d="M518.574 122.979C525.914 189.955 517.692 255.309 512.038 322.285C506.384 388.231 503.272 455.774 520.831 503.327C533.695 554.435 567.257 581.896 611.219 582.952C655.207 585.811 709.622 562.292 764.218 552.477C818.867 541.195 873.748 551.421 919.059 598.047C964.37 642.483 1000.08 723.344 1016.4 802.789C1058.7 971.414 1023.38 1117.73 1064.15 1329.94C1061.66 1331.23 1059.12 1332.52 1056.52 1333.81C1017.41 1123.04 1053.51 975.768 1011.55 808.095C995.39 728.986 959.702 649.078 914.391 605.621C869.08 559.974 814.146 550.752 759.498 562.55C704.928 572.854 650.565 596.295 606.602 593.178C562.64 591.839 529.078 563.992 516.11 512.627C498.421 464.79 501.274 397.067 506.565 330.76C511.831 263.423 519.508 197.529 511.442 129.548C513.776 127.358 516.162 125.169 518.6 123.031L518.574 122.979Z" fill="#1D1D1B"/>
<path d="M1053.64 1339.5L1052.71 1334.48C1033.54 1231.13 1032.4 1144.39 1031.31 1060.49C1030.2 975.021 1029.13 894.288 1007.79 808.997C990.774 725.714 953.944 648.897 911.693 608.377C871.129 567.521 820.215 553.379 760.328 566.285C740.876 569.968 721.371 575.327 702.516 580.504C667.916 590.036 635.236 599.026 606.317 596.991C559.761 595.574 525.473 565.229 512.375 513.734C493.934 463.708 497.695 392.893 502.675 330.425C503.401 321.229 504.153 312.032 504.931 302.862C509.859 243.923 514.502 188.255 507.577 129.96L507.344 128.028L508.77 126.688C511.13 124.473 513.542 122.258 516.032 120.068L521.661 115.096L522.465 122.541C528.767 180.063 523.787 235.01 518.522 293.202C517.64 302.965 516.759 312.754 515.929 322.594C510.274 388.411 507.395 455.697 524.514 501.987L524.643 502.374C536.833 550.777 567.62 578.006 611.349 579.087C638.608 580.839 670.069 572.261 703.398 563.194C723.006 557.861 743.262 552.323 763.57 548.665C825.091 535.965 879.869 552.091 921.912 595.342C965.071 637.692 1002.78 716.904 1020.26 801.99C1041.82 887.874 1043.3 968.477 1044.85 1053.82C1046.41 1138 1047.99 1225.05 1068.01 1329.2L1068.56 1332L1066.02 1333.34C1063.5 1334.66 1060.93 1335.97 1058.29 1337.26L1053.67 1339.53L1053.64 1339.5ZM1052.35 1283.76C1054.37 1298.18 1056.7 1312.92 1059.43 1327.99C1059.56 1327.93 1059.69 1327.86 1059.79 1327.81C1056.94 1312.79 1054.47 1298.1 1052.32 1283.76H1052.35ZM801.93 553.868C846.178 553.868 884.797 570.252 917.166 602.864C927.437 612.704 937.371 624.631 946.811 638.207C937.137 623.756 926.892 611.133 916.336 600.752C875.616 558.84 824.728 543.873 765.023 556.212C744.948 559.819 724.847 565.306 705.421 570.612C671.47 579.886 639.386 588.619 610.96 586.79C570.888 585.811 539.946 563.503 523.813 524.785C538.078 565.306 567.127 588.078 606.706 589.263C634.432 591.221 666.49 582.385 700.415 573.06C719.426 567.83 739.06 562.421 758.746 558.711C773.659 555.491 788.054 553.894 801.904 553.894L801.93 553.868Z" fill="#1D1D1B"/>
<path d="M748.683 5.07484C756.023 32.9215 747.801 63.4473 742.147 99.8206C736.492 135.112 733.38 176.251 750.939 200.285C763.804 229.368 797.365 235.035 841.328 238.23C885.316 242.635 939.731 244.567 994.327 293.562C1048.98 338.102 1103.86 437.665 1149.17 565.254C1194.48 690.526 1230.19 843.85 1246.51 942.125C1267.65 1056.14 1269.41 1117.76 1270.97 1181.9C1272.52 1244.86 1273.87 1310.37 1294.26 1404.54C1291.77 1401.94 1289.22 1399.34 1286.63 1396.71C1267.08 1303.05 1266.32 1237.62 1265.21 1174.71C1264.09 1110.65 1262.64 1049.08 1241.66 936.2C1225.5 838.698 1189.81 687.203 1144.5 563.889C1099.19 438.257 1044.25 340.832 989.607 297.864C935.036 250.492 880.673 249.435 836.711 245.417C792.749 242.583 759.187 236.813 746.219 207.395C728.53 183.077 731.383 141.372 736.674 105.359C741.939 68.2387 749.616 36.8371 741.55 7.72813C743.884 6.80077 746.271 5.8734 748.709 4.99756L748.683 5.07484Z" fill="#1D1D1B"/>
<path d="M1301 1417.24L1291.46 1407.28C1288.99 1404.7 1286.48 1402.1 1283.88 1399.52L1283.08 1398.7L1282.84 1397.59C1263.63 1305.6 1262.51 1241.2 1261.42 1178.94L1261.34 1174.89C1260.31 1114.46 1259.22 1051.97 1237.84 937.024C1222.83 846.426 1188.41 694.776 1140.84 565.357C1094.26 436.17 1039.69 342.326 987.194 301.058C937.604 258.013 889.284 253.943 846.671 250.337C843.169 250.053 839.746 249.744 836.374 249.435C795.42 246.808 757.345 241.759 742.847 209.481C724.224 183.489 727.7 139.98 732.835 104.947C733.769 98.3778 734.781 91.9893 735.766 85.7553C740.305 56.9555 744.247 32.0712 737.815 8.91287L736.907 5.58981L740.123 4.30181C742.51 3.34868 744.922 2.42132 747.412 1.51972L751.432 0.0771484L752.521 4.17301C758.668 27.4859 754.389 51.958 749.461 80.2684C748.319 86.8115 747.152 93.5606 746.063 100.49C741.161 130.964 736.7 174.19 754.155 198.095L754.57 198.816C765.827 224.267 793.864 230.991 841.691 234.468C844.777 234.778 847.812 235.061 850.872 235.344C892.863 239.311 945.151 244.257 996.998 290.78C1050.38 334.289 1105.78 431.379 1152.9 564.069C1200.44 695.497 1235.15 849.594 1250.42 941.61C1271.9 1057.43 1273.46 1120.72 1274.93 1181.93L1274.99 1184.5C1276.52 1246.84 1278.1 1311.29 1298.12 1403.85L1301.03 1417.3L1301 1417.24ZM751.561 209.558C762.999 230.733 787.198 237.637 826.207 240.883C793.449 237.74 765.801 231.455 751.561 209.558ZM746.141 200.156C746.763 201.264 747.412 202.346 748.086 203.376C747.904 202.99 747.723 202.603 747.541 202.217C747.049 201.547 746.582 200.852 746.115 200.13L746.141 200.156Z" fill="#1D1D1B"/>
<path d="M595.268 72.9012C602.608 127.77 594.386 182.717 588.732 240.96C583.078 298.045 579.966 358.452 597.525 397.633C610.389 441.323 643.951 459.097 687.913 456.547C731.902 455.645 786.316 434.419 840.913 437.768C895.561 438.669 950.442 471.977 995.753 540.705C1041.06 607.166 1076.78 709.022 1093.09 795.061C1135.4 980.636 1100.07 1105.08 1140.84 1319.1C1138.35 1319.51 1135.81 1319.92 1133.22 1320.31C1094.1 1107.53 1130.21 981.847 1088.24 797.482C1072.08 711.881 1036.4 611.185 991.085 545.986C945.774 478.546 890.84 446.578 836.192 446.5C781.622 443.976 727.259 465.408 683.297 466.284C639.334 468.757 605.772 450.673 592.804 406.701C575.115 367.211 577.969 306.468 583.26 248.843C588.525 190.058 596.202 134.391 588.136 78.3624C590.47 76.5077 592.856 74.6787 595.294 72.8755L595.268 72.9012Z" fill="#1D1D1B"/>
<path d="M1130.08 1324.71L1129.4 1321C1110.21 1216.57 1109.1 1133.68 1108.01 1053.51C1106.89 970.512 1105.8 892.099 1084.48 798.332C1066.95 705.518 1029.06 607.372 987.921 548.175C944.97 484.239 892.526 450.441 836.218 450.364C805.691 448.947 775.605 455.052 746.53 460.926C724.069 465.46 702.879 469.762 683.4 470.148C634.718 472.904 602.089 451.42 589.173 408.04C571.407 368.138 573.974 307.782 579.395 248.508C580.173 239.904 580.977 231.377 581.807 222.902C586.605 173.237 591.118 126.302 584.297 78.929L583.986 76.7394L585.724 75.3484C588.084 73.4679 590.522 71.6132 592.986 69.7842L598.277 65.8687L599.159 72.3602C605.409 119.038 600.559 165.2 595.424 214.041C594.49 223.057 593.53 232.124 592.623 241.269C586.891 299.023 583.96 357.757 601.104 396.01L601.285 396.5C615.914 446.191 656.349 454.46 687.732 452.631C706.25 452.245 726.662 448.226 748.268 443.95C778.302 438.025 809.348 431.894 841.198 433.852C899.062 434.805 955.189 471.977 999.047 538.515C1041.25 600.443 1078.8 698.46 1096.96 794.288C1118.46 888.595 1119.96 966.829 1121.55 1049.65C1123.08 1130.02 1124.68 1213.12 1144.71 1318.33L1145.46 1322.22L1141.54 1322.86C1139.05 1323.27 1136.48 1323.68 1133.87 1324.1L1130.13 1324.66L1130.08 1324.71ZM827.011 442.456C830.123 442.456 833.235 442.533 836.374 442.662C879.195 442.713 919.811 461.235 955.863 496.81C921.005 461.209 881.944 442.327 840.861 441.631C809.815 439.725 779.288 445.753 749.746 451.575C727.804 455.903 707.08 459.998 688.017 460.385C644.444 462.909 613.787 446.217 598.64 411.93C611.608 447.376 640.683 464.79 683.089 462.394C701.997 462.034 722.876 457.809 744.948 453.327C771.558 447.943 798.973 442.404 827.011 442.404V442.456ZM593.556 398.251C593.712 398.715 593.894 399.153 594.075 399.617C594.023 399.411 593.945 399.179 593.894 398.973C593.79 398.741 593.686 398.483 593.582 398.251H593.556Z" fill="#1D1D1B"/>
<path d="M633.628 51.5459C640.968 99.8204 632.746 148.893 627.092 202.037C621.438 254.02 618.326 310.049 635.885 345.185C648.749 385.088 682.311 398.844 726.273 396.087C770.262 394.851 824.676 377.051 879.273 389.338C933.921 398.689 988.802 445.959 1034.11 527.49C1079.42 606.728 1115.14 720.201 1131.45 809.383C1173.76 1003.43 1138.43 1112.68 1179.2 1324.92C1176.71 1324.74 1174.17 1324.56 1171.58 1324.38C1132.46 1113.33 1168.57 1002.74 1126.6 810.078C1110.44 721.412 1074.76 609.252 1029.44 531.431C984.134 451.343 929.2 405.593 874.552 397.247C819.982 385.99 765.619 404.15 721.657 405.438C677.694 408.272 644.133 394.233 631.164 354.021C613.476 318.601 616.329 262.135 621.62 209.558C626.885 155.797 634.562 105.926 626.496 56.4403C628.83 54.7917 631.216 53.1945 633.654 51.5974L633.628 51.5459Z" fill="#1D1D1B"/>
<path d="M1184 1329.09L1168.31 1327.96L1167.76 1325.02C1148.55 1221.36 1147.43 1141.95 1146.37 1065.18C1145.23 984.758 1144.16 908.791 1122.82 810.826C1104.84 712.242 1066.87 603.354 1026.1 533.286C982.526 456.263 928.526 409.303 873.982 400.982C838.552 393.666 802.475 399.05 770.625 403.79C753.377 406.366 737.063 408.787 721.786 409.225C671.988 412.445 640.242 394.31 627.559 355.387C609.663 319.297 612.257 263.758 617.755 209.095C618.559 200.929 619.415 192.84 620.271 184.829C624.991 140.393 629.427 98.4294 622.657 56.9814L622.268 54.6115L624.239 53.2204C626.599 51.546 629.037 49.9231 631.527 48.3002L636.585 45.0029L637.493 50.9535C643.717 91.8348 638.945 133.025 633.888 176.663C632.902 185.164 631.916 193.742 630.983 202.423C625.484 252.861 622.19 309.044 639.386 343.434L639.62 343.975C650.876 378.88 679.951 395.109 726.066 392.198C740.642 391.786 756.282 389.545 772.855 387.2C805.769 382.512 843.065 377.205 880.18 385.552C936.8 395.238 992.745 444.98 1037.56 525.609C1078.62 597.429 1117.01 708.558 1135.34 808.662C1156.82 907.168 1158.32 982.955 1159.91 1063.2C1161.44 1140.14 1163.02 1219.72 1183.07 1324.15L1184.03 1329.09H1184ZM836.348 389.673C849.238 389.673 862.31 390.704 875.356 393.409C901.967 397.453 928.422 410.256 953.633 430.838C929.408 410.359 904.068 397.479 878.65 393.125C842.754 385.062 806.21 390.266 773.945 394.851C757.164 397.247 741.291 399.514 726.403 399.926C681.274 402.785 651.006 388.36 636.377 357.035C648.697 389.416 677.279 404.382 721.423 401.523C736.363 401.085 752.443 398.689 769.458 396.165C790.362 393.048 813.057 389.673 836.348 389.673ZM631.242 344.439C631.787 345.881 632.357 347.272 632.98 348.637C632.746 347.968 632.513 347.324 632.305 346.628C631.942 345.907 631.605 345.16 631.242 344.413V344.439Z" fill="#1D1D1B"/>
<path d="M671.988 33.0762C679.328 74.55 671.107 117.492 665.452 165.2C659.798 211.748 656.686 263.063 674.245 294.258C687.109 330.425 720.671 340.807 764.633 338.875C808.622 338.385 863.037 325.557 917.633 348.406C972.281 367.803 1027.16 430.761 1072.47 526.305C1117.78 619.583 1153.5 745.446 1169.81 837.668C1212.12 1040.3 1176.79 1131.41 1217.56 1340.04C1215.07 1339.17 1212.53 1338.29 1209.94 1337.39C1170.82 1129.92 1206.93 1037.39 1164.96 836.328C1148.8 744.674 1113.12 620.278 1067.81 528.598C1022.49 434.625 967.561 373.419 912.912 355.206C858.342 333.568 803.979 346.937 760.017 347.607C716.054 349.694 682.493 339.081 669.524 302.604C651.836 271.125 654.689 219.322 659.954 172.129C665.219 123.752 672.896 79.9596 664.83 37.2236C667.164 35.8067 669.55 34.4415 671.988 33.0762Z" fill="#1D1D1B"/>
<path d="M1222.7 1345.94L1216.27 1343.67C1213.8 1342.8 1211.26 1341.92 1208.69 1341.05L1206.54 1340.32L1206.12 1338.11C1186.91 1236.1 1185.79 1161.27 1184.7 1088.91C1183.56 1011.96 1182.47 939.291 1161.15 837.127C1147.09 757.528 1113.32 629.5 1064.3 530.324C1019.62 437.665 965.434 376.793 911.667 358.89C871.544 342.996 831.135 346.345 795.498 349.307C783.048 350.338 771.299 351.317 760.069 351.471C709.129 353.867 678.291 338.437 665.945 304.201C647.841 271.666 650.798 218.987 656.089 171.691C656.919 164.015 657.827 156.441 658.709 148.945C663.326 110.022 667.683 73.2876 660.991 37.919L660.498 35.2915L662.807 33.9004C665.167 32.4578 667.605 31.0668 670.095 29.6758L674.867 27.0225L675.827 32.3806C682.026 67.337 677.331 103.375 672.351 141.552C671.314 149.46 670.276 157.472 669.317 165.638C663.766 211.156 660.447 261.8 677.642 292.352L677.902 292.944C688.873 323.728 716.366 337.071 764.452 334.985C775.19 334.856 786.42 334.006 798.273 333.13C835.181 330.348 876.99 327.179 919.137 344.825C974.563 364.506 1030.35 428.391 1075.98 524.656C1125.18 625.971 1159.33 756.24 1173.63 836.998C1195.08 939.678 1196.58 1012.22 1198.19 1089.01C1199.69 1161.5 1201.27 1236.49 1221.35 1339.29L1222.65 1345.94H1222.7ZM841.457 339.055C865.008 339.055 889.621 341.811 914.339 351.626C923.935 354.82 933.532 359.328 943.102 365.073C934.206 359.56 925.258 355.181 916.336 352.012C875.745 335.036 834.895 338.127 798.895 340.832C786.887 341.734 775.553 342.584 764.685 342.713C718.129 344.774 688.432 332.177 674.323 304.304C686.124 333.413 713.409 345.959 759.835 343.743C770.936 343.589 782.556 342.61 794.875 341.579C809.711 340.343 825.351 339.055 841.483 339.055H841.457ZM669.083 292.815C669.862 294.722 670.717 296.551 671.625 298.328C671.314 297.504 670.977 296.679 670.691 295.855C670.147 294.85 669.602 293.846 669.083 292.815Z" fill="#1D1D1B"/>
<path d="M710.348 17.5684C717.688 52.19 709.466 88.8981 703.812 130.99C698.158 171.923 695.046 218.24 712.605 245.7C725.469 278.235 759.031 285.886 802.994 285.937C846.982 287.303 901.397 281.043 955.993 316.102C1010.64 347.221 1065.52 427.566 1110.83 538.464C1156.14 647.043 1191.86 786.199 1208.17 881.434C1229.31 989.987 1231.08 1056.58 1232.63 1126.36C1234.19 1195.24 1235.54 1267.32 1255.92 1366.08C1253.43 1364.41 1250.89 1362.71 1248.3 1361.04C1228.74 1262.79 1227.99 1190.76 1226.87 1121.88C1225.76 1052.12 1224.31 985.505 1203.32 877.956C1187.16 783.391 1151.48 645.883 1106.17 539.056C1060.85 429.936 1005.92 351.497 951.272 321.77C896.702 288.127 842.339 295.082 798.377 294C754.414 294.232 720.853 286.375 707.884 253.531C690.196 225.787 693.049 178.93 698.34 137.301C703.605 94.5138 711.282 56.9041 703.216 21.0202C705.55 19.8352 707.936 18.7018 710.374 17.5941L710.348 17.5684Z" fill="#1D1D1B"/>
<path d="M1261.65 1374.64L1253.72 1369.28C1251.25 1367.6 1248.74 1365.93 1246.14 1364.26L1244.77 1363.35L1244.46 1361.76C1225.27 1265.31 1224.12 1194.7 1223.03 1126.41L1222.96 1121.9C1221.92 1056.14 1220.83 988.158 1199.46 878.652C1184.96 793.901 1150.91 654.539 1102.53 540.525C1056.86 430.503 1002.45 354.021 949.353 325.119C904.535 297.504 860.08 297.71 820.89 297.916C813.005 297.967 805.535 297.993 798.247 297.813C760.38 298.07 719.556 293.099 704.357 255.231C686.072 226.174 689.054 179.059 694.423 136.761C695.305 129.625 696.265 122.618 697.173 115.74C701.867 81.0156 705.939 51.0566 699.351 21.8189L698.703 18.8822L701.4 17.5169C703.786 16.332 706.199 15.147 708.688 14.0136L713.124 11.9785L714.135 16.7184C720.308 45.7758 715.691 76.5849 710.841 109.223C709.752 116.462 708.662 123.855 707.651 131.428C702.386 169.45 698.573 216.514 715.873 243.562L716.21 244.232C726.818 271.022 751.951 281.97 802.994 282.022C809.944 282.228 816.947 282.254 824.365 282.279C865.008 282.434 911.071 282.614 958.12 312.805C1012.48 343.743 1068.06 423.393 1114.46 536.97C1162.91 653.071 1197.31 794.726 1212.04 880.739C1233.54 991.043 1235.07 1059.77 1236.55 1126.23L1236.63 1129.17C1238.16 1197.54 1239.76 1268.25 1259.79 1365.26L1261.71 1374.59L1261.65 1374.64ZM831.264 290.188C843.506 290.188 856.163 290.394 869.157 291.605C853.673 290.162 838.63 290.111 824.313 290.059C816.844 290.033 809.789 290.008 802.864 289.801C767.616 289.776 729.801 285.371 712.631 254.845C723.939 279.781 749.901 290.394 798.325 290.136C805.639 290.317 813.031 290.291 820.864 290.239C824.287 290.239 827.763 290.214 831.264 290.214V290.188ZM707.366 244.515C708.17 246.267 709.052 247.941 710.011 249.59C709.7 248.894 709.415 248.173 709.103 247.452C708.507 246.499 707.91 245.52 707.366 244.515Z" fill="#1D1D1B"/>
</g>
<path d="M779.599 864.355C791.167 843.696 777.057 823.706 765.023 813.84C752.988 803.974 742.121 815.669 742.121 815.669C674.141 836.328 664.882 688.439 664.882 688.439L589.355 671.592C589.355 671.592 577.631 686.894 565.934 699.465C554.211 712.01 560.695 723.035 556.675 741.428C552.655 759.795 509.963 781.227 490.225 787.358C470.488 793.489 468.646 811.521 475.727 820.383C482.808 829.27 483.897 839.471 483.897 839.471C482.367 848.049 468.024 851.424 468.024 851.424C462.24 861.213 472.329 879.992 472.329 879.992C449.505 889.188 461.773 896.993 466.39 904.335C471.007 911.677 456.378 928.369 456.378 928.369C437.886 971.852 462.007 978.138 501.482 988.854C540.957 999.57 560.98 1014.59 568.683 1034.48C576.386 1054.39 578.85 1094.19 587.799 1115.31C592.623 1126.7 598.225 1147.46 602.401 1164.23C664.13 1154.85 720.334 1128.76 766.19 1090.81C749.201 1031.51 779.573 864.381 779.573 864.381L779.599 864.355Z" fill="#B54228"/>
<path d="M600.456 1167.14L599.885 1164.85C595.943 1149 590.263 1127.73 585.412 1116.32C580.588 1104.9 577.631 1088.39 574.778 1072.42C572.237 1058.1 569.799 1044.57 566.245 1035.4C558.49 1015.36 537.689 1001.35 500.756 991.327L500.081 991.147C475.909 984.578 456.819 979.4 450.024 965.541C445.537 956.345 446.782 944.212 453.94 927.365L454.381 926.669C459.932 920.332 466.649 909.642 464.159 905.7C463.459 904.593 462.551 903.433 461.566 902.197C458.635 898.487 455.289 894.288 456.612 889.343C457.675 885.35 461.566 881.924 468.776 878.704C466.131 872.985 460.606 858.868 465.741 850.161L466.312 849.208L467.401 848.951C470.851 848.126 479.929 844.855 481.251 839.419C480.966 837.59 479.462 829.244 473.678 822.006C469.476 816.751 468.205 809.203 470.358 802.273C472.9 794.107 479.669 787.951 489.421 784.911C509.47 778.677 550.476 757.502 554.107 740.887C555.508 734.447 555.585 729.063 555.637 723.834C555.741 714.509 555.845 706.446 563.989 697.713C575.479 685.4 587.15 670.201 587.254 670.047L588.265 668.733L667.32 686.353L667.449 688.285C667.501 689.238 673.856 783.803 710.504 809.023C719.53 815.231 729.412 816.673 740.694 813.402C745.337 808.791 756.023 803.149 766.631 811.856C780.844 823.525 793.345 844.468 782.037 865.231C780.377 874.505 752.443 1033.47 768.68 1090.09L769.146 1091.69L767.85 1092.77C720.516 1131.95 663.429 1157.56 602.79 1166.75L600.456 1167.11V1167.14ZM458.635 929.734C452.229 944.907 451.01 955.572 454.77 963.274C460.528 975.021 478.606 979.941 501.508 986.149L502.182 986.329C540.828 996.814 562.718 1011.81 571.121 1033.52C574.856 1043.16 577.32 1056.91 579.914 1071.49C582.715 1087.18 585.62 1103.41 590.211 1114.28C594.931 1125.46 600.404 1145.55 604.346 1161.29C662.651 1152.02 717.507 1127.34 763.259 1089.86C747.282 1029.4 775.812 870.666 777.031 863.892L777.109 863.479L777.316 863.119C787.458 844.984 776.123 826.308 763.363 815.823C753.429 807.657 744.403 817.034 744.014 817.42L743.547 817.935L742.873 818.142C729.879 822.083 718 820.434 707.573 813.247C671.418 788.363 663.533 704.746 662.444 690.526L590.392 674.477C587.28 678.47 577.502 690.835 567.827 701.216C561.058 708.481 560.98 714.947 560.851 723.885C560.799 729.115 560.721 735.014 559.191 741.969C554.755 762.345 509.211 784.164 490.978 789.805C482.885 792.304 477.335 797.276 475.312 803.767C473.652 809.1 474.586 814.844 477.724 818.786C485.194 828.137 486.387 838.775 486.439 839.213V839.574L486.413 839.935C484.857 848.539 473.522 852.531 469.762 853.613C466.571 860.852 472.07 874.093 474.586 878.755L475.935 881.28L473.263 882.362C464.522 885.891 462.11 888.802 461.618 890.631C460.969 893.104 463.226 895.963 465.638 898.977C466.649 900.265 467.713 901.579 468.569 902.944C473.782 911.213 461.747 926.051 458.583 929.734H458.635Z" fill="#1D1D1B"/>
<path d="M627.896 727.929C627.896 727.929 615.628 711.391 603.62 710.464C591.611 709.537 566.168 720.562 564.534 716.44C562.9 712.319 567.776 703.123 583.26 703.123C598.744 703.123 621.412 708.403 627.896 727.929Z" fill="#1D1D1B"/>
<path d="M791.945 867.626C778.769 887.178 759.757 912.81 735.533 918.4C724.432 920.924 712.942 934.706 700.934 927.029C698.755 925.716 696.887 924.118 695.124 922.392C699.066 925.175 703.761 927.493 708.222 926.849C712.657 926.256 716.262 923.114 720.023 920.074C723.784 916.983 727.882 913.711 732.809 911.393C735.533 910.182 737.193 909.538 739.138 908.43C756.36 897.199 767.098 877.338 775.838 859.254L791.919 867.652L791.945 867.626Z" fill="#1D1D1B"/>
<path d="M506.903 825.148C506.099 833.623 494.479 843.309 488.047 833.881L488.254 833.417C490.329 832.85 492.041 832.876 493.909 832.516C499.355 832.876 503.298 829.888 506.41 824.994L506.903 825.148Z" fill="#1D1D1B"/>
<path d="M582.923 724.272C581.729 729.398 579.395 733.622 575.557 737.049L565.623 745.601L572.652 734.498C574.571 731.459 575.479 727.157 575.168 723.756L582.923 724.272Z" fill="#1D1D1B"/>
<path d="M599.781 757.888C599.781 757.888 568.009 755.596 564.17 746.863C564.17 746.863 563.055 753.767 547.986 745.498C538.026 740.037 556.338 758.661 565.649 758.996C565.649 758.996 576.127 761.134 599.807 757.888H599.781Z" fill="#1D1D1B"/>
<path d="M496.762 785.04C496.762 785.04 492.456 788.852 489.214 789.934C485.972 791.016 478.917 796.4 484.312 802.892C489.707 809.383 498.318 815.334 492.819 823.474C492.819 823.474 494.064 825.895 497.021 828.78C499.978 831.666 500.496 838.183 490.407 837.487C490.407 837.487 485.739 838.363 485.324 839.239C484.909 840.115 482.03 848.487 479.358 849.955C476.687 851.424 471.084 851.913 475.182 858.585C479.28 865.257 490.251 875.973 487.969 880.249L494.92 886.792C494.92 886.792 490.433 886.87 485.298 884.706C480.162 882.542 473.704 882.362 473.704 882.362C473.704 882.362 472.926 883.675 474.067 886.148C475.208 888.621 478.347 892.872 473.445 895.731C473.445 895.731 469.995 897.045 475.156 899.466C480.318 901.888 479.618 901.553 477.179 905.984C474.741 910.414 453.966 940.244 452.851 953.331C450.906 975.793 491.6 980.688 536.289 982.156C578.384 983.521 623.643 978.421 637.571 976.412C664.389 972.548 673.648 947.251 680.573 940.811C687.498 934.371 688.769 983.109 695.072 1001.79L553.562 1012.97C554.055 1013.76 537.404 1000.47 521.168 995.242C509.263 991.404 501.43 988.802 484.468 985.453C463.07 981.203 449.479 970.281 447.845 958.895C443.721 930.198 461.254 920.332 462.992 913.789C465.378 904.747 446.185 898.384 460.917 884.397C460.917 884.397 466.182 879.682 468.205 879.734C468.205 879.734 470.021 876.411 468.906 874.788C467.79 873.165 463.407 867.601 464.574 858.456C465.741 849.311 467.765 850.136 470.825 849.389C470.825 849.389 478.502 848.538 481.226 842.408L482.989 838.363C482.989 838.363 481.174 831.356 478.347 826.926C475.52 822.495 451.658 789.419 496.736 784.988L496.762 785.04Z" fill="#1D1D1B"/>
<path d="M653.159 711.34C653.159 711.34 578.617 699.774 571.044 693.797C560.384 685.374 621.205 594.08 733.432 617.959C733.432 617.959 767.357 619.196 790.778 628.985C814.198 638.774 967.95 683.184 984.601 903.665C1001.25 1124.15 961.025 1192.28 984.601 1284.99C1008.18 1377.7 981.821 1272.74 981.821 1272.74L984.601 1284.99C983.674 1284.32 954.748 1263.2 984.601 1284.99C974.615 1243.11 882.852 1302.23 829.215 1248.16C736.259 1154.44 723.472 1032.95 759.835 951.424C799.726 861.985 770.936 835.066 728.997 823.422C687.058 811.779 651.914 732.18 653.159 711.34Z" fill="#1D1D1B"/>
<path d="M689.392 930.816C689.392 930.816 679.225 970.461 654.715 985.17C631.553 999.055 547.208 980.095 556.934 1012.73C557.505 1014.61 566.012 1019.46 567.179 1021.7C588.758 1062.6 633.421 1056.37 633.421 1056.37L724.847 1004L689.392 930.816Z" fill="#B54228"/>
<path d="M715.484 883.933C714.861 883.933 714.265 883.984 713.642 884.01C709.934 884.499 708.144 887.23 706.225 889.986C703.709 893.593 707.936 895.19 708.481 897.894C708.896 899.878 710.556 899.93 711.905 898.719C717.326 893.85 724.302 895.422 730.397 895.009C747.879 893.824 759.939 882.567 761.003 861.985C758.253 866.132 752.521 863.891 756.023 871.233C758.201 875.792 750.991 883.829 749.357 882.825C740.902 877.647 741.576 885.066 739.475 888.621C737.737 891.583 734.91 891.789 732.395 890.939C728.167 889.522 731.668 887.23 732.265 885.349C732.887 883.417 731.72 882.67 730.294 881.975C733.069 875.767 741.732 869.558 729.308 862.964C726.74 871.207 721.89 878.188 715.38 883.958H715.432L715.484 883.933Z" fill="#1D1D1B"/>
<path d="M623.539 939.6C623.539 939.6 693.568 917.653 724.847 861.985C745.596 825.071 816.766 896.916 824.78 872.315C824.78 872.315 812.253 793.566 690.403 784.37C690.403 784.37 689.081 888.286 623.513 939.6H623.539Z" fill="#1D1D1B"/>
</svg>
