<svg width="732" height="1422" viewBox="0 0 732 1422" fill="none" xmlns="http://www.w3.org/2000/svg">
<g clip-path="url(#clip0_152_217)">
<path d="M666.063 686.219C637.604 677.696 661.125 700.86 661.125 700.86C661.125 700.86 666.606 705.669 667.709 712.948C657.438 712.351 638.805 713.462 623.432 726.644C606.594 741.087 598.841 765.229 600.421 798.392C602.495 842.216 624.568 862.661 642.311 879.093C662.886 898.145 677.733 911.924 662.59 957.987C648.55 1000.67 606.248 999.292 582.283 994.682C561.066 990.586 538.796 981.218 521.233 968.981C521.2 968.948 521.151 968.931 521.118 968.898C519.274 956.512 516.476 941.389 513.283 936.399C513.283 936.399 518.484 931.806 530.599 928.274C542.697 924.742 545.758 903.883 539.059 890.518C539.059 890.518 524.739 864.303 516.937 870.322C507.654 878.331 498.552 881.796 504.971 870.654C506.485 868.017 509.958 865.347 510.748 862.396C518.484 833.213 602.396 791.809 586.315 733.841C570.958 678.509 528.969 633.457 527.224 624.238C517.76 573.914 484.413 562.108 439.56 561.444C450.094 558.178 460.019 554.099 469.056 549.075C475.524 545.477 483.046 544.399 490.206 546.206C499.045 548.428 512.345 550.07 526.188 545.56C550.4 537.7 553.132 525.496 566.399 520.389C579.682 515.282 608.964 508.202 619.498 494.041C630.032 479.881 648.78 483.811 648.78 477.128C648.78 470.446 627.3 473.199 623.399 473.199C619.498 473.199 671.034 463.366 676.498 439.771C681.963 416.175 668.301 401.219 668.301 401.219C668.301 401.219 692.316 335.142 650.541 308.794C608.766 282.447 607.005 306.821 607.005 306.821C607.005 306.821 619.235 357.03 580.719 331.859C579.517 331.08 578.316 330.151 577.098 329.107C580.505 298.514 582.283 251.539 582.283 232.255C582.283 187.436 573.312 148.635 556.655 116.252C581.246 53.3256 554.893 17.1617 539.339 2.50378C535.24 -1.35967 528.525 0.712998 527.208 6.20142C521.957 27.9562 514.353 43.41 506.633 54.3537C462.965 18.6872 402.41 0 330.003 0C228.479 0 147.481 37.0593 104.751 106.054C93.1468 96.5698 77.8885 77.7831 69.099 41.47C67.7658 35.9815 61.0502 33.9089 56.9681 37.7723C37.167 56.4429 -0.147341 109.968 72.4897 209.19C71.8643 216.934 71.5351 224.876 71.5351 233.018C71.5351 267.391 76.8022 330.964 86.7439 372.682C80.7361 379.066 73.1152 381.587 64.2434 373.263C64.2434 373.263 86.892 345.34 60.3424 338.26C33.7928 331.179 -19.3065 352.818 7.24311 423.604C7.24311 423.604 -5.64491 461.359 25.5958 481.821C25.5958 481.821 36.5251 518.399 72.8354 518.399C72.8354 518.399 88.8508 519.975 91.9617 529.409C95.0396 538.728 134.28 566.452 166.459 545.593C166.87 545.327 167.298 545.046 167.71 544.747C167.71 544.747 168.105 541.215 177.47 551.429C186.836 561.66 197.452 549.058 208.382 554.381C212.052 556.172 230.603 560.93 256.971 565.192C236.693 570.929 187.428 590.396 177.865 645.694C118.923 699.07 84.7852 771.331 149.357 851.402C149.357 851.402 130.099 856.642 142.592 876.059C155.085 895.476 146.23 899.14 159.249 904.911C172.269 910.681 174.343 944.772 195.691 943.197C195.691 943.197 201.683 942.666 197.255 966.527C191.889 993.239 204.185 1204.29 177.158 1221.08C171.1 1224.85 159.365 1216.57 159.513 1229.41C159.628 1239.14 171.808 1279.25 159.381 1295.77C158.212 1295.14 157.077 1294.57 155.99 1294.11C155.99 1294.11 149.225 1270.71 125.013 1275.95C100.801 1281.19 114.989 1303.48 113.425 1304.54C111.862 1305.58 86.102 1313.97 96.3729 1324.98C106.66 1335.99 121.359 1324.45 126.692 1320.79C132.025 1317.12 135.679 1317.12 135.679 1317.12C135.679 1317.12 119.417 1330.37 113.952 1334.95C108.487 1339.54 68.5229 1357.76 59.5523 1366.02C50.5653 1374.28 36.5086 1393.55 77.6416 1404.44C118.775 1415.32 170.179 1399.85 180.845 1389.75C191.511 1379.65 194.687 1372.62 194.687 1372.62C194.687 1372.62 195.708 1369.97 197.913 1371.05C200.119 1372.12 194.128 1398.01 223.278 1391.46C252.428 1384.91 253.284 1393.16 260.247 1366.62C267.209 1340.07 270.534 1342.29 269.349 1330.89C269.349 1330.89 263.753 1301.97 264.724 1296.86C265.695 1291.75 262.962 1290.18 262.962 1290.18C262.962 1290.18 262.567 1290.64 261.794 1291.31C268.081 1264.39 305.478 1210.06 304.474 1177.76C304.737 1154.29 299.256 1145.32 311.618 1123.57C323.979 1101.81 345.87 1045.72 354.709 1044.67C363.548 1043.63 403.118 1126.49 435.659 1143C472.545 1164.59 433.321 1200.29 482.108 1257.4C471.426 1281.24 514.122 1288.95 506.452 1331.27C503.852 1364.31 511.407 1381.61 528.064 1387.91C544.721 1394.21 615.531 1428.28 660.812 1420.96C758.567 1407.19 644.188 1345.43 635.826 1326.56C638.476 1322.43 667.61 1346.12 669.668 1334.42C685.42 1315.9 655.101 1321.07 655.874 1312.91C682.292 1297.86 639.513 1237.9 612.404 1299.53C589.064 1258.03 619.679 1229.84 609.03 1223.49C606.445 1221.75 599.615 1219.96 589.656 1219.53C589.722 1219.13 589.772 1218.71 589.772 1218.23C589.772 1208.6 578.052 1166.32 553.856 1125.67C531.998 1088.98 538.137 1034.13 527.488 997.766C542.861 1005.82 560.045 1012.11 576.554 1015.47C577.114 1015.59 577.69 1015.71 578.25 1015.81C630.757 1025.92 668.91 1007.3 682.918 964.719C702.423 905.441 679.231 883.952 656.812 863.175C639.678 847.29 623.481 832.284 621.819 797.314C620.584 771.281 625.753 753.059 637.192 743.143C642.92 738.168 649.652 735.897 655.594 734.935C654.92 735.449 654.212 735.963 653.455 736.477C628.814 753.307 635.25 759.144 653.372 760.636C671.495 762.129 730.75 760.189 732.001 753.025C733.252 745.862 694.538 694.709 666.079 686.169L666.063 686.219ZM76.3413 1371.49C69.8562 1371.54 74.9752 1375.04 66.63 1373.55C55.2069 1372.94 101.459 1353.67 99.385 1365.54C104.899 1371.34 82.8429 1371.44 76.3413 1371.49ZM103.599 1363.43C103.105 1364.51 98.381 1361.74 98.6773 1359.7C98.9735 1357.66 100.159 1360.42 102.693 1360.42C105.804 1359.42 107.944 1357.86 108.471 1361.46C108.685 1363.04 103.335 1361.18 103.599 1363.43ZM531.8 900.45C535.965 899.986 538.697 908.641 529.907 919.535C521.431 930.081 493.795 927.262 497.432 921.376L497.696 921.31C519.883 917.811 517.974 906.37 531.8 900.467V900.45ZM509.448 878.546C566.695 884.416 451.378 966.46 428.647 886.024C427.495 884.316 426.968 882.41 427.231 880.337C427.643 882.327 428.137 884.2 428.647 886.024C440.646 903.899 521.727 901.876 509.448 878.546ZM494.124 880.254C485.268 903.17 427.742 885.892 422.474 863.209C409.685 856.858 427.462 770.287 452.596 787.166C457.665 787.946 461.188 796.601 442.045 803.814C409.652 832.898 482.931 882.377 507.901 856.128C509.794 858.848 487.902 876.59 494.107 880.254H494.124ZM519.505 622.497C526.533 636.923 564.934 688.706 576.373 719.382C605.54 762.112 513.876 869.194 471.87 853.774C449.419 854.371 440.827 823.297 443.362 819.55C453.452 809.186 501.876 733.443 506.419 728.502C494.124 736.361 483.573 726.147 472.841 704.906C462.11 683.666 435.938 653.57 434.77 653.372C438.457 663.619 479.294 709.085 449.798 727.324C415.117 709.267 405.587 575.307 471.656 574.71C501.202 574.444 512.46 608.071 519.488 622.497H519.505ZM442.819 570.017C446.094 570.332 447.757 574.146 445.831 576.832C385.111 661.016 249.482 813.1 246.75 608.585C246.717 606.496 248.412 604.738 250.486 604.755C278.533 604.954 212.233 698.357 321.411 625.1C349.376 669.439 362.413 672.573 385.967 613.842C392.814 596.779 412.187 598.272 419.215 581.226C423.775 570.166 435.28 569.271 442.802 570.017H442.819ZM328.193 599.018C328.193 602.152 324.851 604.258 319.864 604.258C314.877 604.258 311.535 602.152 311.535 599.018C311.535 595.884 314.877 593.778 319.864 593.778C324.851 593.778 328.193 595.884 328.193 599.018ZM415.002 568.077C409.603 623.111 336.916 599.963 331.057 586.035C333.871 584.045 356.619 577.048 377.753 572.073C394.575 568.11 410.393 565.424 414.36 567.563C414.639 567.712 414.853 567.878 415.018 568.077H415.002ZM513.892 123.614C521.085 117.562 523.768 110.813 528.475 102.771C531.866 96.7853 533.957 90.1528 535.306 83.2881C537.002 74.6492 537.561 65.6124 538.104 57.0067C538.664 45.9967 538.417 34.7877 537.726 23.5621L539.816 23.0647C547.684 44.8526 552.457 68.1659 550.943 91.5456C550.68 95.5583 550.334 99.7037 549.659 103.816C548.194 112.77 545.182 121.492 538.22 128.124C528.788 137.924 513.02 141.091 501.185 135.005C500.872 134.84 500.543 134.69 500.214 134.524C500.214 134.524 500.214 133.596 500.247 132.966C500.247 132.634 500.247 132.369 500.247 132.369C505.744 129.235 510.32 126.615 513.876 123.614H513.892ZM209.336 45.4329C256.066 20.7433 310.992 12.7842 362.939 21.3734C407.776 28.9345 451.312 46.4941 488.149 73.3227C493.449 77.1862 498.601 81.232 503.605 85.4603C497.482 81.9782 491.276 78.6453 484.989 75.4286C431.264 48.0528 371.416 31.1729 311.091 33.627C243.408 35.8323 180.351 67.5358 128.782 110.631C151.003 84.283 178.244 61.666 209.32 45.4163L209.336 45.4329ZM77.3289 151.205C64.2434 134.806 58.4001 114.461 57.0175 94.0494C56.2439 81.0994 56.7542 68.3317 59.0092 55.7797L61.1489 55.9289C63.5521 80.3035 70.5969 117.893 90.1346 134.375C90.793 134.939 91.4843 135.47 92.1756 135.984C96.9654 139.466 101.541 142.566 106.545 145.302C107.994 146.098 109.458 146.861 110.989 147.591C119.301 151.272 126.922 153.029 136.42 156.014L136.782 158.136C131.087 162.05 124.601 164.802 117.59 165.731C111.039 166.808 104.191 166.328 97.772 164.421C92.0933 162.746 86.7768 159.96 82.2668 156.163C80.4892 154.654 78.8103 153.013 77.3125 151.205H77.3289ZM153.258 411.035C154.509 403.507 155.348 396.941 155.826 391.171C160.484 334.927 131.959 352.752 140.781 276.643C152.188 172.662 294.384 147.823 331.682 244.658C332.357 246.399 334.875 246.134 335.122 244.293C338.052 201.298 376.782 173.64 422.935 174.651C532.706 176.658 521.809 264.041 515.11 339.487C514.6 345.191 514.287 350.679 514.139 355.968C511.867 436.206 546.4 469.484 484.396 524.601C417.339 584.227 139.3 599.117 153.258 411.052V411.035ZM269.25 567.066C275.867 566.668 283.307 567.447 290.697 569.719C300.721 572.803 310.663 578.623 318.333 587.991C286.418 625.962 266.32 554.945 262.403 597.725C234.816 582.387 247.523 568.375 269.25 567.066ZM118.659 750.472C118.659 707.725 182.178 650.636 182.178 650.636C191.938 602.848 221.22 586.714 229.417 583.183C237.614 579.651 248.741 599.499 246.98 599.117C245.219 598.719 232.923 626.974 227.195 644.152C217.714 667.25 221.451 663.652 211.97 657.003C223.574 668.212 200.712 722.847 194.391 738.683C185.47 761.979 177.635 734.554 160.813 734.62C194.737 762.129 196.317 775.642 196.35 816.698C188.548 814.592 164.467 847.639 164.467 847.639C141.045 853.011 118.659 793.235 118.659 750.488V750.472ZM218.044 962.663C218.142 967.571 218.422 972.463 218.867 977.338C219.492 982.113 219.673 987.254 222.257 991.465C219.015 987.651 218.06 982.412 216.875 977.653C215.789 972.795 215.114 967.853 214.472 962.929C210.768 928.406 211.542 893.436 215.789 858.997C216.71 851.883 218.142 844.04 219.706 836.977C224.759 810.662 221.138 783.8 213.534 757.95C226.948 784.629 232.018 816.217 225.451 845.582C219.393 884.151 217.682 923.598 218.044 962.663ZM220.546 695.488C217.418 707.709 213.748 719.697 212.875 732.382C208.201 711.473 220.002 677.298 230.059 658.694C227.739 669.505 223.393 684.677 220.546 695.488ZM160.105 889.092C162.838 886.737 158.542 885.063 158.542 885.063C159.233 886.257 132.996 863.126 144.682 858.615C147.925 858.997 150.773 860.025 152.205 863.043C156.155 859.262 156.023 866.027 161.768 866.674C165.866 866.972 180.515 835.7 189.486 825.768C198.094 815.421 202.275 832.152 201.781 854.785C204.25 874.882 149.159 913.566 160.105 889.109V889.092ZM190.885 935.205C181.207 938.819 160.599 897.167 179.166 898.228C199.856 887.633 206.621 848.799 204.152 910.15C203.246 937.559 190.869 935.188 190.869 935.188L190.885 935.205ZM138.675 1352.92C137.21 1360.7 108.175 1362.16 110.216 1359.12C111.335 1353.59 128.321 1352.76 117.145 1343.34C114.561 1340.88 140.139 1345.16 138.675 1352.92ZM127.005 1334.15C149.39 1306.21 162.377 1321.82 180.696 1339.06C142.822 1360.5 125.26 1334.14 127.005 1334.15ZM249.564 1296.45C245.021 1300.11 240.215 1300.87 234.536 1300.21C224.019 1298.97 210.505 1292.86 190.161 1291.37C195.132 1299.81 221.369 1301.85 227.574 1308.14C231.755 1312.38 226.833 1318.55 200.119 1329.92C200.119 1329.92 200.086 1329.82 200.037 1329.64C199.428 1327.54 194.918 1313.39 181.569 1308.48C147.843 1299.1 180.104 1263.95 165.175 1236.11C159.118 1223.12 169.866 1217.62 209.106 1238.86C237.746 1254.36 256.313 1258.56 264.23 1259.69C267.16 1260.1 268.641 1260.1 268.641 1260.1C261.712 1280.56 255.901 1291.34 249.581 1296.45H249.564ZM295.372 1161.64C300.606 1177.06 287.57 1212.78 277.151 1236.9C268.295 1275.16 206.341 1219.11 195.016 1223.94L194.654 1224.05C181.832 1219.92 209.55 1146.57 201.156 1069.86C194.588 1009.9 210.785 986.209 240.989 1006.94C271.176 1027.65 324.539 1035.79 333.657 1046.53C342.776 1057.28 285.496 1132.54 295.388 1161.64H295.372ZM341.788 1009.12C333.888 1004.47 326.892 998.811 319.93 993.123C313.05 987.336 306.35 981.351 299.816 975.182L300.079 974.884C306.943 980.638 313.971 986.209 321.131 991.565C330.036 997.932 338.809 1005.24 349.129 1008.73C355.318 1009.87 360.964 1006.26 366.379 1003.14C370.149 1000.88 373.885 998.38 377.802 996.125C381.687 993.836 385.818 991.764 390.164 990.52L390.312 990.885C382.543 995.395 376.025 1001.35 368.47 1006.49C360.108 1012.29 351.072 1015.43 341.788 1009.12ZM657.438 1361.18C654.804 1366.35 691.362 1387.03 689.321 1387.53C690.028 1395.39 612.272 1356.65 634.394 1351.08C645.192 1344.13 655.611 1354.5 657.421 1361.18H657.438ZM621.901 1325.38C640.781 1329.84 641.949 1344.4 630.493 1349.24C619.037 1354.1 586.118 1362.62 573.625 1347.67C573.625 1347.67 603.038 1320.92 621.918 1325.38H621.901ZM603.68 1296.5C608.618 1301.69 602.117 1302.68 602.117 1302.68L585.854 1305.28C617.688 1307.84 528.377 1354.03 533.282 1314.44C536.146 1313.94 541.479 1309.74 540.442 1306.39C539.405 1303.06 530.023 1309.61 527.817 1309.48C525.611 1309.36 530.813 1306.88 528.475 1307.01C512.477 1307.59 517.316 1301.42 524.048 1296.88C515.127 1302.17 498.568 1293.2 511.028 1284.51C454.094 1264.64 516.015 1241.18 574.695 1228.63C579.27 1227.65 583.961 1227.29 588.636 1227.55C624.815 1229.59 575.04 1241.38 603.697 1296.51L603.68 1296.5ZM539.783 1105.91C542.121 1159.95 570.942 1116.74 580.176 1213.75C560.786 1217.78 545.248 1223.67 532.59 1229.61C523.439 1233.9 515.801 1238.23 509.333 1241.89C506.485 1243.5 503.868 1244.99 501.448 1246.3C497.547 1248.39 494.173 1250.02 491.178 1250.9C477.927 1254.81 472.232 1244.58 463.262 1199.13C458.966 1172.38 464.035 1151.92 441.387 1138.56C420.746 1124.65 376.667 1069.13 381.868 1053.3C390.954 1045.6 457.122 975.547 498.486 978.532C504.098 978.93 509.25 980.671 513.744 984.103C514.024 985.463 514.567 987.768 515.291 990.819C520.476 1012.69 535.421 1073.31 539.783 1105.91Z" fill="black"/>
<path d="M412.91 502.282C412.943 512.662 394.788 517.172 385.39 514.353C376.814 510.971 366.839 521.782 358.379 516.841C350.709 513.723 320.373 524.684 310.975 518.399C328.488 532.875 418.375 526.491 412.91 502.282Z" fill="black"/>
<path d="M308.72 515.746C309.197 516.857 309.971 517.719 310.975 518.383C309.987 517.57 309.214 516.691 308.72 515.746Z" fill="black"/>
<path d="M301.938 347.065C294.416 346.368 277.924 342.604 251.917 325.277C220.808 304.55 191.098 319.208 179.231 331.71C178.046 332.954 179.593 334.877 181.041 333.965C192.069 327.067 214.652 315.461 230.454 324.199C251.061 335.607 274.302 365.719 302.498 349.801C303.749 349.104 303.338 347.197 301.922 347.065H301.938Z" fill="black"/>
<path d="M382.032 332.489C411.232 346.484 432.415 314.863 452.216 302.079C467.392 292.28 490.699 302.344 502.172 308.48C503.686 309.292 505.102 307.269 503.834 306.108C491.177 294.435 460.545 281.817 430.885 304.6C406.096 323.651 389.9 328.51 382.427 329.72C381.011 329.952 380.732 331.876 382.032 332.489Z" fill="black"/>
<path d="M497.58 329.969C494.288 336.85 486.535 341.642 480.889 344.362C485.729 332.871 486.074 319.556 483.292 324.879C480.412 330.367 473.515 333.783 469.417 335.408C468.248 325.359 464.709 317.467 464.314 322.491C463.936 327.465 460.611 332.274 457.714 335.59C442.061 332.539 422.836 338.26 407.709 352.006C402.442 356.798 398.146 362.12 394.887 367.675C390.426 375.269 387.875 383.295 387.414 390.939C388.599 382.764 392.467 374.457 398.771 367.294C400.072 365.818 401.438 364.359 402.952 362.999C412.005 354.791 423.05 350.298 433.567 349.668C431.708 350.878 429.913 352.238 428.218 353.78C424.432 357.212 421.486 361.142 419.379 365.287C413.305 377.193 414.293 390.872 423.083 399.859C432.909 409.924 449.402 410.936 463.113 403.358C460.627 407.47 457.451 411.367 453.583 414.866C446.307 421.465 437.732 425.677 429.173 427.385C441.304 425.975 454.109 420.288 464.841 410.521C476.742 399.71 483.655 386.163 484.988 373.445C489.317 369.615 492.576 363.911 494.962 357.842C501.382 341.443 501.234 322.325 497.58 329.969Z" fill="black"/>
<path d="M296.968 391.701C295.272 386.976 292.688 382.366 289.297 378.055C283.734 370.958 276.031 364.657 266.599 360.097C248.592 351.375 228.972 351.177 214.85 358.124C212.117 355.819 209.517 352.868 208.364 349.469C206.751 344.693 205.27 353.216 206.587 363.248C202.225 362.701 194.686 361.092 190.555 356.499C186.67 352.171 189.946 364.143 197.04 373.943C191.049 373.23 180.103 371.058 174.194 364.458C168.795 358.456 173.289 374.904 183.033 388.518C187.279 394.454 192.53 399.859 198.406 402.612C203.229 414.434 213.648 425.478 228.1 432.475C241.136 438.792 255.012 440.633 267.044 438.544C258.353 439.323 248.954 437.715 240.132 433.453C238.387 432.608 236.741 431.662 235.145 430.651C217.664 420.752 209.303 401.385 215.195 385.367C215.623 384.207 216.117 383.046 216.71 381.918C221.68 372.301 231.244 366.415 242.173 364.989C246.025 364.193 250.09 363.894 254.221 364.11C245.794 366.962 239.49 374.191 236.774 383.228C235.227 388.402 234.815 394.139 235.902 400.025C239.144 417.502 254.09 429.358 269.282 426.489C284.475 423.637 294.169 407.155 290.927 389.678C290.153 385.533 288.705 381.703 286.779 378.32L287.207 378.27C291.421 382.283 294.746 386.86 296.951 391.718L296.968 391.701Z" fill="black"/>
<path d="M351.071 473.414C352.371 473.033 353.458 472.502 354.248 471.889L350.166 466.947C349.178 466.98 348.141 467.146 347.121 467.445C343.648 468.44 341.705 470.579 342.808 472.237C343.895 473.878 347.598 474.409 351.071 473.414Z" fill="black"/>
<path d="M379.53 469.202C379.909 467.428 377.16 465.703 373.407 465.355C372.469 465.272 371.547 465.272 370.707 465.355L367.613 470.512C368.716 471.159 370.263 471.623 372.057 471.789C375.81 472.137 379.168 470.96 379.53 469.185V469.202Z" fill="black"/>
</g>
<defs>
<clipPath id="clip0_152_217">
<rect width="732" height="1422" fill="white"/>
</clipPath>
</defs>
</svg>
