<svg width="905" height="804" viewBox="0 0 905 804" fill="none" xmlns="http://www.w3.org/2000/svg">
<g clip-path="url(#clip0_219_2)">
<path d="M498.284 574.967C474.839 535.305 465.872 481.47 511.449 454.948C511.449 454.948 503.277 412.669 433.202 453.898C433.202 453.898 398.423 475.167 363.126 464.403C363.126 464.403 412.124 463.749 454.02 424.362C495.917 384.976 516.857 336.514 567.841 350.705C618.825 364.878 612.761 357.921 612.761 357.921C612.761 357.921 606.576 355.423 627.515 338.098C648.455 320.773 699.836 269.952 638.97 171.856C578.103 73.7607 533.062 -29.8285 482.873 7.99063C432.683 45.8097 428.33 103.313 428.33 103.313C428.33 103.313 373.199 107.843 307.702 133.348C307.702 133.348 205.319 66.0281 169.746 88.4681C134.173 110.925 154.473 246.702 150.119 273.482C145.765 300.262 146.958 397.961 246.542 449.179C246.542 449.179 205.112 549.444 220.056 633.142C239.026 739.366 187.524 732.667 162.628 706.8C138.872 682.121 55.4071 553.164 73.5824 457.841C91.7578 362.519 -22.1836 393.639 3.90458 514.966C28.7488 630.576 107.67 758.104 225.481 759.998C236.78 760.187 247.544 764.631 255.733 772.38C280.785 796.112 337.367 836.893 367.342 756.45C367.342 756.45 373.925 733.08 381.561 729.929C389.197 726.777 438.73 738.591 449.805 735.181C449.805 735.181 451.118 761.445 469.034 777.461C486.95 793.477 537.796 821.842 558.338 737.541C578.881 653.24 564.921 626.46 564.921 626.46C564.921 626.46 521.711 614.646 498.267 574.984L498.284 574.967ZM624.233 233.751C625.235 231.65 627.74 230.772 629.83 231.754L643.168 238.057C645.276 239.056 646.157 241.553 645.172 243.637C644.17 245.738 641.665 246.616 639.575 245.634L626.237 239.331C624.146 238.332 623.248 235.835 624.233 233.751ZM617.27 250.766C618.773 249.01 621.434 248.786 623.196 250.301L631.938 257.724C633.7 259.222 633.925 261.874 632.405 263.631C630.902 265.388 628.241 265.612 626.479 264.096L617.736 256.673C615.974 255.175 615.75 252.523 617.27 250.766ZM553.466 171.443C583.442 171.443 607.733 196.483 607.733 227.379C607.733 258.275 583.442 283.316 553.466 283.316C523.491 283.316 499.2 258.275 499.2 227.379C499.2 196.483 523.491 171.443 553.466 171.443ZM457.372 291.134C461.328 291.462 460.603 298.557 465.803 299.539C471.004 300.52 470.278 283.591 470.278 283.591C470.278 280.422 469.362 278.769 466.771 278.407C461.259 278.58 456.629 276.479 455.092 272.569C452.846 266.903 457.942 259.601 466.477 256.243C475.012 252.885 483.737 254.762 485.983 260.428C486.743 262.357 486.639 264.458 485.862 266.559C485.827 266.714 485.827 266.886 485.758 267.041C485.188 268.453 484.48 269.435 483.771 270.193C482.666 271.588 481.266 272.914 479.607 274.068C479.193 274.825 478.951 275.79 478.985 277.219C479.124 283.057 488.211 291.014 490.768 291.995C493.343 292.977 492.686 283.591 494.397 279.975C496.107 276.358 502.569 280.698 501.238 290.342C499.925 299.986 492.876 300.52 487.14 299.866C481.853 299.263 478.536 291.978 478.053 290.842C477.966 291.823 477.776 293.787 477.396 297.627C476.273 308.528 465.147 312.145 457.234 303.792C449.321 295.44 453.416 290.79 457.372 291.117V291.134ZM277.899 357.748L268.743 373.558C267.257 376.141 263.94 377.019 261.365 375.521C258.774 374.04 257.893 370.734 259.396 368.167L268.553 352.358C270.038 349.775 273.356 348.896 275.93 350.395C278.521 351.876 279.402 355.182 277.899 357.748ZM301.206 371.56C301.206 374.54 298.787 376.951 295.798 376.951C292.809 376.951 290.391 374.54 290.391 371.56V356.853C290.391 353.873 292.809 351.462 295.798 351.462C298.787 351.462 301.206 353.873 301.206 356.853V371.56ZM319.64 284.504C319.64 252.024 343.932 225.674 373.907 225.674C403.883 225.674 428.174 252.006 428.174 284.504C428.174 317.001 403.883 343.334 373.907 343.334C343.932 343.334 319.64 317.001 319.64 284.504Z" fill="black"/>
<path d="M627.377 369.081C627.377 369.081 619.378 384.408 590.715 367.462C577.239 359.488 561.155 356.819 545.934 360.573C529.434 364.638 508.063 374.368 485.361 396.395C435.828 444.461 442.376 441.498 442.376 441.498C442.376 441.498 469.414 423.777 484.825 426.929C500.236 430.08 515.854 458.049 528.294 451.745C540.751 445.442 544.69 448.198 548.646 410.585C548.646 410.585 546.469 394.035 582.232 384.391C582.232 384.391 586.966 385.183 589.748 395.223C592.512 405.264 601.012 400.545 601.807 398.771C602.602 396.997 630.003 440.258 661.343 470.982C692.701 501.706 732.213 499.605 732.213 499.605C732.213 499.605 724.318 482.538 719.048 482.004C719.048 482.004 736.17 484.105 738.018 514.037C739.867 543.968 738.813 577.861 749.87 563.928C760.928 550.013 750.389 528.469 751.978 515.346C753.568 502.223 752.514 492.492 733.803 480.161C715.092 467.813 720.102 463.353 720.102 463.353C720.102 463.353 745.137 461.786 738.537 445.752C731.954 429.736 714.038 407.416 715.887 400.063C717.735 392.709 729.587 364.345 682.421 372.232C682.421 372.232 654.225 349.379 627.36 369.081H627.377ZM626.98 396.136C617.633 396.791 620.656 412.945 620.656 412.945C602.084 394.173 619.343 379.724 624.872 380.378C630.4 381.033 626.98 396.136 626.98 396.136ZM643.306 400.338C643.306 400.338 631.454 389.971 632.111 376.968C632.767 363.966 647.384 362.399 651.738 365.412C651.738 365.412 629.347 362.261 643.306 400.338ZM742.891 555.3C738.399 548.945 742.701 539.732 742.701 539.732C745.914 547.602 742.891 555.3 742.891 555.3ZM739.625 490.787C746.985 494.094 745.102 500.397 745.102 500.397C738.433 495.816 739.625 490.787 739.625 490.787ZM710.876 378.277C694.273 371.578 683.613 390.746 683.613 390.746C689.401 359.764 710.876 378.277 710.876 378.277Z" fill="black"/>
<path d="M710.894 378.26C710.894 378.26 689.419 359.747 683.631 390.729C683.631 390.729 694.308 371.561 710.894 378.26Z" fill="white"/>
<path d="M632.111 376.951C631.454 389.954 643.306 400.321 643.306 400.321C629.347 362.244 651.738 365.395 651.738 365.395C647.384 362.382 632.768 363.949 632.111 376.951Z" fill="white"/>
<path d="M624.872 380.361C619.343 379.707 602.084 394.156 620.656 412.928C620.656 412.928 617.633 396.774 626.98 396.119C626.98 396.119 630.401 381.016 624.872 380.361Z" fill="white"/>
<path d="M745.119 500.379C745.119 500.379 747.002 494.076 739.642 490.77C739.642 490.77 738.45 495.798 745.119 500.379Z" fill="white"/>
<path d="M742.891 555.282C742.891 555.282 745.897 547.601 742.701 539.714C742.701 539.714 738.399 548.927 742.891 555.282Z" fill="white"/>
<path d="M699.716 505.46C685.808 504.237 496.954 495.006 484.048 517.98C508.028 605.432 566.51 620.691 597.35 623.291C622.436 623.894 702.273 525.627 699.733 505.46H699.716Z" fill="black"/>
<path d="M770.464 570.902C773.142 570.902 773.522 567.234 773.522 562.24C773.522 557.246 771.449 552.785 768.789 552.785C766.128 552.785 762.051 559.002 762.051 564.014C762.051 569.025 767.804 570.92 770.482 570.92L770.464 570.902Z" fill="black"/>
<path d="M747.849 578.498C744.774 578.498 740.109 595.307 740.109 608.843C740.109 622.379 746.709 627.494 749.784 627.494C752.859 627.494 753.309 617.592 753.309 604.055C753.309 590.519 750.924 578.498 747.866 578.498H747.849Z" fill="black"/>
<path d="M765.575 592.464C762.638 595.891 767.199 608.773 774.473 614.956C781.729 621.138 790.782 616.127 793.719 612.7C796.656 609.273 791.767 604.261 784.494 598.078C777.237 591.896 768.512 589.037 765.575 592.464Z" fill="black"/>
<path d="M773.315 641.271C771.76 641.271 769.393 644.888 769.393 647.799C769.393 650.709 772.728 651.811 774.283 651.811C775.838 651.811 776.062 649.676 776.062 646.782C776.062 643.889 774.853 641.289 773.315 641.289V641.271Z" fill="black"/>
<path d="M844.272 743.827C844.272 743.827 875.681 745.015 888.725 726.295C901.769 707.592 904.136 679.418 870.947 673.304C870.947 673.304 864.589 675.078 864.468 667.293C864.468 667.293 865.108 664.831 860.028 664.297C854.949 663.763 689.159 664.297 689.159 664.297C689.159 664.297 682.646 663.453 682.646 674.096C682.646 684.154 681.782 733.942 723.886 765.492C753.93 765.492 788.847 765.492 819.946 765.492C827.634 760.343 838.605 752.128 844.272 743.827ZM857.126 720.715C859.354 714.188 863.898 699.963 863.708 693.006C863.449 683.809 882.851 691.387 881.486 703.769C879.516 721.732 867.319 723.781 859.613 724.056C857.834 724.125 856.555 722.386 857.126 720.715ZM687.984 672.029C678.862 662.695 753.499 669.911 759.183 669.239C744.722 676.645 684.287 673.046 687.984 672.029Z" fill="black"/>
<path d="M859.596 724.074C867.302 723.798 879.499 721.749 881.469 703.786C882.834 691.404 863.415 683.826 863.691 693.023C863.898 699.98 859.337 714.206 857.108 720.733C856.538 722.403 857.817 724.142 859.596 724.074Z" fill="white"/>
<path d="M687.967 672.047C684.27 673.063 744.687 676.662 759.166 669.257C753.481 669.928 678.862 662.712 687.967 672.047Z" fill="white"/>
<path d="M428.191 284.521C428.191 252.041 403.9 225.691 373.925 225.691C343.949 225.691 319.658 252.024 319.658 284.521C319.658 317.019 343.949 343.351 373.925 343.351C403.9 343.351 428.191 317.019 428.191 284.521ZM385.155 242.603C395.227 240.037 407.926 255.64 413.523 277.46C419.121 299.28 415.493 319.051 405.438 321.617C395.382 324.183 382.667 308.58 377.069 286.76C371.471 264.94 375.099 245.169 385.155 242.603Z" fill="#FFED00"/>
<path d="M405.438 321.6C415.51 319.034 419.121 299.264 413.523 277.444C407.926 255.624 395.227 240.021 385.155 242.587C375.082 245.153 371.471 264.923 377.069 286.743C382.667 308.563 395.365 324.166 405.438 321.6Z" fill="black"/>
<path d="M553.466 283.333C583.442 283.333 607.733 258.292 607.733 227.396C607.733 196.5 583.442 171.46 553.466 171.46C523.491 171.46 499.199 196.5 499.199 227.396C499.199 258.292 523.491 283.333 553.466 283.333ZM568.152 195.037C576.41 192.936 586.845 205.749 591.441 223.659C596.037 241.57 593.065 257.81 584.807 259.911C576.548 262.012 566.113 249.199 561.517 231.289C556.922 213.378 559.893 197.138 568.152 195.037Z" fill="#FFED00"/>
<path d="M295.816 351.479C292.827 351.479 290.408 353.891 290.408 356.87V371.577C290.408 374.557 292.827 376.968 295.816 376.968C298.804 376.968 301.223 374.557 301.223 371.577V356.87C301.223 353.891 298.804 351.479 295.816 351.479Z" fill="white"/>
<path d="M626.496 264.114C628.258 265.612 630.919 265.406 632.422 263.649C633.925 261.892 633.718 259.24 631.955 257.742L623.213 250.319C621.451 248.821 618.79 249.028 617.287 250.784C615.784 252.541 615.991 255.193 617.754 256.692L626.496 264.114Z" fill="white"/>
<path d="M626.237 239.349L639.575 245.652C641.682 246.651 644.188 245.755 645.172 243.654C646.174 241.553 645.276 239.056 643.168 238.074L629.83 231.771C627.74 230.772 625.217 231.668 624.233 233.769C623.231 235.853 624.129 238.367 626.237 239.349Z" fill="white"/>
<path d="M275.93 350.395C273.338 348.914 270.038 349.793 268.553 352.359L259.396 368.168C257.91 370.752 258.791 374.041 261.365 375.522C263.957 377.003 267.257 376.125 268.743 373.559L277.899 357.749C279.385 355.166 278.504 351.876 275.93 350.395Z" fill="white"/>
<path d="M477.983 290.687C477.983 290.687 478.018 290.756 478.053 290.859C478.208 289.068 477.983 290.687 477.983 290.687Z" fill="white"/>
<path d="M485.758 267.042C485.827 266.887 485.827 266.715 485.862 266.56C485.395 267.8 484.687 269.022 483.771 270.211C484.497 269.453 485.188 268.471 485.758 267.059V267.042Z" fill="white"/>
<path d="M479.608 274.085C481.266 272.931 482.666 271.605 483.771 270.21C482.199 271.88 480.506 272.466 479.608 274.085Z" fill="white"/>
<path d="M494.397 279.992C492.686 283.609 493.343 292.994 490.768 292.013C488.194 291.031 479.106 283.092 478.986 277.237C478.951 275.824 479.193 274.843 479.608 274.085C480.506 272.466 482.199 271.881 483.771 270.21C484.704 269.039 485.413 267.799 485.862 266.559C486.639 264.475 486.743 262.357 485.983 260.428C483.737 254.762 475.012 252.902 466.477 256.243C457.942 259.601 452.846 266.903 455.092 272.569C456.629 276.462 461.259 278.563 466.771 278.408C469.362 278.769 470.278 280.405 470.278 283.591C470.278 283.591 471.004 300.538 465.803 299.539C460.603 298.557 461.329 291.462 457.372 291.135C453.416 290.807 449.338 295.474 457.234 303.81C465.129 312.145 476.273 308.529 477.396 297.644C477.793 293.804 477.984 291.823 478.053 290.859C478.018 290.756 477.983 290.687 477.983 290.687C477.983 290.687 478.208 289.051 478.053 290.859C478.536 291.996 481.854 299.28 487.14 299.883C492.876 300.538 499.925 300.021 501.238 290.36C502.551 280.715 496.107 276.375 494.397 279.992Z" fill="white"/>
<path d="M584.807 259.912C593.065 257.811 596.054 241.57 591.441 223.66C586.845 205.749 576.41 192.936 568.152 195.037C559.893 197.138 556.905 213.378 561.517 231.289C566.113 249.2 576.548 262.013 584.807 259.912Z" fill="black"/>
<path d="M904.931 765.492C904.931 765.492 866.749 765.492 819.946 765.492C815.056 768.764 811.48 770.814 811.48 770.814H731.661C728.914 769.109 726.339 767.335 723.903 765.492C682.335 765.492 650.062 765.492 650.062 765.492C644.568 794.786 910.425 794.804 904.948 765.492H904.931Z" fill="black"/>
<path d="M811.463 770.814C811.463 770.814 815.039 768.764 819.928 765.492C788.813 765.492 753.913 765.492 723.869 765.492C726.322 767.335 728.879 769.109 731.626 770.814H811.445H811.463Z" fill="black"/>
</g>
<defs>
<clipPath id="clip0_219_2">
<rect width="905" height="804" fill="white"/>
</clipPath>
</defs>
</svg>
