<svg width="828" height="938" viewBox="0 0 828 938" fill="none" xmlns="http://www.w3.org/2000/svg">
<g clip-path="url(#clip0_638_76)">
<path d="M387.54 911.103C385.192 924.307 360.769 843.166 361.247 811.717C377.279 839.073 387.951 879.654 387.54 911.103Z" fill="black"/>
<path d="M188.507 905.161C185.52 869.773 193.82 823.315 209.122 790.986C212.178 826.374 203.74 872.788 188.507 905.161Z" fill="black"/>
<path d="M224.948 304.512C224.948 304.512 239.52 279.292 257.466 279.137C275.413 278.983 342.776 303.148 348.454 310.696C354.133 318.245 280.932 491.795 280.932 491.795L201.665 482.882L224.948 304.512Z" fill="white"/>
<path d="M285.31 498.926L194.026 488.648L218.335 302.399L218.973 301.277C220.661 298.35 236.099 272.711 257.398 272.513C257.466 272.513 257.535 272.513 257.603 272.513C275.846 272.513 346.014 296.193 353.996 306.779C356.937 310.696 359.742 314.393 323.21 406.406C305.788 450.289 287.454 493.82 287.271 494.26L285.31 498.904V498.926ZM209.327 477.072L276.553 484.643C307.567 410.896 339.606 329.336 341.818 313.777C331.169 306.735 274.022 285.718 257.717 285.718C257.649 285.718 257.603 285.718 257.535 285.718C246.771 285.828 235.552 300.265 231.561 306.647L209.327 477.072Z" fill="black"/>
<path d="M97.7014 105.476C97.7014 105.476 40.9194 98.5218 33.7361 95.947C26.5529 93.3721 8.67453 92.0957 7.87639 94.6705C7.07825 97.2454 8.94818 107.699 14.5352 109.504C20.1221 111.308 57.4295 127.396 67.8281 133.844C78.2268 140.292 99.0469 170.816 128.373 179.311C157.699 187.806 154.757 237.961 143.56 264.194C132.364 290.427 127.917 308.275 127.21 329.886C126.503 351.497 105.181 372.25 90.2445 394.104C75.3079 415.979 76.6533 414.174 71.3172 432.177C65.981 450.179 45.4574 472.318 36.1306 491.09C26.8037 509.863 18.7995 603.769 52.6635 659.337C86.5274 714.906 143.56 798.248 192.087 814.71C240.591 831.171 250.739 843.011 266.725 847.127C282.71 851.242 325.377 861.784 342.434 847.127C342.434 847.127 370.688 854.323 385.351 830.665C385.351 830.665 409.866 820.366 419.74 822.435C429.614 824.503 488.517 835.287 516.497 799.547C516.497 799.547 516.224 794.925 490.364 788.477C464.504 782.029 461.311 763.256 446.124 735.747C430.937 708.238 416.798 687.133 369.89 671.684C369.89 671.684 348.546 651.459 332.628 640.939C331.557 640.235 332.286 638.628 333.541 638.914C344.965 641.445 365.238 643.36 379.445 630.354C380.927 629.011 382.866 628.241 384.895 628.197C400.334 627.889 465.12 623.421 476.499 571.616C479.121 559.71 478.095 571.352 478.095 571.352C478.095 571.352 536.816 553.746 537.751 524.674C537.819 522.803 539.643 521.439 541.536 521.857C555.127 524.74 600.028 532.156 625.227 510.545C626.458 509.489 627.986 508.873 629.628 508.873C641.144 508.873 688.941 508.168 706.66 496.46C708.074 495.514 709.738 495.052 711.472 495.162C729.327 496.328 826.974 501.236 820.908 468.731C820.908 468.731 771.332 459.994 711.882 413.932C652.432 367.893 543.406 235.408 444.779 253.41C346.151 271.412 303.325 299.89 252.495 435.72C252.495 435.72 244.445 455.108 246.862 462.679C246.862 462.679 240.591 414.967 246.999 383.056C253.407 351.167 233.134 322.514 233.841 305.018C234.548 287.522 216.966 236.42 204.88 207.943C192.794 179.465 189.784 173.985 197.059 149.293C204.333 124.601 181.506 76.1183 132.911 89.9609C132.911 89.9609 105.022 94.7586 97.7242 105.476H97.7014Z" fill="white"/>
<path d="M314.545 861.322C298.149 861.322 279.837 857.339 264.946 853.509C257.626 851.639 251.537 848.382 243.83 844.266C232.952 838.478 218.061 830.534 189.807 820.938C141.234 804.455 85.2048 725.778 46.7572 662.683C12.1635 605.882 19.6204 509.027 29.9506 488.23C34.0554 479.955 40.1896 471.152 46.0959 462.635C53.8721 451.433 61.9219 439.835 64.7268 430.372L65.9582 426.147C70.1769 411.732 70.6786 410.72 84.5207 390.473C88.4201 384.773 92.7301 379.139 96.926 373.681C108.739 358.276 119.912 343.729 120.369 329.666C121.098 307.175 125.682 288.754 137.221 261.685C144.997 243.463 148.075 214.501 139.729 197.6C136.582 191.217 132.227 187.3 126.389 185.627C104.292 179.223 86.8239 161.463 75.2622 149.733C70.8154 145.2 66.5967 140.93 64.1339 139.39C54.2141 133.25 17.1576 117.294 12.3687 115.754C2.42619 112.563 -0.26468 97.8618 1.3316 92.7781C1.94731 90.7754 3.45237 89.1249 5.52754 88.1345C11.8214 85.1195 29.6086 87.4523 36.1305 89.7851C40.0072 91.1716 68.3754 95.1989 94.8965 98.5C105.044 88.7287 126.001 84.5033 131.337 83.557C152.454 77.659 171.951 81.9505 186.295 95.6611C201.277 109.988 208.757 133.844 203.649 151.142C197.287 172.731 199.202 177.243 209.92 202.397L211.22 205.478C220.797 228.058 241.526 284.551 240.683 305.304C240.455 310.828 243.077 318.574 246.087 327.553C251.4 343.333 257.991 362.963 253.704 384.333C251.492 395.314 250.876 408.387 250.967 420.645C300.315 294.388 345.627 264.788 443.501 246.918C523.566 232.305 608.238 310.762 670.037 368.047C687.778 384.487 703.102 398.703 716.146 408.783C773.339 453.084 821.638 462.151 822.139 462.239L826.791 463.075L827.635 467.565C828.867 474.167 827.065 480.285 822.436 485.281C803.691 505.484 738.243 503.547 710.993 501.764C710.833 501.764 710.651 501.852 710.514 501.918C692.042 514.133 648.054 515.475 629.81 515.475C604.338 537.284 561.786 532.377 544.136 529.12C539.05 557.069 493.716 573.311 482.177 577.03C467.24 630.376 398.874 634.513 385.032 634.799C384.69 634.799 384.371 634.931 384.143 635.151C374.565 643.91 362.821 646.881 352.217 647.278C361.84 655.112 370.506 663.079 373.539 665.918C421.108 681.917 436.159 703.705 452.144 732.622C455.428 738.564 458.187 744.154 460.627 749.106C469.749 767.592 474.766 777.76 492.074 782.073C519.12 788.807 523.042 794.485 523.316 799.173L523.452 801.594L521.947 803.53C491.846 841.977 430.321 831.414 418.28 828.905C413.811 827.959 400.562 831.722 389.98 835.947C377.347 854.28 356.276 856.15 344.122 854.236C336.368 859.429 325.924 861.344 314.545 861.344V861.322ZM16.8839 103.298C23.6339 105.542 60.9413 121.74 71.5224 128.276C75.399 130.675 79.7318 135.076 85.2048 140.644C96.4016 152.022 111.726 167.603 130.334 172.995C139.82 175.746 147.346 182.282 152.112 191.944C162.442 212.895 158.679 246.126 149.9 266.725C139.045 292.188 134.735 309.353 134.074 330.106C133.481 348.284 120.505 365.208 107.963 381.56C103.904 386.864 99.6853 392.343 95.9911 397.757C87.2799 410.507 81.6778 421.166 79.1845 429.734L77.9303 434.003C74.5325 445.469 65.867 457.948 57.4979 469.986C51.8653 478.106 46.0275 486.513 42.3332 493.952C34.6711 509.379 25.3214 601.37 58.5925 655.993C111.293 742.504 159.523 796.664 194.368 808.482C223.694 818.429 239.178 826.682 250.465 832.712C257.626 836.52 262.802 839.292 268.503 840.745C313.701 852.387 331.192 847.963 337.896 842.197L340.633 839.843L344.19 840.745C345.125 840.965 367.724 846.269 379.491 827.276L380.608 825.45L382.615 824.614C387.039 822.743 409.752 813.61 421.176 815.987C431.187 818.077 480.056 826.572 506.577 800.559C503.385 799.151 497.912 797.192 488.653 794.881C465.142 789.027 457.708 773.93 448.267 754.806C445.782 749.766 443.205 744.528 440.081 738.851C424.962 711.473 411.758 692.459 367.678 677.934L366.196 677.45L365.078 676.393C364.873 676.195 343.962 656.433 328.752 646.397C325.582 644.307 324.396 640.323 325.924 636.912C327.475 633.523 331.306 631.652 335.068 632.489C344.714 634.623 362.73 636.56 374.747 625.578C377.461 623.091 381.018 621.683 384.758 621.617C402.135 621.265 459.67 616.489 469.817 570.274C470.935 565.168 472.349 558.786 479.099 559.754C481.425 560.084 482.884 561.096 483.796 562.461C501.492 555.881 530.385 541.598 530.932 524.52C531.023 521.659 532.414 519.018 534.763 517.258C537.112 515.497 540.122 514.837 543.041 515.453C555.492 518.094 597.907 525.202 620.711 505.638C623.22 503.481 626.39 502.293 629.651 502.293C629.673 502.293 629.696 502.293 629.719 502.293C655.602 502.293 690.241 499.344 702.806 491.047C705.542 489.242 708.689 488.384 711.928 488.604C753.75 491.333 800.977 488.648 812.265 476.478C813.018 475.664 813.565 474.827 813.907 473.969C798.879 470.228 756.646 457.089 707.618 419.104C694.118 408.651 678.588 394.258 660.596 377.576C600.94 322.294 519.211 246.566 446.078 259.903C349.047 277.619 308.388 305.832 258.971 437.965L258.88 438.185C256.098 444.875 253.544 453.7 253.27 458.366C253.498 460.544 253.681 461.799 253.681 461.865L240.341 464.616C239.862 463.119 239.656 461.425 239.634 459.598C238.265 447.318 234.776 409.355 240.295 381.824C243.898 363.8 238.151 346.722 233.089 331.647C229.668 321.457 226.704 312.676 227.023 304.798C227.684 288.776 210.604 238.863 198.564 210.496L197.264 207.415C186.181 181.358 182.829 173.501 190.491 147.533C193.798 136.309 189.533 117.338 176.672 105.036C169.101 97.7958 155.692 90.4013 134.849 96.3213L134.119 96.4974C123.721 98.302 107.347 103.408 103.448 109.13L101.099 112.585L96.8576 112.057C87.2571 110.89 38.9126 104.882 31.3645 102.175C27.5562 100.811 20.0081 99.9745 15.1736 99.8865C15.6297 101.383 16.291 102.814 16.9067 103.32L16.8839 103.298Z" fill="black"/>
<path d="M264.216 545.471C281.182 554.098 306.313 577.448 305.081 597.255C300.611 587.043 292.881 579.429 285.766 571C279.221 563.495 269.986 553.482 264.193 545.471H264.216Z" fill="black"/>
<path d="M86.1625 474.806C68.8771 499.278 66.8703 530.551 69.6752 559.204C70.0857 565.894 71.3855 573.047 71.9328 579.759C63.5637 560.481 59.8239 538.693 63.2901 517.918C65.8669 501.897 72.7537 485.171 86.1625 474.806Z" fill="black"/>
<path d="M262.802 772.852C294.683 794.837 323.735 842.748 352.924 843.43C347.839 843.298 342.753 842.418 337.896 840.943C306.905 830.6 277.055 800.978 262.802 772.852Z" fill="black"/>
<path d="M352.901 844.552C347.839 844.42 342.685 843.584 337.577 841.999C308.525 832.316 277.374 804.081 261.799 773.336L259.815 769.419L263.487 771.95C275.641 780.335 287.408 792.483 298.787 804.235C317.555 823.623 335.296 841.911 352.97 842.33L352.924 844.53L352.901 844.552ZM266.086 776.615C281.114 803.575 307.84 827.915 333.609 838.214C321.591 831.018 309.574 818.628 297.1 805.753C287.043 795.366 276.667 784.67 266.063 776.615H266.086Z" fill="black"/>
<path d="M383.527 716.975C388.407 736.188 391.554 755.752 392.763 775.537C394.04 794.881 393.766 817.967 378.692 832.756L378.145 832.36C382.546 823.447 384.006 814.05 385.1 804.543C386.081 794.97 387.198 785.33 387.29 775.647C387.426 756.104 385.625 736.474 382.843 717.085L383.504 716.953L383.527 716.975Z" fill="black"/>
<path d="M148.714 125.965C153.424 125.965 157.243 122.28 157.243 117.735C157.243 113.189 153.424 109.504 148.714 109.504C144.004 109.504 140.185 113.189 140.185 117.735C140.185 122.28 144.004 125.965 148.714 125.965Z" fill="black"/>
<path d="M109.149 175.659L107.598 169.232C108.123 169.122 160.686 156.754 184.539 108.096L190.719 110.913C165.429 162.52 111.429 175.152 109.149 175.659Z" fill="black"/>
<path d="M198.928 136.397L157.927 87.2326L252.997 3.6703C256.166 0.897361 261.092 1.24948 263.783 4.48457L305.241 54.1994C308 57.5005 307.293 62.3421 303.713 64.807L198.951 136.419L198.928 136.397Z" fill="black"/>
<path d="M198.723 137.893L156.376 87.1222L252.221 2.85577C253.977 1.29324 256.258 0.544989 258.652 0.721048C261.024 0.897107 263.167 1.97547 264.672 3.78008L306.13 53.4949C307.658 55.3215 308.319 57.6323 307.977 59.9651C307.635 62.2979 306.358 64.3225 304.374 65.687L198.746 137.893H198.723ZM159.5 87.3423L199.156 134.9L303.029 63.8824C304.511 62.87 305.446 61.3735 305.697 59.657C305.948 57.9404 305.469 56.2458 304.329 54.8813L262.894 5.16655C261.799 3.8461 260.226 3.05384 258.492 2.92179C256.737 2.78975 255.072 3.33993 253.772 4.48432L159.523 87.3423H159.5Z" fill="black"/>
<path d="M187.102 115.636C188.937 114.211 177.803 97.9176 162.234 79.2434C146.665 60.5691 132.556 46.5857 130.721 48.0105C128.886 49.4353 140.02 65.7288 155.589 84.4031C171.158 103.077 185.267 117.061 187.102 115.636Z" fill="black"/>
<path d="M187.025 116.723C181.529 116.723 161.119 92.7785 154.711 85.0979C147.163 76.0529 140.413 67.2499 135.693 60.3616C127.848 48.8737 129.148 47.8393 130.015 47.1791C133.914 44.1641 156.353 70.441 163.126 78.5617C170.674 87.6068 177.424 96.4097 182.145 103.298C189.989 114.786 188.689 115.82 187.823 116.481C187.617 116.635 187.344 116.723 187.025 116.723ZM131.816 49.3138C133.002 52.9231 141.394 65.6213 156.49 83.7115C171.586 101.802 182.623 112.431 186.021 114.324C184.835 110.715 176.444 98.0163 161.347 79.9262C146.251 61.8361 135.214 51.2065 131.816 49.3138Z" fill="black"/>
<path d="M155.464 919.686C155.464 919.686 221.185 902.322 191.335 897.26C161.484 892.199 126.822 885.772 127.096 894.773C127.369 903.774 145.613 923.031 155.464 919.686Z" fill="black"/>
<path d="M361.247 935.795C361.247 935.795 413.514 898.361 383.618 903.202C353.722 908.022 318.832 913.106 322.184 921.512C325.536 929.919 353.084 942.133 361.247 935.817V935.795Z" fill="black"/>
<path d="M704.927 470.998C717.765 459.356 733.819 454.251 749.942 448.331C743.625 462.613 720.297 471.548 704.927 470.998Z" fill="#706F6F"/>
<path d="M664.837 442.235C677.676 430.593 693.73 425.487 709.852 419.567C703.536 433.85 680.207 442.785 664.837 442.235Z" fill="#706F6F"/>
<path d="M616.858 400.904C629.696 389.263 645.75 384.157 661.873 378.237C655.556 392.52 632.227 401.455 616.858 400.904Z" fill="#706F6F"/>
<path d="M579.664 361.489C592.503 349.848 608.557 344.742 624.679 338.822C618.363 353.105 595.034 362.04 579.664 361.489Z" fill="#706F6F"/>
<path d="M530.886 388.074C538.822 378.083 550.27 373.902 562.447 370.645C559.483 382.485 542.631 389.703 530.886 388.074Z" fill="#706F6F"/>
<path d="M570.611 426.719C578.547 416.728 589.995 412.547 602.172 409.29C599.207 421.13 582.355 428.348 570.611 426.719Z" fill="#706F6F"/>
<path d="M619.138 466.531C627.074 456.54 638.521 452.358 650.699 449.101C647.734 460.941 630.882 468.16 619.138 466.531Z" fill="#706F6F"/>
<path d="M476.134 349.935C484.07 339.944 495.517 335.762 507.695 332.505C504.73 344.345 487.878 351.564 476.134 349.935Z" fill="#706F6F"/>
<path d="M439.191 366.683C443.866 357.968 452.418 354.359 462.087 352.929C461.425 362.876 448.541 369.104 439.191 366.683Z" fill="#706F6F"/>
<path d="M448.541 336.467C453.216 327.752 461.767 324.143 471.436 322.712C470.775 332.66 457.891 338.888 448.541 336.467Z" fill="#706F6F"/>
<path d="M398.874 362.325C403.549 353.611 412.1 350.001 421.769 348.571C421.108 358.518 408.224 364.746 398.874 362.325Z" fill="#706F6F"/>
<path d="M509.337 464.704C514.011 455.989 522.563 452.38 532.232 450.95C531.571 460.897 518.686 467.125 509.337 464.704Z" fill="#706F6F"/>
<path d="M391.919 577.558C396.594 568.843 405.145 565.234 414.814 563.804C414.153 573.751 401.268 579.979 391.919 577.558Z" fill="#706F6F"/>
<path d="M365.398 563.496C370.073 554.781 378.624 551.172 388.293 549.741C387.632 559.689 374.747 565.917 365.398 563.496Z" fill="#706F6F"/>
<path d="M391.919 607.819C396.594 599.104 405.145 595.494 414.814 594.064C414.153 604.011 401.268 610.239 391.919 607.819Z" fill="#706F6F"/>
<path d="M288.092 522.254C290.464 515.079 296.78 512.68 304.078 514.067C304.42 522.012 294.751 526.193 288.092 522.254Z" fill="#706F6F"/>
<path d="M270.145 500.797C272.517 493.622 278.834 491.223 286.131 492.61C286.473 500.555 276.804 504.736 270.145 500.797Z" fill="#706F6F"/>
<path d="M235.62 522.958C238.379 516.158 244.878 514.353 251.606 516.994C250.944 524.609 241.526 527.514 235.62 522.958Z" fill="#706F6F"/>
<path d="M219.908 500.731C222.667 493.93 229.167 492.126 235.894 494.767C235.232 502.381 225.814 505.286 219.908 500.731Z" fill="#706F6F"/>
<path d="M209.738 475.202C212.497 468.402 218.996 466.597 225.723 469.238C225.062 476.852 215.644 479.757 209.738 475.202Z" fill="#706F6F"/>
<path d="M213.569 446.328C218.585 439.858 227.069 438.956 233.91 443.357C229.759 450.532 219.84 451.588 213.569 446.328Z" fill="#706F6F"/>
<path d="M221.573 415.386C226.59 408.916 235.073 408.013 241.914 412.415C237.764 419.589 227.844 420.646 221.573 415.386Z" fill="#706F6F"/>
<path d="M197.401 418.005C200.547 411.975 207.389 411.402 211.835 416.508C209.213 422.89 201.437 423.528 197.401 418.005Z" fill="#706F6F"/>
<path d="M197.401 391.661C200.547 385.631 207.389 385.059 211.835 390.165C209.213 396.547 201.437 397.185 197.401 391.661Z" fill="#706F6F"/>
<path d="M109.673 457.97C112.82 451.94 119.662 451.368 124.108 456.473C121.486 462.856 113.71 463.494 109.673 457.97Z" fill="#706F6F"/>
<path d="M198.199 359.817C201.346 353.787 208.187 353.214 212.634 358.32C210.011 364.702 202.235 365.34 198.199 359.817Z" fill="#706F6F"/>
<path d="M197.401 359.817C200.547 353.787 207.389 353.214 211.835 358.32C209.213 364.702 201.437 365.34 197.401 359.817Z" fill="#706F6F"/>
<path d="M197.401 327.07C200.593 321.062 207.457 320.533 211.835 325.727C209.122 332.065 201.391 332.638 197.401 327.07Z" fill="#706F6F"/>
<path d="M166.592 305.084C169.785 299.076 176.649 298.548 181.027 303.742C178.314 310.08 170.583 310.652 166.592 305.084Z" fill="#706F6F"/>
<path d="M165.726 285.366C168.918 279.357 175.782 278.829 180.161 284.023C177.447 290.361 169.716 290.933 165.726 285.366Z" fill="#706F6F"/>
<path d="M152.157 260.563C155.35 254.555 162.214 254.027 166.592 259.221C163.879 265.559 156.148 266.131 152.157 260.563Z" fill="#706F6F"/>
<path d="M199.02 301.475C201.323 295.511 206.271 295.071 209.829 300.397C208.096 306.603 202.098 307.087 199.02 301.475Z" fill="#706F6F"/>
<path d="M165.726 331.537C168.029 325.573 172.977 325.133 176.535 330.459C174.802 336.665 168.804 337.149 165.726 331.537Z" fill="#706F6F"/>
<path d="M163.012 361.357C165.315 355.393 170.264 354.953 173.821 360.279C172.088 366.485 166.091 366.969 163.012 361.357Z" fill="#706F6F"/>
<path d="M156.559 388.603C158.862 382.639 163.81 382.198 167.368 387.524C165.635 393.73 159.637 394.214 156.559 388.603Z" fill="#706F6F"/>
<path d="M151.154 417.058C153.457 411.094 158.406 410.654 161.963 415.98C160.23 422.186 154.232 422.67 151.154 417.058Z" fill="#706F6F"/>
<path d="M193.615 280.194C195.918 274.23 200.867 273.79 204.424 279.115C202.691 285.322 196.694 285.806 193.615 280.194Z" fill="#706F6F"/>
<path d="M196.078 257.702C197.765 251.628 201.004 251.672 203.808 257.174C202.782 263.204 198.244 263.248 196.078 257.702Z" fill="#706F6F"/>
<path d="M96.9717 122.907C98.6592 116.833 101.897 116.877 104.702 122.379C103.676 128.409 99.1381 128.453 96.9717 122.907Z" fill="#706F6F"/>
<path d="M223.739 389.571C228.756 383.101 237.239 382.198 244.08 386.6C239.93 393.774 230.01 394.831 223.739 389.571Z" fill="#706F6F"/>
<path d="M100.826 388.735C106.709 382.705 116.081 382.551 122.239 388.317C116.469 394.391 106.891 394.479 100.826 388.735Z" fill="#706F6F"/>
<path d="M80.6439 416.222C91.7951 410.104 105.592 409.928 116.902 415.804C105.82 421.988 91.9091 422.076 80.6439 416.222Z" fill="#706F6F"/>
<path d="M60.9185 458.388C72.0696 452.27 85.866 452.094 97.1768 457.97C86.0941 464.154 72.1836 464.242 60.9185 458.388Z" fill="#706F6F"/>
<path d="M223.739 355.46C228.756 348.989 237.239 348.087 244.08 352.489C239.93 359.663 230.01 360.719 223.739 355.46Z" fill="#706F6F"/>
<path d="M130.95 332.506C136.673 326.3 145.818 325.815 152.431 331.009C147.118 337.611 137.243 338.074 130.95 332.506Z" fill="#706F6F"/>
<path d="M132.341 305.899C138.065 299.693 147.209 299.208 153.822 304.402C148.509 311.004 138.635 311.467 132.341 305.899Z" fill="#706F6F"/>
<path d="M137.882 284.683C143.606 278.477 152.75 277.993 159.363 283.187C154.05 289.789 144.176 290.251 137.882 284.683Z" fill="#706F6F"/>
<path d="M216.1 325.661C221.117 319.191 229.6 318.289 236.441 322.69C232.291 329.865 222.371 330.921 216.1 325.661Z" fill="#706F6F"/>
<path d="M212.862 300.397C217.878 293.926 226.362 293.024 233.203 297.426C229.052 304.6 219.133 305.656 212.862 300.397Z" fill="#706F6F"/>
<path d="M207.571 279.116C212.588 272.646 221.071 271.743 227.912 276.145C223.762 283.319 213.842 284.376 207.571 279.116Z" fill="#706F6F"/>
<path d="M207.571 256.492C210.832 250.264 217.742 249.34 223.055 253.917C220.706 260.695 212.269 261.818 207.571 256.492Z" fill="#706F6F"/>
<path d="M268.663 473.331C271.035 466.157 277.351 463.758 284.649 465.145C284.991 473.089 275.322 477.271 268.663 473.331Z" fill="#706F6F"/>
<path d="M313.838 448.947C316.209 441.773 322.526 439.374 329.823 440.76C330.165 448.705 320.497 452.886 313.838 448.947Z" fill="#706F6F"/>
<path d="M273.475 442.235C275.846 435.06 282.163 432.661 289.46 434.048C289.802 441.993 280.134 446.174 273.475 442.235Z" fill="#706F6F"/>
<path d="M281.456 413.383C283.828 406.209 290.144 403.81 297.442 405.196C297.784 413.141 288.115 417.322 281.456 413.383Z" fill="#706F6F"/>
<path d="M322.344 422.098C324.715 414.923 331.032 412.525 338.329 413.911C338.671 421.856 329.003 426.037 322.344 422.098Z" fill="#706F6F"/>
<path d="M291.741 387.546C294.112 380.372 300.429 377.973 307.726 379.359C308.068 387.304 298.399 391.485 291.741 387.546Z" fill="#706F6F"/>
<path d="M304.078 358.056C306.449 350.882 312.766 348.483 320.063 349.87C320.405 357.814 310.736 361.996 304.078 358.056Z" fill="#706F6F"/>
<path d="M318.011 331.185C320.383 324.011 326.699 321.612 333.997 322.999C334.339 330.943 324.67 335.125 318.011 331.185Z" fill="#706F6F"/>
<path d="M127.255 416.464C130.448 410.456 137.312 409.928 141.69 415.122C138.977 421.46 131.246 422.032 127.255 416.464Z" fill="#706F6F"/>
<path d="M130.676 389.417C133.869 383.409 140.733 382.881 145.111 388.074C142.397 394.412 134.667 394.985 130.676 389.417Z" fill="#706F6F"/>
<path d="M128.669 362.172C131.862 356.164 138.726 355.635 143.104 360.829C140.39 367.167 132.66 367.74 128.669 362.172Z" fill="#706F6F"/>
<path d="M34.9675 504.89C39.9616 496.901 50.0638 493.446 59.1398 496.681C54.1685 504.692 44.0435 508.081 34.9675 504.89Z" fill="#706F6F"/>
<path d="M32.6643 549.565C37.6584 541.576 47.7606 538.121 56.8366 541.356C51.8653 549.367 41.7403 552.756 32.6643 549.565Z" fill="#706F6F"/>
<path d="M34.9675 594.24C39.9616 586.251 50.0638 582.796 59.1398 586.031C54.1685 594.042 44.0435 597.431 34.9675 594.24Z" fill="#706F6F"/>
<path d="M47.1904 636.604C51.7968 624.61 62.8112 615.059 75.6955 612C71.1346 624.016 60.0519 633.523 47.1904 636.604Z" fill="#706F6F"/>
<path d="M127.438 579.759C128.555 571.22 136.172 565.102 145.111 565.697C144.016 574.279 136.354 580.331 127.438 579.759Z" fill="#706F6F"/>
<path d="M143.104 619.043C144.222 610.504 151.838 604.386 160.777 604.98C159.683 613.563 152.02 619.615 143.104 619.043Z" fill="#706F6F"/>
<path d="M158.497 656.345C159.614 647.806 167.231 641.688 176.17 642.282C175.075 650.865 167.413 656.917 158.497 656.345Z" fill="#706F6F"/>
<path d="M174.665 687.002C175.782 678.463 183.399 672.345 192.338 672.939C191.243 681.522 183.581 687.574 174.665 687.002Z" fill="#706F6F"/>
<path d="M200.297 715.479C201.414 706.94 209.031 700.822 217.97 701.416C216.875 709.999 209.213 716.051 200.297 715.479Z" fill="#706F6F"/>
<path d="M215.849 742.922C216.966 734.384 224.583 728.265 233.522 728.86C232.428 737.443 224.765 743.495 215.849 742.922Z" fill="#706F6F"/>
<path d="M240.66 764.952C241.777 756.413 249.394 750.295 258.333 750.889C257.238 759.472 249.576 765.524 240.66 764.952Z" fill="#706F6F"/>
<path d="M66.3915 671.376C70.9979 659.382 82.0122 649.831 94.8965 646.772C90.3357 658.788 79.2529 668.295 66.3915 671.376Z" fill="#706F6F"/>
<path d="M88.2148 706.17C92.8213 694.176 103.836 684.624 116.72 681.565C112.159 693.581 101.076 703.089 88.2148 706.17Z" fill="#706F6F"/>
<path d="M108.625 735.704C113.231 723.71 124.245 714.159 137.13 711.1C132.569 723.116 121.486 732.623 108.625 735.704Z" fill="#706F6F"/>
<path d="M131.451 765.216C136.058 753.222 147.072 743.67 159.956 740.611C155.396 752.627 144.313 762.135 131.451 765.216Z" fill="#706F6F"/>
<path d="M153.731 785.397C158.337 773.403 169.352 763.852 182.236 760.792C177.675 772.809 166.592 782.316 153.731 785.397Z" fill="#706F6F"/>
<path d="M177.903 806.788C182.509 794.794 193.524 785.243 206.408 782.184C201.847 794.2 190.765 803.707 177.903 806.788Z" fill="#706F6F"/>
<path d="M230.238 827.475C232.336 817.703 240.819 810.331 251.127 809.451C249.074 819.244 240.523 826.572 230.238 827.475Z" fill="#706F6F"/>
<path d="M251.628 834.011C253.726 824.24 262.209 816.867 272.517 815.987C270.465 825.78 261.913 833.109 251.628 834.011Z" fill="#706F6F"/>
<path d="M210.467 818.452C211.493 809.011 219.11 801.506 228.916 800.428C227.935 809.891 220.25 817.351 210.467 818.452Z" fill="#706F6F"/>
<path d="M272.517 841.229C271.354 834.055 277.078 828.421 284.535 829.477C285.72 836.674 279.951 842.242 272.517 841.229Z" fill="#706F6F"/>
<path d="M289.073 845.499C287.91 838.324 293.633 832.691 301.09 833.747C302.276 840.943 296.507 846.511 289.073 845.499Z" fill="#706F6F"/>
<path d="M304.853 850.164C302.915 843.848 307.818 839.007 314.408 840.833C316.369 847.171 311.421 851.969 304.853 850.164Z" fill="#706F6F"/>
<path d="M356.481 829.676C354.543 823.359 359.446 818.518 366.036 820.344C367.997 826.683 363.049 831.458 356.481 829.676Z" fill="#706F6F"/>
<path d="M206.591 570.67C207.708 562.131 215.325 556.013 224.264 556.607C223.169 565.19 215.507 571.242 206.591 570.67Z" fill="#706F6F"/>
<path d="M222.006 607.973C223.124 599.434 230.74 593.316 239.679 593.91C238.585 602.493 230.922 608.545 222.006 607.973Z" fill="#706F6F"/>
<path d="M238.174 638.651C239.291 630.112 246.908 623.994 255.847 624.588C254.753 633.171 247.09 639.223 238.174 638.651Z" fill="#706F6F"/>
<path d="M263.806 667.106C264.923 658.568 272.54 652.45 281.479 653.044C280.384 661.627 272.722 667.679 263.806 667.106Z" fill="#706F6F"/>
<path d="M279.358 694.55C280.476 686.011 288.092 679.893 297.031 680.487C295.937 689.07 288.275 695.122 279.358 694.55Z" fill="#706F6F"/>
<path d="M309.87 672.938C310.987 664.4 318.604 658.282 327.543 658.876C326.448 667.459 318.786 673.511 309.87 672.938Z" fill="#706F6F"/>
<path d="M335.182 690.963C336.3 682.424 343.916 676.306 352.855 676.9C351.761 685.483 344.099 691.535 335.182 690.963Z" fill="#706F6F"/>
<path d="M304.169 716.579C305.286 708.04 312.903 701.922 321.842 702.516C320.747 711.099 313.085 717.151 304.169 716.579Z" fill="#706F6F"/>
<path d="M281.867 796.994C287.271 788.478 297.852 784.34 307.863 786.893C302.481 795.432 291.878 799.525 281.867 796.994Z" fill="#706F6F"/>
<path d="M297.784 811.915C302.071 803.377 311.877 798.799 321.477 801C317.213 809.583 307.361 814.072 297.784 811.915Z" fill="#706F6F"/>
<path d="M334.247 810.529C335.684 803.399 343.05 799.988 349.686 803.421C348.272 810.573 340.883 813.94 334.247 810.529Z" fill="#706F6F"/>
<path d="M314.248 822.413C315.685 815.283 323.051 811.871 329.687 815.305C328.273 822.457 320.884 825.824 314.248 822.413Z" fill="#706F6F"/>
<path d="M329.687 830.292C330.097 823.712 336.414 820.763 341.955 824.636C341.59 831.238 335.228 834.121 329.687 830.292Z" fill="#706F6F"/>
<path d="M342.183 838.17C342.594 831.59 348.91 828.641 354.452 832.514C354.087 839.117 347.725 842 342.183 838.17Z" fill="#706F6F"/>
<path d="M417.231 774.811C418.873 789.776 413.605 806.194 403.366 817.594C401.702 802.54 407.015 786.299 417.231 774.811Z" fill="#706F6F"/>
<path d="M435.52 789.006C437.458 800.362 432.67 812.004 423.092 818.87C421.108 807.514 425.988 795.894 435.52 789.006Z" fill="#706F6F"/>
<path d="M451.027 796.995C453.604 806.304 449.316 816.141 440.537 820.807C437.914 811.476 442.27 801.682 451.027 796.995Z" fill="#706F6F"/>
<path d="M467.811 802.958C470.251 810.727 465.69 818.562 457.503 820.498C455.018 812.73 459.647 804.917 467.811 802.958Z" fill="#706F6F"/>
<path d="M445.782 770.476C450.799 774.393 449.408 778.728 442.931 779.147C437.892 775.229 439.328 770.894 445.782 770.476Z" fill="#706F6F"/>
<path d="M433.924 750.075C438.462 755.246 436.181 762.047 429.295 763.587C424.711 758.393 427.06 751.637 433.924 750.075Z" fill="#706F6F"/>
<path d="M463.523 784.956C468.495 788.698 467.172 792.219 460.855 791.933C455.861 788.191 457.229 784.67 463.523 784.956Z" fill="#706F6F"/>
<path d="M480.307 796.995C485.529 800.142 484.663 802.585 478.528 801.814C473.283 798.667 474.218 796.246 480.307 796.995Z" fill="#706F6F"/>
<path d="M478.528 808.152C483.431 812.004 482.018 815.613 475.678 815.283C470.752 811.431 472.212 807.844 478.528 808.152Z" fill="#706F6F"/>
<path d="M266.246 309.882C269.438 303.874 276.302 303.346 280.681 308.54C277.967 314.878 270.237 315.45 266.246 309.882Z" fill="#706F6F"/>
<path d="M249.508 332.968C251.811 327.004 256.759 326.564 260.317 331.889C258.584 338.096 252.586 338.58 249.508 332.968Z" fill="#706F6F"/>
<path d="M268.07 332.439C270.373 326.475 275.322 326.035 278.879 331.361C277.146 337.567 271.149 338.051 268.07 332.439Z" fill="#706F6F"/>
<path d="M245.722 312.237C248.025 306.273 252.974 305.833 256.531 311.158C254.798 317.365 248.801 317.849 245.722 312.237Z" fill="#706F6F"/>
<path d="M244.308 297.668C245.996 291.594 249.234 291.638 252.039 297.14C251.013 303.17 246.475 303.214 244.308 297.668Z" fill="#706F6F"/>
<path d="M262.392 293.552C264.079 287.478 267.318 287.522 270.123 293.024C269.096 299.054 264.558 299.098 262.392 293.552Z" fill="#706F6F"/>
<path d="M269.621 348.857C271.308 342.783 274.547 342.827 277.351 348.329C276.325 354.359 271.787 354.403 269.621 348.857Z" fill="#706F6F"/>
<path d="M530.886 304.402C483.18 303.917 399.17 307.329 377.165 355.525C366.948 382.022 362.433 409.685 356.253 437.415C351.51 456.187 344.19 502.887 318.969 503.745C314.818 503.767 311.033 502.469 307.726 500.752C319.698 503.019 327.452 497.517 331.1 486.667C336.824 470.052 337.668 452.512 340.313 434.796C343.141 413.228 346.744 391.177 353.312 370.116C357.964 355.173 363.961 339.768 375.865 328.764C413.583 293.354 482.793 294.718 530.886 304.358V304.402Z" fill="black"/>
<path d="M314.545 861.322C298.149 861.322 279.837 857.339 264.946 853.509C257.626 851.639 251.537 848.382 243.83 844.266C232.952 838.478 218.061 830.534 189.807 820.938C141.234 804.455 85.2048 725.778 46.7572 662.683C12.1635 605.882 19.6204 509.027 29.9506 488.23C34.0554 479.955 40.1896 471.152 46.0959 462.635C53.8721 451.433 61.9219 439.835 64.7268 430.372L65.9582 426.147C70.1769 411.732 70.6786 410.72 84.5207 390.473C88.4201 384.773 92.7301 379.139 96.926 373.681C108.739 358.276 119.912 343.729 120.369 329.666C121.098 307.175 125.682 288.754 137.221 261.685C144.997 243.463 148.075 214.501 139.729 197.6C136.582 191.217 132.227 187.3 126.389 185.627C104.292 179.223 86.8239 161.463 75.2622 149.733C70.8154 145.2 66.5967 140.93 64.1339 139.39C54.2141 133.25 17.1576 117.294 12.3687 115.754C2.42619 112.563 -0.26468 97.8618 1.3316 92.7781C1.94731 90.7754 3.45237 89.1249 5.52754 88.1345C11.8214 85.1195 29.6086 87.4523 36.1305 89.7851C40.0072 91.1716 68.3754 95.1989 94.8965 98.5C105.044 88.7287 126.001 84.5033 131.337 83.557C152.454 77.659 171.951 81.9505 186.295 95.6611C201.277 109.988 208.757 133.844 203.649 151.142C197.287 172.731 199.202 177.243 209.92 202.397L211.22 205.478C220.797 228.058 241.526 284.551 240.683 305.304C240.455 310.828 243.077 318.574 246.087 327.553C251.4 343.333 257.991 362.963 253.704 384.333C251.492 395.314 250.876 408.387 250.967 420.645C300.315 294.388 345.627 264.788 443.501 246.918C523.566 232.305 608.238 310.762 670.037 368.047C687.778 384.487 703.102 398.703 716.146 408.783C773.339 453.084 821.638 462.151 822.139 462.239L826.791 463.075L827.635 467.565C828.867 474.167 827.065 480.285 822.436 485.281C803.691 505.484 738.243 503.547 710.993 501.764C710.833 501.764 710.651 501.852 710.514 501.918C692.042 514.133 648.054 515.475 629.81 515.475C604.338 537.284 561.786 532.377 544.136 529.12C539.05 557.069 493.716 573.311 482.177 577.03C467.24 630.376 398.874 634.513 385.032 634.799C384.69 634.799 384.371 634.931 384.143 635.151C374.565 643.91 362.821 646.881 352.217 647.278C361.84 655.112 370.506 663.079 373.539 665.918C421.108 681.917 436.159 703.705 452.144 732.622C455.428 738.564 458.187 744.154 460.627 749.106C469.749 767.592 474.766 777.76 492.074 782.073C519.12 788.807 523.042 794.485 523.316 799.173L523.452 801.594L521.947 803.53C491.846 841.977 430.321 831.414 418.28 828.905C413.811 827.959 400.562 831.722 389.98 835.947C377.347 854.28 356.276 856.15 344.122 854.236C336.368 859.429 325.924 861.344 314.545 861.344V861.322ZM16.8839 103.298C23.6339 105.542 60.9413 121.74 71.5224 128.276C75.399 130.675 79.7318 135.076 85.2048 140.644C96.4016 152.022 111.726 167.603 130.334 172.995C139.82 175.746 147.346 182.282 152.112 191.944C162.442 212.895 158.679 246.126 149.9 266.725C139.045 292.188 134.735 309.353 134.074 330.106C133.481 348.284 120.505 365.208 107.963 381.56C103.904 386.864 99.6853 392.343 95.9911 397.757C87.2799 410.507 81.6778 421.166 79.1845 429.734L77.9303 434.003C74.5325 445.469 65.867 457.948 57.4979 469.986C51.8653 478.106 46.0275 486.513 42.3332 493.952C34.6711 509.379 25.3214 601.37 58.5925 655.993C111.293 742.504 159.523 796.664 194.368 808.482C223.694 818.429 239.178 826.682 250.465 832.712C257.626 836.52 262.802 839.292 268.503 840.745C313.701 852.387 331.192 847.963 337.896 842.197L340.633 839.843L344.19 840.745C345.125 840.965 367.724 846.269 379.491 827.276L380.608 825.45L382.615 824.614C387.039 822.743 409.752 813.61 421.176 815.987C431.187 818.077 480.056 826.572 506.577 800.559C503.385 799.151 497.912 797.192 488.653 794.881C465.142 789.027 457.708 773.93 448.267 754.806C445.782 749.766 443.205 744.528 440.081 738.851C424.962 711.473 411.758 692.459 367.678 677.934L366.196 677.45L365.078 676.393C364.873 676.195 343.962 656.433 328.752 646.397C325.582 644.307 324.396 640.323 325.924 636.912C327.475 633.523 331.306 631.652 335.068 632.489C344.714 634.623 362.73 636.56 374.747 625.578C377.461 623.091 381.018 621.683 384.758 621.617C402.135 621.265 459.67 616.489 469.817 570.274C470.935 565.168 472.349 558.786 479.099 559.754C481.425 560.084 482.884 561.096 483.796 562.461C501.492 555.881 530.385 541.598 530.932 524.52C531.023 521.659 532.414 519.018 534.763 517.258C537.112 515.497 540.122 514.837 543.041 515.453C555.492 518.094 597.907 525.202 620.711 505.638C623.22 503.481 626.39 502.293 629.651 502.293C629.673 502.293 629.696 502.293 629.719 502.293C655.602 502.293 690.241 499.344 702.806 491.047C705.542 489.242 708.689 488.384 711.928 488.604C753.75 491.333 800.977 488.648 812.265 476.478C813.018 475.664 813.565 474.827 813.907 473.969C798.879 470.228 756.646 457.089 707.618 419.104C694.118 408.651 678.588 394.258 660.596 377.576C600.94 322.294 519.211 246.566 446.078 259.903C349.047 277.619 308.388 305.832 258.971 437.965L258.88 438.185C256.098 444.875 253.544 453.7 253.27 458.366C253.498 460.544 253.681 461.799 253.681 461.865L240.341 464.616C239.862 463.119 239.656 461.425 239.634 459.598C238.265 447.318 234.776 409.355 240.295 381.824C243.898 363.8 238.151 346.722 233.089 331.647C229.668 321.457 226.704 312.676 227.023 304.798C227.684 288.776 210.604 238.863 198.564 210.496L197.264 207.415C186.181 181.358 182.829 173.501 190.491 147.533C193.798 136.309 189.533 117.338 176.672 105.036C169.101 97.7958 155.692 90.4013 134.849 96.3213L134.119 96.4974C123.721 98.302 107.347 103.408 103.448 109.13L101.099 112.585L96.8576 112.057C87.2571 110.89 38.9126 104.882 31.3645 102.175C27.5562 100.811 20.0081 99.9745 15.1736 99.8865C15.6297 101.383 16.291 102.814 16.9067 103.32L16.8839 103.298Z" fill="black"/>
<path d="M262.802 772.852C294.683 794.837 323.735 842.748 352.924 843.43C347.839 843.298 342.753 842.418 337.896 840.943C306.905 830.6 277.055 800.978 262.802 772.852Z" fill="black"/>
<path d="M352.901 844.552C347.839 844.42 342.685 843.584 337.577 841.999C308.525 832.316 277.374 804.081 261.799 773.336L259.815 769.419L263.487 771.95C275.641 780.335 287.408 792.483 298.787 804.235C317.555 823.623 335.296 841.911 352.97 842.33L352.924 844.53L352.901 844.552ZM266.086 776.615C281.114 803.575 307.84 827.915 333.609 838.214C321.591 831.018 309.574 818.628 297.1 805.753C287.043 795.366 276.667 784.67 266.063 776.615H266.086Z" fill="black"/>
<path d="M383.527 716.975C388.407 736.188 391.554 755.752 392.763 775.537C394.04 794.881 393.766 817.967 378.692 832.756L378.145 832.36C382.546 823.447 384.006 814.05 385.1 804.543C386.081 794.97 387.198 785.33 387.29 775.647C387.426 756.104 385.625 736.474 382.843 717.085L383.504 716.953L383.527 716.975Z" fill="black"/>
</g>
<defs>
<clipPath id="clip0_638_76">
<rect width="827.102" height="936.857" fill="white" transform="translate(0.898315 0.699219)"/>
</clipPath>
</defs>
</svg>
