<svg width="1532" height="2166" viewBox="0 0 1532 2166" fill="none" xmlns="http://www.w3.org/2000/svg">
<path d="M1504.88 2140.93H1072.95L1503.72 1709.24L1504.88 2140.93Z" fill="#D32D16"/>
<path d="M630.471 2139.91C630.471 2139.91 422.608 1863.76 494.517 1457.79L807.074 2140.93L630.505 2139.91H630.471Z" fill="#F9F8FC"/>
<path d="M459.97 530.076C459.97 530.076 372.532 480.642 364.734 338.356C356.937 196.069 392.264 47.5987 468.954 110.996C545.644 174.393 677.224 466.713 677.224 466.713L459.936 530.042L459.97 530.076Z" fill="#ED6D3A"/>
<path d="M489.398 490.19C489.398 490.19 483.329 499.737 482.482 333.192C481.6 166.647 416.437 163.385 444.984 97.4741C444.984 97.4741 594.126 131.075 653.864 364.415L489.398 495.388" fill="black"/>
<path d="M885.324 386.532L884.781 389.964C873.695 376.204 845.284 359.183 827.654 359.183H655.118C627.555 359.183 601.11 370.156 581.616 389.692L439.797 531.809C435.322 536.294 438.509 543.938 444.815 543.938H554.357L707.127 400.938L894.817 398.627L885.29 386.498L885.324 386.532Z" fill="#F9F8FC"/>
<path d="M619.248 1103.47C619.248 1103.47 496.145 1140.2 416.709 1054.04C416.709 1054.04 401.215 1132.11 340.154 1074.86C279.094 1017.62 515.944 850.188 515.944 850.188L626.199 761.717L648.711 535.308L936.959 392.172L1153.37 171.845C1153.37 171.845 1210.49 223.011 1199.24 397.37C1187.98 571.729 1133.46 724.413 1133.46 724.413C1133.46 724.413 1206.86 1201.52 1504.74 1394.09V1730.65L1095.36 2140.89H802.531L725.773 1973.53C725.773 1973.53 852.166 1831.28 890.24 1610.95L682.479 1645.64L550.899 1350.71C550.899 1350.71 627.08 1175.5 619.282 1103.47H619.248Z" fill="black"/>
<path d="M446.984 841.49H415.929C415.929 841.49 420.269 822.226 481.024 761.887C523.742 719.452 572.19 643.96 506.994 619.192C441.797 594.424 624.131 391.56 624.131 391.56H867.084C867.084 391.56 907.463 326.091 929.975 267.144C952.487 208.164 1054.74 -70.6337 1175.2 206.329L825.823 565.002V625.07H659.933C648.168 625.07 636.946 630.064 629.081 638.83L446.984 841.49Z" fill="#ED6D3A"/>
<path d="M322.897 947.05C322.897 947.05 263.092 1003.72 344.358 1078.91C344.358 1078.91 337.34 1026.11 358.089 1018.02C378.872 1009.94 367.379 999.235 373.176 992.882C378.974 986.529 385.212 1001.44 389.857 981.195C389.857 981.195 358.123 1008.95 322.931 947.084L322.897 947.05Z" fill="#ED6D3A"/>
<path d="M484.211 1442.64C484.211 1442.64 540.389 1375.91 550.865 1350.71L687.632 1637.83L902.309 1599.67C902.309 1599.67 870.27 1815.24 812.702 1901.1C755.134 1986.99 719.433 1972.11 719.433 1972.11L484.177 1442.64H484.211Z" fill="#6C66AC"/>
<path d="M758.592 1531.11L1123.02 1165.92V1048.8L761.643 1410.98L758.592 1531.11Z" fill="#D31A2B"/>
<path d="M440.339 656.904C440.339 656.904 453.257 658.025 453.257 638.592H520.25C520.25 638.592 557.917 659.69 510.282 690.2C510.282 690.2 506.96 689.078 500.857 712.963C494.755 736.847 480.38 746.258 462.648 720.165C444.916 694.073 440.305 656.904 440.305 656.904H440.339Z" fill="black"/>
<path d="M744.251 1077L1087.59 738.444H874.61V514.04L824.975 562.556V683.201C824.975 683.201 786.902 701.411 758.05 741.264C729.198 781.116 674.783 769.497 662.238 659.317C662.238 659.317 691.667 651.265 692.819 625.104H661.323C648.575 625.104 636.37 630.098 627.25 639.034L422.743 839.723L494.517 951.704C494.517 951.704 625.419 929.077 744.251 1077.04V1077Z" fill="#D31A2B"/>
<path d="M519.436 877.605C528.014 925.476 494.144 975.487 435.05 991.251C375.957 1007.02 319.778 981.161 305.437 934.717C283.4 863.2 330.729 836.835 389.823 821.071C448.917 805.307 508.452 816.383 519.436 877.605Z" fill="black"/>
<path d="M320.592 912.905C324.05 934.037 337.51 951.432 358.089 958.023C355.479 957.616 352.8 957.242 350.224 956.529C331.577 951.534 319.134 931.727 320.558 912.939L320.592 912.905Z" fill="white"/>
<path d="M407.148 981.161C442.814 977.831 492.11 965.43 494.517 922.18C494.755 927.073 494.416 932.033 493.263 936.891C483.126 972.565 439.661 982.01 407.148 981.161Z" fill="white"/>
<path d="M745.81 995.158C760.389 1011.06 767.17 1033.01 769.441 1054.17C770.594 1064.91 772.56 1076.22 769.068 1086.65C767.509 1091.88 765.068 1096.84 762.389 1101.64C759.338 1106.32 755.846 1110.77 751.201 1114.65L748.93 1113.93C745.743 1103.06 745.539 1093.21 745.675 1082.64C745.81 1070.55 751.133 1059.3 750.998 1047.17C751.845 1030.08 750.523 1012.72 743.912 996.619L745.81 995.192V995.158Z" fill="black"/>
<path d="M711.398 718.603C726.546 718.603 738.826 706.297 738.826 691.117C738.826 675.937 726.546 663.631 711.398 663.631C696.25 663.631 683.97 675.937 683.97 691.117C683.97 706.297 696.25 718.603 711.398 718.603Z" fill="white"/>
<path d="M479.159 703.79C490.225 703.79 499.196 694.8 499.196 683.711C499.196 672.621 490.225 663.631 479.159 663.631C468.093 663.631 459.122 672.621 459.122 683.711C459.122 694.8 468.093 703.79 479.159 703.79Z" fill="white"/>
<path d="M744.488 651.502H680.376V681.672H744.488V651.502Z" fill="black"/>
<path d="M504.01 646.813H452.985V680.415H504.01V646.813Z" fill="black"/>
</svg>
