<svg width="1440" height="1945" viewBox="0 0 1440 1945" fill="none" xmlns="http://www.w3.org/2000/svg">
<path d="M1208.18 1415.6C1197.98 1368.56 1118.19 1348.87 1118.19 1348.87C1173.73 1261.99 1131.19 1145.32 1120.3 1172.66C1098.59 1227.26 1052.45 1248.19 1062.29 1238.78C1072.14 1229.37 1110.89 1165.01 1110.01 1116.3C1109.31 1078.49 1071.79 1043.94 1066.6 1086.14C1061.5 1128.35 1005.61 1146.28 969.405 1162.11C933.198 1177.94 890.489 1201.15 889.961 1196.14C888.643 1183.83 875.813 1150.15 849.009 1111.64C819.481 1069.26 800.499 1005.52 790.657 971.753C789.866 968.939 786.526 968.939 784.154 969.115C781.781 968.939 779.32 970.17 778.529 972.984C768.687 1006.75 750.671 1065.92 719.386 1111.64C692.846 1150.33 679.752 1183.83 678.434 1196.14C677.906 1201.15 635.196 1177.94 598.99 1162.11C562.783 1146.28 506.891 1128.44 501.794 1086.14C496.697 1043.94 459.084 1078.49 458.381 1116.3C457.502 1164.93 496.346 1229.37 506.1 1238.78C515.855 1248.19 469.894 1227.26 448.099 1172.66C437.202 1145.32 394.668 1261.99 450.208 1348.87C450.208 1348.87 370.501 1368.47 360.219 1415.6C354.507 1441.71 429.029 1410.5 487.558 1454.82C546.086 1499.22 674.918 1620.38 781.078 1574.31C782.132 1573.87 783.099 1573.34 784.066 1572.81C785.032 1573.34 785.999 1573.87 787.054 1574.31C893.213 1620.38 1022.05 1499.22 1080.57 1454.82C1139.1 1410.41 1213.62 1441.71 1207.91 1415.6H1208.18Z" fill="white"/>
<path d="M1190.69 1406.1C1190.16 1405.49 1189.81 1405.14 1189.46 1404.96C1161.34 1385 1135.67 1373.04 1106.23 1374.19C1105.18 1374.19 1104.13 1374.19 1102.72 1374.28C1102.37 1374.28 1102.02 1374.36 1101.67 1374.36C1100.79 1374.36 1099.91 1374.54 1099.03 1374.63C1098.15 1374.72 1097.27 1374.8 1096.39 1374.98C1090.68 1375.77 1084.79 1377 1078.64 1378.76C1084.18 1371.99 1092.17 1359.24 1096.74 1350.1C1114.14 1315.72 1129.35 1279.4 1134.27 1240.89C1136.11 1225.07 1136.11 1208.98 1131.63 1193.5L1130.75 1190.6C1130.31 1187.61 1126.97 1185.41 1124.16 1186.12C1122.14 1186.38 1120.03 1188.49 1119.77 1190.69C1118.54 1196.31 1116.52 1201.85 1114.32 1207.22C1097.62 1247.58 1062.38 1273.07 1019.94 1279.23C1021.25 1272.46 1024.86 1266.3 1028.99 1260.32C1047.35 1235.71 1066.07 1209.86 1078.2 1181.19C1086.73 1162.2 1094.02 1142.42 1097.1 1121.14C1098.15 1110.68 1100.35 1091.77 1090.15 1084.91C1089.45 1084.47 1088.22 1084.12 1086.99 1083.95C1084.35 1083.68 1081.72 1085.26 1080.75 1086.5C1078.55 1089.13 1078.38 1091.07 1077.94 1092.83C1074.51 1120.17 1047.36 1135.82 1025.47 1148.92C989.793 1168.88 951.214 1182.95 914.304 1201.33C900.859 1208.36 887.764 1216.1 876.428 1226.21C877.834 1209.06 875.549 1191.74 870.891 1175.21C866.849 1161.32 860.609 1147.78 852.437 1135.82C847.867 1129.14 841.891 1122.19 837.321 1115.6C818.251 1088.69 805.596 1057.57 797.248 1025.65C793.82 1014.57 788.46 992.152 784.681 981.249C784.681 979.93 783.89 979.842 783.89 981.073C780.111 991.976 774.399 1014.57 770.972 1025.65C762.623 1057.48 749.968 1088.61 730.898 1115.6C726.24 1122.28 720.353 1129.14 715.783 1135.82C707.61 1147.78 701.37 1161.32 697.328 1175.21C692.67 1191.74 690.385 1209.15 691.791 1226.21C680.455 1216.1 667.361 1208.27 653.915 1201.33C617.005 1182.95 578.514 1168.97 542.746 1148.92C520.864 1135.91 493.709 1120.26 490.282 1092.83C489.842 1090.98 489.667 1089.13 487.47 1086.5C486.503 1085.26 483.867 1083.68 481.23 1083.95C480 1084.03 478.77 1084.47 478.067 1084.91C467.872 1091.86 469.982 1110.41 471.124 1121.14C474.2 1142.42 481.582 1162.2 490.018 1181.19C502.146 1209.77 520.776 1235.71 539.231 1260.32C543.362 1266.22 546.965 1272.37 548.283 1279.23C505.925 1273.07 470.685 1247.58 453.899 1207.22C451.702 1201.85 449.681 1196.31 448.451 1190.69C448.099 1188.4 446.078 1186.38 444.057 1186.12C441.508 1185.5 438.345 1187.26 437.642 1189.9L437.466 1190.6L436.587 1193.5C432.105 1208.98 432.105 1225.07 433.951 1240.89C438.872 1279.4 454.075 1315.81 471.476 1350.1C476.309 1359.5 481.582 1368.82 487.118 1378.06C446.43 1366.98 414.705 1379.38 378.938 1404.87C374.983 1407.6 375.598 1413.67 380.344 1415.16C383.332 1416.04 388.341 1414.72 391.065 1414.55C446.605 1404.79 485.976 1422.72 526.313 1460C589.059 1516.54 659.1 1575.8 749.88 1562.96C761.656 1561.03 773.081 1557.69 784.241 1553.47C795.314 1557.69 806.827 1561.03 818.603 1562.96C909.207 1575.8 979.424 1516.45 1042.17 1460C1082.42 1422.81 1121.88 1404.79 1177.42 1414.55C1179 1414.81 1183.04 1415.25 1184.54 1415.42C1185.77 1415.6 1186.56 1415.6 1188.05 1415.16C1189.72 1414.81 1191.92 1412.61 1192.01 1410.59C1192.27 1408.39 1191.48 1407.25 1190.69 1406.02V1406.1Z" fill="#61B22F" stroke="#1D1D1B" stroke-miterlimit="10"/>
<path d="M781.166 931.834C781.166 931.834 780.638 931.57 780.638 931.307V821.048C780.638 821.048 780.902 820.521 781.166 820.521C781.429 820.521 781.693 820.784 781.693 821.048V931.307C781.693 931.307 781.429 931.834 781.166 931.834Z" stroke="#13130A" stroke-width="1.14" stroke-miterlimit="10"/>
<path d="M938.823 961.553C938.823 961.553 938.735 961.553 938.647 961.553C938.383 961.465 938.207 961.114 938.383 960.85L961.584 901.764C961.584 901.764 961.935 901.324 962.287 901.5C962.55 901.588 962.726 901.94 962.55 902.203L939.35 961.289C939.35 961.289 939.086 961.641 938.823 961.641V961.553Z" stroke="#13130A" stroke-width="1.14" stroke-miterlimit="10"/>
<path d="M615.951 961.553C615.951 961.553 615.511 961.465 615.423 961.201L592.223 902.115C592.223 902.115 592.223 901.5 592.487 901.412C592.75 901.324 593.102 901.412 593.19 901.676L616.39 960.762C616.39 960.762 616.39 961.377 616.126 961.465C616.126 961.465 616.038 961.465 615.951 961.465V961.553Z" stroke="#13130A" stroke-width="1.14" stroke-miterlimit="10"/>
<path d="M480.703 1023.19C480.703 1023.19 480.439 1023.19 480.351 1023.01L405.126 942.121C405.126 942.121 404.95 941.594 405.126 941.418C405.301 941.242 405.653 941.242 405.829 941.418L481.054 1022.31C481.054 1022.31 481.23 1022.84 481.054 1023.01C480.966 1023.1 480.791 1023.19 480.703 1023.19Z" stroke="#13130A" stroke-width="1.14" stroke-miterlimit="10"/>
<path d="M402.577 1118.32C402.577 1118.32 402.401 1118.32 402.314 1118.32L346.949 1086.06C346.949 1086.06 346.597 1085.62 346.773 1085.35C346.861 1085.09 347.213 1085 347.476 1085.18L402.841 1117.45C402.841 1117.45 403.192 1117.88 403.017 1118.15C402.929 1118.32 402.753 1118.41 402.577 1118.41V1118.32Z" stroke="#13130A" stroke-width="1.14" stroke-miterlimit="10"/>
<path d="M359.428 1214.25L249.578 1197.46C249.578 1197.46 249.138 1197.19 249.138 1196.84C249.138 1196.58 249.402 1196.31 249.753 1196.4L359.604 1213.2C359.604 1213.2 360.043 1213.46 360.043 1213.81C360.043 1214.08 359.78 1214.25 359.516 1214.25H359.428Z" stroke="#13130A" stroke-width="1.14" stroke-miterlimit="10"/>
<path d="M1069.32 1031.1C1069.32 1031.1 1069.06 1031.1 1068.97 1031.01C1068.71 1030.84 1068.71 1030.49 1068.97 1030.31L1138.66 944.408C1138.66 944.408 1139.19 944.144 1139.37 944.408C1139.63 944.584 1139.63 944.935 1139.37 945.111L1069.68 1031.01C1069.68 1031.01 1069.41 1031.19 1069.24 1031.19L1069.32 1031.1Z" stroke="#13130A" stroke-width="1.14" stroke-miterlimit="10"/>
<path d="M1136.55 1098.63C1136.55 1098.63 1136.2 1098.54 1136.11 1098.37C1135.94 1098.1 1136.11 1097.84 1136.29 1097.66L1192.53 1066.62C1192.53 1066.62 1193.06 1066.62 1193.24 1066.8C1193.41 1067.06 1193.24 1067.33 1193.06 1067.5L1136.82 1098.54C1136.82 1098.54 1136.64 1098.54 1136.55 1098.54V1098.63Z" stroke="#13130A" stroke-width="1.14" stroke-miterlimit="10"/>
<path d="M1160.19 1215.13C1160.19 1215.13 1159.75 1215.04 1159.67 1214.78C1159.58 1214.51 1159.67 1214.16 1159.93 1214.08L1263.89 1174.68C1263.89 1174.68 1264.51 1174.68 1264.6 1174.95C1264.68 1175.21 1264.59 1175.56 1264.33 1175.65L1160.37 1215.04C1160.37 1215.04 1160.28 1215.04 1160.19 1215.04V1215.13Z" stroke="#13130A" stroke-width="1.14" stroke-miterlimit="10"/>
<path d="M690.385 1217.59C741.356 1274.48 742.938 1357.92 735.819 1429.93C739.51 1367.24 735.116 1299.36 700.491 1245.29C695.746 1237.9 689.946 1230.6 683.97 1225.24L690.385 1217.59Z" fill="#1D1D1B"/>
<path d="M448.89 1370.23C464.709 1368.21 483.427 1373.57 498.103 1378.41C539.583 1394.15 578.338 1415.95 616.478 1438.11C590.29 1424.66 563.838 1411.82 536.77 1400.56C511.109 1390.72 484.745 1378.85 456.887 1378.41C456.272 1378.41 454.602 1378.23 454.866 1378.14L449.33 1371.02L448.802 1370.23H448.89Z" fill="#1D1D1B"/>
<path d="M544.68 1261.64C565.332 1293.91 568.232 1332.6 568.847 1369.62C565.244 1335.06 561.025 1296.11 539.758 1267.97L545.822 1261.64H544.68Z" fill="#1D1D1B"/>
<path d="M879.943 1229.2C829.06 1282.31 824.315 1363.99 828.006 1433.89C820.888 1361.88 822.469 1278.35 873.44 1221.55L879.943 1229.2Z" fill="#1D1D1B"/>
<path d="M1111.95 1378.67C1106.32 1377.88 1098.41 1379.2 1092.35 1380.34C1042.08 1391.51 995.593 1414.63 949.632 1436.79C975.205 1422.37 1001.13 1408.39 1027.85 1395.91C1049.73 1385.88 1072.23 1376.12 1095.95 1370.85C1099.38 1370.23 1103.77 1371.55 1107.29 1371.46C1109.93 1371.37 1111.68 1370.41 1114.76 1371.02L1111.95 1378.76V1378.67Z" fill="#1D1D1B"/>
<path d="M1026.35 1276.24C1005 1304.38 999.46 1342.97 995.857 1377.44C995.857 1359.15 996.736 1340.78 999.9 1322.66C1003.41 1303.76 1007.55 1286.09 1018.88 1269.47L1026.35 1276.15V1276.24Z" fill="#1D1D1B"/>
<path d="M353.628 728.99C360.834 741.3 365.228 752.466 367.689 762.05C369.71 771.634 369.271 780.339 365.668 787.9C362.064 795.462 355.21 803.024 344.752 811.025C337.107 816.564 330.34 820.609 323.837 822.543C317.421 824.565 311.358 826.148 304.942 827.731C298.879 829.313 292.463 831.687 285.697 835.292C279.281 838.458 272.075 844.876 264.429 853.581C261.617 848.833 258.805 844.437 256.784 841.271C254.763 838.106 252.39 835.292 249.578 832.479C246.766 830.105 243.953 827.731 239.911 826.148C236.308 824.126 231.474 822.191 225.499 820.609C231.562 817.443 236.747 815.069 241.141 813.047C245.184 811.025 248.787 808.651 252.39 806.277C255.641 803.903 258.805 801.529 262.408 798.276C265.66 795.11 269.614 791.154 274.887 785.966C276.469 790.714 279.281 795.11 282.533 799.067C285.784 803.024 289.739 805.398 294.133 807.42C298.527 809.003 303.36 809.794 308.194 809.442C313.027 809.09 318.212 806.629 323.485 802.672C331.131 796.693 335.525 790.714 336.316 784.735C337.106 778.756 335.525 771.986 331.131 764.424C326.737 756.863 320.321 747.719 311.445 737.783C302.57 727.847 292.551 715.45 281.742 700.766C258.102 706.306 235.165 708.328 212.668 705.954C190.171 703.58 170.925 694.787 155.634 677.29C146.406 666.915 140.343 654.957 137.53 640.625C134.718 626.293 135.509 611.17 139.903 595.256C144.297 579.341 152.734 563.427 164.773 547.512C176.813 531.949 192.456 517.618 211.701 505.308C240.965 487.019 269.087 477.084 294.748 474.27C320.058 471.896 345.279 473.479 369.798 479.81C373.05 470.226 376.653 462.312 380.607 455.102C384.65 448.332 389.395 441.562 395.02 435.583C400.644 429.604 407.85 423.273 416.287 417.646C424.723 411.667 435.532 405.337 448.802 398.566C453.636 402.963 456.009 405.337 460.842 409.733C446.43 420.108 435.972 429.604 428.766 437.605C421.911 445.958 417.517 453.52 415.496 460.73C413.474 467.94 413.474 475.062 415.056 482.623C417.078 489.745 419.45 498.186 422.702 506.891C439.926 552.7 457.59 598.861 474.903 644.582C478.154 652.935 482.548 659.353 487.733 664.453C493.358 669.201 500.564 672.806 509.791 674.828C510.231 674.828 511.022 674.389 511.813 673.597C513.043 672.366 514.185 671.223 515.416 669.641C516.646 668.058 518.228 666.475 519.81 664.893C521.391 663.31 523.061 662.079 524.995 661.288C529.389 663.662 531.849 664.893 536.243 667.267C524.643 682.39 519.019 690.391 508.561 705.866C508.122 706.657 507.331 707.888 506.54 709.471C505.309 711.054 504.518 713.076 502.937 715.01C501.706 717.033 500.564 718.615 499.685 720.55C498.455 722.132 498.103 723.363 497.664 723.715C487.206 720.11 478.418 715.714 471.563 710.966C464.709 706.218 458.733 700.59 453.899 695.051C449.066 689.512 444.672 683.093 441.42 676.763C437.817 670.432 434.566 663.662 430.963 656.452C427.36 648.89 425.778 644.934 422.526 637.372C406.093 647.747 390.801 656.891 375.95 664.805C359.867 673.597 343.873 680.719 327.791 686.698C337.019 701.821 345.895 716.593 353.101 728.902L353.628 728.99ZM246.502 640.625C242.108 627.876 240.087 615.127 240.438 602.026C241.229 588.925 244.041 574.945 249.226 560.613C254.411 546.281 261.705 529.575 271.284 511.287C250.017 514.452 230.332 522.014 213.107 533.18C199.837 541.973 189.028 551.908 180.592 563.075C172.155 574.242 166.179 585.76 162.928 597.278C159.676 608.796 158.885 619.611 160.555 629.898C162.137 640.274 166.179 649.418 172.595 656.979C185.074 671.751 199.486 680.104 216.359 682.83C232.793 685.643 250.457 685.203 268.56 682.39C258.542 666.827 250.896 652.935 246.502 640.625ZM280.248 550.677C278.227 563.778 278.666 576.967 281.478 589.716C283.851 602.466 288.333 615.567 294.748 628.755C300.812 641.856 308.37 655.397 317.246 668.937C327.703 665.332 337.282 661.376 346.949 657.419C356.177 653.023 365.052 649.066 373.05 644.67C388.341 636.669 401.171 629.107 412.42 620.754C404.423 603.609 400.38 594.904 392.735 577.759C382.277 555.425 369.095 538.368 351.431 527.201C333.767 516.474 314.873 510.056 295.275 509.265C286.839 524.036 282.006 537.489 280.424 550.677H280.248Z" fill="#13130A"/>
<path d="M636.603 362.781C637.833 364.012 638.975 365.155 640.206 366.386C641.436 367.617 642.227 368.76 643.457 369.991C644.688 371.222 645.039 372.013 645.039 372.013C625.793 380.366 611.732 388.719 602.856 395.929C593.629 403.49 588.005 410.7 584.753 418.262C581.941 425.384 580.711 433.385 581.502 440.946C582.292 448.948 583.523 457.652 584.753 468.027C594.772 526.146 604.79 584.705 614.896 642.823C621.751 645.197 624.914 646.428 631.769 649.154C638.975 643.615 642.578 641.153 650.224 636.053L659.451 645.197C649.785 652.759 641.787 659.529 635.372 665.86C630.187 671.048 626.584 675.444 624.124 678.169C621.751 681.335 618.939 684.5 615.336 688.545C592.838 680.543 580.799 677.026 556.719 671.047C563.135 661.464 566.386 656.716 573.592 647.571C561.553 595.783 549.074 544.083 537.034 492.295C535.013 483.151 532.992 475.589 530.97 469.171C528.949 463.192 526.137 457.652 522.182 452.465C518.228 447.277 512.516 442.881 505.309 438.572C498.103 434.264 488.436 428.989 475.606 423.449C480 418.701 482.46 416.327 486.855 411.931C495.291 415.096 501.706 417.47 507.331 419.493C512.516 421.515 516.997 423.449 520.161 425.472C523.413 427.054 526.225 428.637 528.598 430.22C530.97 431.45 533.431 432.594 535.804 433.824C541.428 424.241 546.613 416.327 551.886 409.557C557.071 402.787 563.135 396.456 569.989 390.829C576.844 385.29 585.28 380.102 595.299 374.914C605.317 370.166 618.148 365.33 633.79 360.583C634.581 361.022 635.372 361.813 636.603 362.957V362.781Z" fill="#13130A"/>
<path d="M670.349 637.812C678.785 629.459 683.179 625.063 692.055 617.149C689.682 575.736 687.222 533.972 684.849 492.559C710.51 482.184 733.447 474.27 753.923 468.291C773.959 462.313 788.811 458.356 797.248 455.982C809.727 458.796 821.327 464.335 831.345 472.688C841.364 481.041 849.449 490.976 855.425 502.143C861.488 513.309 865.443 525.619 867.464 538.808C869.485 551.997 869.046 564.658 867.025 577.055C864.213 591.387 860.961 603.345 857.358 612.489C853.315 621.634 847.34 629.195 839.694 635.965C831.697 642.736 821.239 648.715 808.76 655.045C795.93 661.024 779.847 668.938 760.602 678.961C726.504 659.881 708.401 651.88 670.261 637.988L670.349 637.812ZM733.007 620.666C754.714 631.393 765.084 637.372 785.208 649.682C792.414 641.681 798.039 634.119 802.081 626.557C806.475 619.435 809.727 612.226 811.748 605.895C814.121 599.125 815.79 593.146 816.581 586.815C817.372 580.836 818.163 574.857 818.954 569.318C819.745 560.965 820.185 552.964 819.394 544.611C818.603 536.258 816.142 528.257 812.187 520.343C808.145 512.342 802.169 504.781 793.733 498.01C785.296 491.24 774.047 485.261 759.196 480.074C748.386 485.261 743.114 488.075 732.744 493.174C733.183 536.17 733.183 578.374 733.183 620.578L733.007 620.666Z" fill="#13130A"/>
<path d="M935.659 698.304C929.595 690.303 924.411 681.159 920.807 669.641C917.204 658.474 915.183 645.373 914.744 631.041C914.304 616.27 916.326 600.355 920.807 582.506C924.059 569.757 927.662 559.822 931.617 552.26C935.659 544.698 941.284 538.72 949.281 534.323C957.278 529.927 967.384 526.762 980.566 524.739C993.397 522.717 1011.06 521.134 1033.12 520.783C1049.55 520.783 1057.64 521.222 1074.07 522.014C1074.07 522.805 1074.86 525.179 1076.44 530.015C1077.67 534.763 1079.7 540.742 1081.63 548.743C1083.65 556.744 1085.67 563.515 1087.25 569.406C1088.83 575.736 1091.3 583.298 1093.32 591.739C1095.34 600.092 1097.36 607.301 1098.5 612.401C1100.08 617.589 1100.52 620.754 1100.87 621.194C1054.3 616.006 1010.97 613.632 964.045 614.423C962.023 618.82 960.793 624.799 960.442 632.712C960.002 640.713 960.881 648.626 962.814 656.979C964.835 665.332 967.999 673.333 972.481 680.455C976.875 688.017 983.29 693.205 991.727 696.81C1015.37 698.392 1027.41 699.975 1051.57 703.932C1052.36 709.119 1052.36 711.493 1053.16 716.241C1013.78 713.867 994.539 714.219 957.629 717.472C948.841 712.724 941.987 706.306 935.571 698.392L935.659 698.304ZM1050.87 599.564C1048.5 590.771 1046.48 583.649 1044.81 578.11C1043.22 572.571 1041.55 567.383 1040.41 562.987C1039.18 558.591 1038.04 554.194 1037.16 550.238C1036.37 546.281 1035.14 541.445 1034.35 535.906C1022.31 535.906 1012.29 537.928 1004.65 542.237C997 546.633 990.584 551.82 985.751 557.799C980.918 563.778 977.314 570.549 974.502 577.67C971.69 584.792 969.669 591.211 967.648 596.75C1000.16 595.959 1016.6 596.75 1050.69 599.564H1050.87Z" fill="#13130A"/>
<path d="M1110.28 784.296C1106.23 774.712 1104.21 764.424 1103.86 752.467C1103.51 740.509 1105.09 727.408 1109.05 713.428C1112.65 699.535 1119.5 684.412 1128.73 668.41C1135.59 657.243 1142 648.539 1147.98 642.56C1154.04 636.581 1161.6 632.624 1170.48 630.602C1179.26 629.019 1190.51 628.579 1203.78 631.041C1217.05 633.064 1234.72 637.02 1256.33 643.351C1272.42 648.539 1280.41 651.352 1296.06 657.683V685.907C1296.06 694.26 1295.62 701.47 1295.62 707.8C1295.62 714.571 1295.62 722.572 1295.18 731.276C1294.74 740.069 1294.74 747.631 1294.74 753.17C1294.74 758.709 1294.3 761.962 1294.3 762.314C1251.76 741.212 1207.56 724.506 1161.86 712.197C1158.61 715.802 1155.45 720.989 1153.08 728.551C1150.26 736.112 1149.03 744.114 1148.24 752.818C1147.8 761.611 1148.68 769.964 1150.61 778.668C1152.99 787.021 1157.47 794.231 1165.03 800.122C1187.88 809.266 1199.12 814.454 1222.06 825.972C1221.27 831.16 1220.83 833.534 1220.04 838.721C1181.9 823.159 1163.01 817.619 1125.74 809.266C1118.89 801.705 1113.7 793.704 1110.1 784.208L1110.28 784.296ZM1251.59 724.946V686.346C1251.59 681.599 1251.59 677.202 1252.03 673.246C1252.47 668.849 1252.82 664.101 1253.26 658.474C1241.22 654.517 1231.2 653.726 1222.32 655.309C1213.54 656.891 1205.89 660.057 1199.48 664.453C1193.06 668.849 1187.44 674.037 1182.6 680.016C1177.77 685.995 1173.81 691.534 1170.56 696.37C1202.64 705.514 1218.72 711.493 1251.68 725.034L1251.59 724.946ZM1355.55 640.186C1315.83 621.457 1296.14 613.896 1256.42 601.147C1255.63 598.773 1255.19 597.542 1254.05 595.607C1288.15 595.168 1305.46 596.047 1341.14 599.564C1352.74 609.5 1358.8 614.336 1370.05 624.623C1363.99 630.602 1361.26 633.767 1355.64 640.186H1355.55Z" fill="#13130A"/>
</svg>
