<svg width="869" height="1068" viewBox="0 0 869 1068" fill="none" xmlns="http://www.w3.org/2000/svg">
<path d="M673.071 15.2429C690.713 101.182 721.004 311.574 630.133 438.874C614.01 461.453 580.354 463.616 560.921 443.569C487.421 367.811 320.172 187.175 314.527 106.986C307.307 4.63893 664.657 299.176 565.318 485.299C564.015 487.726 562.387 489.942 560.541 491.999C550.01 503.394 512.88 535.523 434.874 525.71C340.855 513.893 63.8989 491.366 24.4889 816.08C24.2718 818.084 24.2175 820.142 24.326 822.146C25.1946 835.388 27.9088 888.988 14.8264 897.64C-0.101654 907.558 -7.53853 929.294 14.8264 944.488C37.1913 959.681 77.2527 1017.03 202.105 1005.16C326.958 993.287 355.457 885.823 276.04 859.445C196.623 833.067 157.267 877.91 155.258 901.65C153.25 925.39 144.402 1007.79 200.043 1038.18C255.683 1068.57 377.116 1077.75 396.821 1052C416.526 1026.26 452.462 1022.36 503.326 1029.58C554.19 1036.81 573.243 1015.08 573.243 1005.84C573.243 996.611 642.455 1005.21 636.321 974.189C630.187 943.169 628.83 932.618 579.323 943.855C529.816 955.092 550.824 898.379 563.038 889.094C574.003 880.811 644.844 814.866 661.943 786.8C665.2 781.472 670.14 777.304 675.84 774.613C679.422 772.925 683.385 770.815 686.533 768.546C692.668 764.168 699.942 761.635 707.541 761.794C728.712 762.216 766.873 761.266 784.353 749.871C786.253 748.605 788.153 747.391 790.324 746.547C795.698 744.331 806.772 740.164 817.466 738.792C832.394 736.787 877.178 707.771 866.321 679.441C855.465 651.111 822.243 595.032 820.18 583.847C818.117 572.663 761.825 496.114 733.326 486.249C704.827 476.383 646.472 467.573 619.33 387.542C592.188 307.511 581.332 238.928 590.831 172.35C597.345 126.822 617.105 54.0186 637.244 11.2862C644.898 -4.90992 669.434 -2.21936 673.017 15.2956L673.071 15.2429Z" fill="white" stroke="#1D1D1B" stroke-width="0.5" stroke-miterlimit="10"/>
<path d="M784.081 642.037C784.081 642.037 786.361 596.772 744.725 594.134C744.725 594.134 716.226 644.675 784.081 642.037Z" stroke="#1D1D1B" stroke-width="0.75" stroke-miterlimit="10"/>
<path d="M574.221 999.879C568.576 978.513 556.579 929.872 530.469 926.39C500.07 926.126 472.005 945.329 445.786 958.624L441.606 960.839C437.915 963.213 430.206 961.894 430.912 956.355C433.572 947.809 444.049 945.382 450.346 941.32C461.094 935.675 470.974 928.553 476.945 918.582C482.699 908.505 486.064 896.477 489.593 885.293C496.433 862.291 500.884 838.551 501.97 814.652C505.987 734.833 465.979 675.693 387.431 650.37C468.205 672.528 510.709 734.094 506.909 814.811C505.987 839.184 501.644 863.293 494.804 886.717C490.95 898.535 487.747 910.141 481.396 921.114C474.719 932.193 463.754 939.79 452.68 945.487C446.654 949.075 438.729 951.291 435.635 956.83C435.635 957.041 435.635 956.83 435.635 956.988C436.612 957.621 438.24 957.357 439.489 956.724C451.757 950.288 463.917 943.535 476.619 937.785C493.664 930.61 511.686 921.905 530.849 923.435C558.75 927.392 569.444 977.246 574.221 999.879Z" fill="#1D1D1B"/>
<path d="M843.088 699.224C848.136 704.764 854.976 716.317 847.811 722.226C849.276 713.785 846.833 706.293 843.088 699.224Z" fill="#1D1D1B"/>
<path opacity="0.13" d="M662.595 780.203C661.238 780.203 514.834 799.353 508.049 833.17C501.264 866.986 499.526 880.756 498.169 885.134C496.812 889.513 482.318 929.555 470.593 936.572C458.868 943.588 435.472 956.566 435.472 956.566C435.472 956.566 508.592 919.426 519.449 920.27C530.305 921.114 544.528 928.078 544.528 928.078C544.528 928.078 546.59 897.374 558.804 888.141C571.018 878.909 621.665 827.472 630.296 818.24C638.927 809.007 650.164 796.874 655.158 790.543C660.152 784.212 662.595 780.097 662.595 780.097V780.203Z" fill="#1D1D1B" stroke="#1D1D1B" stroke-miterlimit="10"/>
<path opacity="0.13" d="M556.85 945.279C556.85 945.279 572.918 969.441 576.989 1000.51C576.989 1000.51 590.56 996.611 598.703 995.292C606.845 993.973 631.599 993.287 632.63 981.786C633.661 970.233 633.661 969.283 630.621 960.684C627.582 952.137 623.185 944.541 616.399 943.855C609.614 943.169 603.208 941.217 594.577 944.646C585.946 948.075 559.075 949.13 556.904 945.279H556.85Z" fill="#1D1D1B" stroke="#1D1D1B" stroke-miterlimit="10"/>
</svg>
