<svg width="1625" height="1850" viewBox="0 0 1625 1850" fill="none" xmlns="http://www.w3.org/2000/svg">
<path d="M1623.06 1333.54V516.448C1623.06 478.564 1603.04 443.55 1570.16 424.608L865.288 16.2065C832.689 -2.73551 792.37 -2.73551 759.772 16.2065L54.901 424.895C22.3026 443.837 2 478.851 2 516.735V1333.83C2 1371.71 22.0166 1406.72 54.901 1425.67L759.772 1834.07C792.37 1853.01 832.689 1853.01 865.288 1834.07L1570.16 1425.67C1602.76 1406.72 1623.06 1371.71 1623.06 1333.83V1333.54Z" fill="white" stroke="black" stroke-width="2.1" stroke-miterlimit="10"/>
<path d="M812.673 498.08L444.081 284.552L75.7759 498.08L444.081 711.609L812.673 925.137L1180.98 711.609L812.673 498.08Z" fill="#4A4A49"/>
<path d="M1180.98 1138.67V1565.72L1549.57 1352.19V925.138L1180.98 1138.67Z" fill="black"/>
<path d="M1180.98 284.557L812.673 71.0283L444.081 284.557L812.673 498.085L1180.98 711.613L1549.57 498.085L1180.98 284.557Z" fill="#2E2D2C"/>
<path d="M1180.98 711.608V1138.66L1549.57 925.136V498.08L1180.98 711.608Z" fill="#E6007E"/>
<path d="M812.672 925.142V1352.2L1180.98 1138.67V711.614L812.672 925.142Z" fill="#009FE3"/>
<path d="M812.672 1352.19V1779.25L1180.98 1565.72V1138.66L812.672 1352.19Z" fill="#FFED00"/>
<path d="M444.081 1138.66L75.7759 1352.19L444.081 1565.72L812.673 1779.25V1352.19L444.081 1138.66Z" fill="#2E2D2C"/>
<path d="M75.7759 498.08V925.136V1352.19L444.081 1138.66V711.608L75.7759 498.08Z" fill="#3C3C3B"/>
</svg>
