<svg width="1190" height="1425" viewBox="0 0 1190 1425" fill="none" xmlns="http://www.w3.org/2000/svg">
<g clip-path="url(#clip0_150_184)">
<path d="M743.389 1396.71C743.389 1396.71 760.916 1399.5 775.838 1396.71C790.759 1393.93 838.983 1407.58 843.862 1393.03C848.789 1378.54 851.204 1363.66 841.778 1359.46C832.351 1355.26 803.881 1350.2 785.501 1356.29C785.501 1356.29 780.575 1361.87 779.343 1356.29C778.111 1350.72 746.373 1240.09 743.389 1149.19C740.404 1058.29 742.157 999.738 766.127 939.438C790.096 879.091 791.612 860.203 791.612 860.203L674.464 910.067C674.464 910.067 673.517 962.292 683.796 1059.23C694.076 1156.18 715.108 1298.36 720.746 1322.63C726.335 1346.85 731.593 1395.58 743.389 1396.67V1396.71Z" fill="#070808"/>
<path d="M792.56 1396.72C792.56 1396.72 810.939 1399.5 826.572 1396.72C842.204 1393.93 892.749 1407.58 897.912 1393.03C903.075 1378.49 905.633 1363.66 895.686 1359.46C885.738 1355.26 855.989 1350.2 836.662 1356.3C836.662 1356.3 831.498 1361.87 830.219 1356.3C828.94 1350.72 802.555 1263.13 799.428 1172.23C796.302 1081.33 791.233 999.786 816.387 939.439C841.493 879.092 883.701 815.298 883.701 815.298L740.073 903.646C740.073 903.646 722.119 996.291 741.778 1092.1C761.674 1189.04 770.201 1301.24 776.075 1325.46C781.949 1349.68 780.243 1395.58 792.607 1396.67L792.56 1396.72Z" fill="#1D1D1B"/>
<path d="M544.29 1382.6C546.137 1382.69 547.842 1381.84 548.837 1380.28C553.243 1373.44 563.475 1354.31 545.995 1347.94C524.536 1340.15 492.371 1359.55 476.597 1320.64C460.822 1281.74 435.195 1231.73 442.679 1206.94C450.164 1182.15 456.559 1175.59 480.908 1163.59C505.256 1151.6 557.79 1119.11 578.965 1050.36C600.14 981.606 605.256 946.144 605.256 946.144L572.238 833.1L532.873 849.107L470.297 1073.92L405.635 1155.14C405.635 1155.14 382.661 1170.67 384.65 1182.43C386.64 1194.19 394.172 1258.5 399.051 1268.14C403.93 1277.77 474.655 1373.86 483.608 1376.74C491.329 1379.24 532.968 1381.89 544.337 1382.55L544.29 1382.6Z" fill="black"/>
<path d="M557.885 1003.56C557.885 1003.56 564.185 962.293 621.03 946.946C677.828 931.552 783.085 921.07 799.902 875.644C816.719 830.172 770.437 760.286 770.437 760.286L553.669 875.644L529.131 842.071C529.131 842.071 562.101 978.442 557.885 1003.61V1003.56Z" fill="#7E2A0A"/>
<path d="M549.121 1393.13C550.922 1393.08 552.485 1392.09 553.337 1390.48C557.127 1383.16 566.08 1362.25 547.369 1357.33C524.583 1351.38 493.366 1374.48 473.376 1335.99C453.385 1297.51 422.168 1248.59 427.426 1222.38C432.684 1196.17 438.653 1188.81 462.48 1174.12C486.308 1159.44 537.421 1121.05 552.248 1048.28C568.922 966.637 563.901 954.455 563.901 954.455L522.404 838.294L485.218 845.849L442.774 1082.99L384.224 1172.7C384.224 1172.7 362.149 1190.88 365.276 1202.78C368.402 1214.68 382.471 1280.04 388.44 1289.48C394.409 1298.92 476.455 1390.86 485.929 1392.99C494.124 1394.78 537.61 1393.46 549.074 1393.08L549.121 1393.13Z" fill="#1D1D1B"/>
<path d="M365.655 1196.31C365.655 1196.31 548.506 1051.59 532.826 913.609L462.054 868.467L401.419 1018.96C401.419 1018.96 408.667 1121.75 392.751 1148.76C376.834 1175.82 362.339 1194 362.339 1194L365.607 1196.31H365.655Z" fill="#791D06"/>
<path d="M533.821 930.467C533.821 930.467 541.258 848.965 480.813 817.375C420.368 785.785 401.23 857.795 401.23 857.795L370.155 906.054C370.155 906.054 393.272 1065.61 403.077 1082.99C403.077 1082.99 417.573 935.094 471.339 909.029C525.104 882.916 533.773 930.467 533.773 930.467H533.821Z" fill="#7D4201"/>
<path d="M296.92 816.856C296.92 816.856 -51.492 974.429 6.48982 1220.54C64.4716 1466.65 274.94 1399.55 318.9 1417.26C362.86 1434.96 487.729 1417.73 495.687 1409.8C503.646 1401.86 430.221 1296.99 356.323 1281.12C294.883 1267.95 214.732 1214.54 231.927 1162.69C257.318 1086.1 330.269 1075.38 319.847 927.728L296.92 816.762V816.856Z" fill="#E2B900"/>
<path d="M781.664 804.957C781.664 804.957 743.768 864.879 649.074 877.439C554.38 890.047 564.185 970.84 564.185 970.84C564.185 970.84 524.915 783.991 417.573 799.338L370.297 770.675L484.176 709.148L795.639 672.08L781.617 804.957H781.664Z" fill="#1D1D1B"/>
<path d="M382.045 1028.02L315.157 936.652C315.157 936.652 269.35 838.294 289.909 823.844C289.909 823.844 295.972 711.036 460.112 606.633C624.251 502.23 655.611 513.421 681.333 478.431C707.055 443.489 748.931 246.771 814.255 195.915L905.397 257.017L745.852 500.766L444.195 707.259L355.328 768.786L381.998 1027.98L382.045 1028.02Z" fill="#C79900"/>
<path d="M949.309 711.981C949.309 711.981 986.022 634.351 989.053 592.42C992.085 550.489 989.053 402.927 989.053 402.927L918.045 363.168L897.296 465.777L949.262 712.028L949.309 711.981Z" fill="#DBC547"/>
<path d="M989.053 422.948C989.053 422.948 1012.31 360.996 1047.94 351.174C1083.51 341.352 975.221 332.05 975.221 332.05L913.781 382.386C913.781 382.386 956.794 379.6 989.053 422.948Z" fill="#C47800"/>
<path d="M911.886 454.633V425.026C911.886 420.446 912.597 415.865 914.018 411.474C919.703 393.814 938.082 352.071 985.311 352.071C1045.19 352.071 1037.56 352.071 1037.56 352.071C1037.56 352.071 1059.68 352.544 1064.8 341.352C1064.8 341.352 1169.73 325.25 1171 306.551C1171.29 302.349 1175.13 300.602 1175.13 296.399V290.024L1175.17 274.206L1172.71 266.651L1162.05 266.32L899.523 262.873C899.523 262.873 842.346 251.446 814.634 312.265C814.634 312.265 823.208 309.81 837.514 330.114C851.82 350.371 860.252 373.84 873.895 393.389C887.585 412.985 911.886 452.13 911.886 454.586V454.633Z" fill="#DBC547"/>
<path d="M235.054 1200.33C235.054 1200.33 105.684 1218.7 89.7675 1083.03C73.8509 947.372 254.049 893.305 284.603 838.294C284.603 838.294 339.743 961.349 309.662 1034.54C279.629 1107.73 213.689 1149.94 235.006 1200.33H235.054Z" fill="#791D06"/>
<path d="M230.98 1193.76C230.98 1193.76 75.5563 1156.51 158.739 1013.57C241.922 870.639 253.812 869.742 253.812 869.742C253.812 869.742 292.704 947.797 238.464 1017.97C184.225 1088.13 211.937 1174.74 230.98 1193.72V1193.76Z" fill="#7D4201"/>
<path d="M1171.86 268.633C1171.86 268.633 1087.49 239.593 1058.4 214.094C1029.32 188.596 1064.37 192.515 1013.5 156.911C1013.5 156.911 1011.89 129.854 997.864 61.102C983.606 -8.83059 972.474 -8.59448 961.247 12.0406C950.02 32.6756 921.455 102.089 917.239 102.089C913.023 102.089 822.308 6.79918 795.307 0.141185C784.885 -2.40869 776.738 44.4806 783.038 94.2031C789.291 143.926 798.481 175.327 815.297 187.179C815.297 187.179 817.145 192.987 814.255 195.915C811.366 198.842 865.368 262.353 874.795 263.203C884.222 264.053 874.132 263.864 874.132 263.864C874.132 263.864 866.458 266.697 864.753 268.397C863.047 270.097 921.455 277.038 971.005 274.961C1020.55 272.883 1063.38 273.119 1079.72 280.108C1096.06 287.096 1171.81 268.68 1171.81 268.68L1171.86 268.633Z" fill="black"/>
<path d="M796.633 9.11328C796.633 9.11328 807.529 161.208 886.069 179.388C886.069 179.388 841.446 45.4253 818.045 22.0515C818.045 22.0515 850.873 37.7757 892.417 79.1403C933.914 120.505 950.825 140.196 958.689 141.99C969.063 144.304 998.812 147.656 998.812 140.29C998.812 132.924 993.08 36.4063 985.027 14.0714C985.027 14.0714 1023.59 131.46 1021.83 154.739C1021.83 154.739 1048.08 170.227 1051.44 181.041C1054.8 191.854 1050.73 199.268 1066.74 210.364C1082.75 221.461 1169.68 261.739 1181.38 265.895C1181.38 265.895 1099.76 283.744 1087.06 279.777C1074.37 275.811 1036.85 267.547 973.705 271.042C910.465 274.536 875.127 267.784 873.137 266.225C871.148 264.667 882.327 260.606 884.317 261.173C886.306 261.739 876.264 264.761 852.436 234.446C828.609 204.131 820.982 198.89 822.64 193.743C824.298 188.596 825.766 185.385 819.324 181.324C812.882 177.263 791.66 62.2828 796.681 9.1605L796.633 9.11328Z" fill="#BCA70D"/>
<path d="M1174.98 296.068L1175.17 287.71C1175.17 287.71 1180.95 289.977 1183.23 287.71C1185.5 285.444 1194.26 270.192 1187.44 267.406C1180.62 264.62 1174.56 264.147 1170.1 264.147C1165.65 264.147 1158.69 269.578 1160.11 270.994C1161.53 272.411 1176.26 284.499 1175.13 285.538C1172.05 288.277 1174.94 296.068 1174.94 296.068H1174.98Z" fill="black"/>
<path d="M781.664 698.901C781.664 698.901 722.025 924.517 483.56 791.688C483.56 791.688 335.574 708.486 378.018 857.418V723.88L784.507 560.972L781.712 698.948L781.664 698.901Z" fill="#791D06"/>
<path d="M253.812 869.742C253.812 869.742 70.0139 970.698 88.7727 1071.37C107.532 1172.04 233.964 1196.31 233.964 1196.31C233.964 1196.31 123.922 1161.8 146.139 1064.85C168.356 967.912 237.469 1010.55 253.86 869.742H253.812Z" fill="#966500"/>
<path d="M321.316 1418.2C321.316 1418.2 342.727 1425.71 394.077 1424.72C497.535 1422.73 498.198 1410.5 497.298 1408.19C481.808 1367.49 432.211 1320.31 423.873 1320.31C415.536 1320.31 322.926 1308.04 321.316 1418.15V1418.2Z" fill="white"/>
<path d="M97.7258 1000.07C97.7258 1000.07 -130.933 1202.83 207.152 1323.81C207.152 1323.81 271.482 1345.43 321.363 1418.2C321.363 1418.2 334.864 1315.45 233.822 1284.66C132.828 1253.87 24.7749 1153.2 97.7258 1000.07Z" fill="#B07F00"/>
<path d="M385.787 819.831C385.787 819.831 369.871 793.246 450.78 806.798C531.689 820.303 685.739 872.859 781.143 651.351L773.138 485.656L384.508 795.371L385.787 819.878V819.831Z" fill="#7D4201"/>
<path d="M799.902 900.766C799.902 900.766 771.859 893.069 764.137 805.665C756.653 721.047 768.59 495.809 768.353 494.486C768.353 494.486 757.6 602.384 589.244 662.07C420.889 721.756 392.845 772.092 392.845 772.092C392.845 772.092 459.259 783.566 495.735 828.331C495.735 828.331 346.801 803.776 399.146 1071.37C399.146 1071.37 308.668 902.608 328.327 790.744C347.985 678.88 643.531 537.173 708.998 498.925C774.464 460.677 772.474 331.956 801.371 326.573C830.267 321.19 794.597 476.826 823.351 521.685C852.105 566.544 853.289 738.896 853.289 738.896L799.997 900.766H799.902Z" fill="#AF6200"/>
<path d="M870.248 827.102C870.248 827.102 1001.18 723.833 941.588 623.963C881.996 524.093 844.999 524.565 811.129 442.402C811.129 442.402 803.313 512.429 834.625 559.507C865.937 606.586 870.295 827.102 870.295 827.102H870.248Z" fill="#791D06"/>
<path d="M950.067 719.678C950.067 719.678 1006.39 628.78 921.976 468.657C871.527 372.99 850.068 334.458 840.925 318.97C837.041 312.359 830.693 307.637 823.256 305.796H823.066C823.066 305.796 785.17 312.029 794.312 398.063C803.455 484.098 862.905 514.696 913.781 584.062C964.705 653.428 949.546 721.189 949.546 721.189" fill="#C79900"/>
<path d="M798.481 919.653C798.481 919.653 766.932 878.383 798.481 788.193C830.03 698.003 846.183 617.588 830.03 569.329C813.876 521.07 815.582 513.043 815.582 513.043C815.582 513.043 1053.1 665.846 798.434 919.653H798.481Z" fill="#7D4201"/>
<path d="M561.769 994.638C561.769 994.638 566.696 925.603 644.005 878.241C644.005 878.241 614.067 878.713 592.513 897.696C570.959 916.678 563.143 939.391 562.385 956.39C561.627 973.389 563.285 974.947 561.817 994.638H561.769Z" fill="black"/>
<path d="M877.78 260.418C877.78 260.418 894.501 251.021 914.634 235.675C960.157 201.015 987.774 192.138 1014.97 202.715C1038.41 211.829 1036.28 230.953 1069.54 232.464C1069.54 232.464 1035.71 240.397 1015.82 231.708C995.922 223.02 970.531 212.348 923.208 240.208C882.232 264.337 877.78 260.418 877.78 260.418Z" fill="black"/>
<path d="M1017.81 230.905C1024.32 230.905 1029.6 225.641 1029.6 219.147C1029.6 212.654 1024.32 207.39 1017.81 207.39C1011.29 207.39 1006.01 212.654 1006.01 219.147C1006.01 225.641 1011.29 230.905 1017.81 230.905Z" fill="white"/>
<path d="M1168.73 304.379C1144.57 315.334 1118.61 324.778 1091.61 322.701C1084.79 323.078 1072.43 320.292 1068.35 326.242L1064.85 324.448C1070.48 315.901 1083.27 319.773 1091.75 319.631C1109.47 321.331 1126.85 318.64 1143.72 313.21C1152.29 310.801 1160.16 306.74 1168.59 303.907L1168.73 304.427V304.379Z" fill="#1D1D1B"/>
<path d="M1041.21 215.747C1045.47 217.494 1044.71 219.855 1046.23 221.744C1043.2 224.011 1039.69 218.722 1041.21 215.747Z" fill="white"/>
</g>
<defs>
<clipPath id="clip0_150_184">
<rect width="1190" height="1425" fill="white"/>
</clipPath>
</defs>
</svg>
